SplineFontDB: 3.0
FontName: otfpoc
FullName: otfpoc
FamilyName: otfpoc
Weight: Medium
Copyright: Copyright (c) 2012, Philippe Cochy with Reserved Font Name otfpoc.\n\nThis Font Software is licensed under the SIL Open Font License, Version 1.1.\nThis license is copied below, and is also available with a FAQ at:\nhttp://scripts.sil.org/OFL
UComments: "The purpose of this font is to serve as support to the instructional web page http://pecita.net/otfpoc/+AAoA-This page explains the use of contextual alternates within Latin script with glyphs connected." 
FontLog: "2012-08-31: Created+AAoA-2012-09-16: V1.0 +AD0A Latin 1 +- calt on lowercases+AAoA-2012-09-23: V1.1 +AD0A Remove overlaps to be clean" 
Version: 001.001
ItalicAngle: 0
UnderlinePosition: -100
UnderlineWidth: 50
Ascent: 616
Descent: 384
LayerCount: 2
Layer: 0 0 "Arri+AOgA-re"  1
Layer: 1 0 "Avant"  0
XUID: [1021 911 371108665 3236849]
FSType: 0
OS2Version: 0
OS2_WeightWidthSlopeOnly: 0
OS2_UseTypoMetrics: 1
CreationTime: 1346422027
ModificationTime: 1348882061
PfmFamily: 65
TTFWeight: 400
TTFWidth: 5
LineGap: 90
VLineGap: 0
Panose: 3 5 5 2 4 6 4 2 4 4
OS2TypoAscent: 0
OS2TypoAOffset: 1
OS2TypoDescent: 0
OS2TypoDOffset: 1
OS2TypoLinegap: 90
OS2WinAscent: 0
OS2WinAOffset: 1
OS2WinDescent: 0
OS2WinDOffset: 1
HheadAscent: 0
HheadAOffset: 1
HheadDescent: 0
HheadDOffset: 1
OS2FamilyClass: 2563
OS2Vendor: 'Peci'
OS2UnicodeRanges: 00000001.10000000.00000000.00000000
Lookup: 5 0 0 "calt 1st pass "  {"calt 1st pass-1"  } ['calt' ('DFLT' <'dflt' > 'latn' <'dflt' > ) ]
Lookup: 5 0 0 "calt 2nd pass"  {"calt 2nd pass-1"  } ['calt' ('DFLT' <'dflt' > 'latn' <'dflt' > ) ]
Lookup: 1 0 0 "Substitutions 0x1"  {"Substitutions 0x1-1" ("0x1" ) } ['aalt' ('DFLT' <'dflt' > 'latn' <'dflt' > ) ]
Lookup: 1 0 0 "Substitutions 1x0"  {"Substitutions 1x0-1" ("1x0" ) } ['aalt' ('DFLT' <'dflt' > 'latn' <'dflt' > ) ]
Lookup: 1 0 0 "Substitutions 1x1"  {"Substitutions 1x1-1" ("1x1" ) } ['aalt' ('DFLT' <'dflt' > 'latn' <'dflt' > ) ]

StartChar: uniFFFD
Encoding: 65533 65533 1
Width: 400
VWidth: 0
Flags: W
HStem: 0 60<100 300> 480 60<100 300>
VStem: 40 60<60 480> 300 60<60 480>
LayerCount: 2
Fore
SplineSet
330 0 m 3
 70 0 l 3
 53 0 40 13 40 30 c 3
 40 40 40 500 40 510 c 3
 40 527 53 540 70 540 c 3
 330 540 l 3
 347 540 360 527 360 510 c 3
 360 500 360 40 360 30 c 3
 360 13 347 0 330 0 c 3
100 60 m 1
 300 60 l 1
 300 480 l 1
 100 480 l 1
 100 60 l 1
EndSplineSet
Validated: 1
EndChar

StartChar: a
Encoding: 97 97 2
Width: 480
VWidth: 0
Flags: W
HStem: 0 60<124.046 249.047 379.206 458.894> 260 60<152.193 276.296>
VStem: 40 60<84.0457 207.807> 300 60<111.365 236.284>
LayerCount: 2
Fore
SplineSet
180 0 m 3
 100 0 40 60 40 140 c 3
 40 239 121 320 220 320 c 3
 251 320 279 311 301 296 c 1
 304 310 315 320 330 320 c 3
 347 320 360 307 360 290 c 3
 360 140 l 3
 360 93 383 60 430 60 c 3
 447 60 460 47 460 30 c 3
 460 13 447 0 430 0 c 3
 378 0 339 26 318 65 c 1
 285 26 235 0 180 0 c 3
180 60 m 3
 247 60 300 113 300 180 c 3
 300 227 267 260 220 260 c 3
 153 260 100 207 100 140 c 3
 100 93 133 60 180 60 c 3
EndSplineSet
Validated: 1
AlternateSubs2: "Substitutions 1x1-1" a.1x1
Substitution2: "Substitutions 1r1-1" a.1r1
EndChar

StartChar: b
Encoding: 98 98 3
Width: 400
VWidth: 0
Flags: W
HStem: 0 60<124.046 247.807> 260 60<150.596 275.954>
VStem: 40 60<84.375 209.782 274 614.894> 300 60<112.193 235.954>
LayerCount: 2
Fore
SplineSet
180 0 m 3
 100 0 40 60 40 140 c 3
 40 150 40 576 40 586 c 3
 40 603 53 616 70 616 c 3
 87 616 100 603 100 586 c 3
 100 274 l 1
 132 303 174 320 220 320 c 3
 300 320 360 260 360 180 c 3
 360 81 279 0 180 0 c 3
180 60 m 3
 247 60 300 113 300 180 c 3
 300 227 267 260 220 260 c 3
 153 260 100 207 100 140 c 3
 100 93 133 60 180 60 c 3
EndSplineSet
Validated: 1
AlternateSubs2: "Substitutions 0x1-1" b.0x1
AlternateSubs2: "Substitutions 1x0-1" b.1x0
Substitution2: "Substitutions 1o0-1" b.1o0
EndChar

StartChar: c
Encoding: 99 99 4
Width: 380
VWidth: 0
Flags: W
HStem: 0 60<124.046 248.505> 260 60<152.193 270.096>
VStem: 40 60<84.0457 207.807>
LayerCount: 2
Fore
SplineSet
302 50 m 0
 272 20 230 0 180 0 c 3
 100 0 40 60 40 140 c 3
 40 239 121 320 220 320 c 3
 250 320 282 310 302 290 c 0
 320 272 330 261 330 250 c 3
 330 233 317 220 300 220 c 3
 289 220 278 230 260 248 c 0
 252 256 234 260 220 260 c 3
 153 260 100 207 100 140 c 3
 100 93 133 60 180 60 c 3
 217 60 243 75 260 92 c 0
 278 110 289 120 300 120 c 3
 317 120 330 107 330 90 c 3
 330 79 320 68 302 50 c 0
EndSplineSet
Validated: 1
AlternateSubs2: "Substitutions 0x1-1" c.0x1
AlternateSubs2: "Substitutions 1x0-1" c.1x0
Substitution2: "Substitutions 1o0-1" c.1o0
EndChar

StartChar: d
Encoding: 100 100 5
Width: 480
VWidth: 0
Flags: W
HStem: 0 60<124.046 249.047 379.206 458.894> 260 60<152.193 276.415>
VStem: 40 60<84.0457 207.807> 300 60<111.365 236.284 296 614.894>
LayerCount: 2
Fore
SplineSet
180 0 m 3
 100 0 40 60 40 140 c 3
 40 239 121 320 220 320 c 3
 250 320 278 311 300 296 c 1
 300 586 l 3
 300 603 313 616 330 616 c 3
 347 616 360 603 360 586 c 3
 360 140 l 3
 360 93 383 60 430 60 c 3
 447 60 460 47 460 30 c 3
 460 13 447 0 430 0 c 3
 378 0 339 26 318 65 c 1
 285 26 235 0 180 0 c 3
180 60 m 3
 247 60 300 113 300 180 c 3
 300 227 267 260 220 260 c 3
 153 260 100 207 100 140 c 3
 100 93 133 60 180 60 c 3
EndSplineSet
Validated: 1
AlternateSubs2: "Substitutions 1x1-1" d.1x1
Substitution2: "Substitutions 1r1-1" d.1r1
EndChar

StartChar: e
Encoding: 101 101 6
Width: 380
VWidth: 0
Flags: W
HStem: 0 60<136.492 248.505> 260 60<152.193 248.937>
VStem: 40 60<124.24 207.807> 250 60<192.826 258.937>
LayerCount: 2
Fore
SplineSet
220 260 m 3
 153 260 100 207 100 140 c 3
 100 134 100 128 101 123 c 1
 104 126 107 129 110 132 c 0
 140 162 215 177 232 194 c 0
 246 208 250 216 250 230 c 3
 250 247 237 260 220 260 c 3
220 320 m 3
 270 320 310 280 310 230 c 3
 310 200 304 182 274 152 c 0
 244 122 169 107 152 90 c 0
 145 83 140 78 135 73 c 1
 148 65 163 60 180 60 c 3
 217 60 243 75 260 92 c 0
 278 110 289 120 300 120 c 3
 317 120 330 107 330 90 c 3
 330 79 320 68 302 50 c 0
 272 20 230 0 180 0 c 3
 100 0 40 60 40 140 c 3
 40 239 121 320 220 320 c 3
EndSplineSet
Validated: 1
AlternateSubs2: "Substitutions 0x1-1" e.0x1
AlternateSubs2: "Substitutions 1x0-1" e.1x0
Substitution2: "Substitutions 1o0-1" e.1o0
EndChar

StartChar: uniE00E
Encoding: 57358 57358 7
Width: 320
VWidth: 0
Flags: W
HStem: 0 60<61.1064 172.219>
LayerCount: 2
Fore
SplineSet
90 0 m 3
 73 0 60 13 60 30 c 3
 60 47 73 60 90 60 c 3
 147 60 180 82 210 112 c 0
 228 130 239 140 250 140 c 3
 267 140 280 127 280 110 c 3
 280 99 270 88 252 70 c 0
 202 20 150 0 90 0 c 3
EndSplineSet
Validated: 1
EndChar

StartChar: uniE012
Encoding: 57362 57362 8
Width: 140
VWidth: 0
Flags: W
HStem: 520 20G<61.5 78.5>
VStem: 40 60<111.106 538.894>
LayerCount: 2
Fore
SplineSet
100 510 m 3
 100 500 100 150 100 140 c 3
 100 123 87 110 70 110 c 3
 53 110 40 123 40 140 c 3
 40 150 40 500 40 510 c 3
 40 527 53 540 70 540 c 3
 87 540 100 527 100 510 c 3
EndSplineSet
Validated: 1
EndChar

StartChar: c.0x1
Encoding: 57634 57634 9
Width: 380
VWidth: 0
Flags: W
HStem: 0 60<124.375 358.894> 260 60<152.193 270.096>
VStem: 40 60<84.0457 207.807>
LayerCount: 2
Fore
SplineSet
180 0 m 3
 100 0 40 60 40 140 c 3
 40 239 121 320 220 320 c 3
 250 320 282 310 302 290 c 0
 320 272 330 261 330 250 c 3
 330 233 317 220 300 220 c 3
 289 220 278 230 260 248 c 0
 252 256 234 260 220 260 c 3
 153 260 100 207 100 140 c 3
 100 93 133 60 180 60 c 3
 330 60 l 3
 347 60 360 47 360 30 c 3
 360 13 347 0 330 0 c 3
 180 0 l 3
EndSplineSet
Validated: 1
Substitution2: "Substitutions 1r1-1" c.1r1
AlternateSubs2: "Substitutions 1x1-1" c.1x1
EndChar

StartChar: e.0x1
Encoding: 57636 57636 10
Width: 380
VWidth: 0
Flags: W
HStem: 0 60<137.373 358.86> 260 60<152.193 248.937>
VStem: 40 60<124.24 207.807> 250 60<192.826 258.937>
LayerCount: 2
Fore
SplineSet
220 260 m 3
 153 260 100 207 100 140 c 3
 100 134 100 128 101 123 c 1
 104 126 107 129 110 132 c 0
 140 162 215 177 232 194 c 0
 246 208 250 216 250 230 c 3
 250 247 237 260 220 260 c 3
180 60 m 3
 330 60 l 3
 347 60 360 47 360 30 c 3
 360 13 346.546 0 330 0 c 3
 180 0 l 3
 100 0 40 60 40 140 c 3
 40 239 121 320 220 320 c 3
 270 320 310 280 310 230 c 3
 310 200 304 182 274 152 c 0
 244 122 169 107 152 90 c 0
 145 83 140 78 135 73 c 1
 148 65 163 60 180 60 c 3
EndSplineSet
Validated: 1
AlternateSubs2: "Substitutions 1x1-1" e.1x1
Substitution2: "Substitutions 1r1-1" e.1r1
EndChar

StartChar: e.1x0
Encoding: 57668 57668 11
Width: 400
VWidth: 0
Flags: W
HStem: 0 60<-78.8936 72.0029 155.907 268.505> 260 60<172.193 268.937>
VStem: 60 60<123.477 207.807> 270 60<192.826 258.937>
LayerCount: 2
Fore
SplineSet
240 320 m 3
 290 320 330 280 330 230 c 3
 330 200 324 182 294 152 c 0
 264 122 189 107 172 90 c 0
 165 83 160 78 155 73 c 1
 168 65 183 60 200 60 c 3
 237 60 263 75 280 92 c 0
 298 110 309 120 320 120 c 3
 337 120 350 107 350 90 c 3
 350 79 340 68 322 50 c 0
 292 20 250 0 200 0 c 3
 165 0 133 11 109 31 c 1
 79 12 35 0 -50 0 c 3
 -67 0 -80 13 -80 30 c 3
 -80 47 -67 60 -50 60 c 3
 19 60 53 68 73 79 c 1
 65 97 60 118 60 140 c 3
 60 239 141 320 240 320 c 3
240 260 m 3
 173 260 120 207 120 140 c 3
 120 134 120 128 121 123 c 1
 124 126 127 129 130 132 c 0
 160 162 235 177 252 194 c 0
 266 208 270 216 270 230 c 3
 270 247 257 260 240 260 c 3
EndSplineSet
Validated: 1
AlternateSubs2: "Substitutions 1x1-1" e.1x1
EndChar

StartChar: b.0x1
Encoding: 57633 57633 12
Width: 400
VWidth: 0
Flags: W
HStem: 0 60<124.375 249.782 314 378.894> 260 60<150.596 275.954>
VStem: 40 60<84.375 209.782 274 614.894> 300 60<110.596 235.954>
LayerCount: 2
Fore
SplineSet
180 0 m 3
 100 0 40 60 40 140 c 3
 40 150 40 576 40 586 c 3
 40 603 53 616 70 616 c 3
 87 616 100 603 100 586 c 0
 100 274 l 1
 132 303 174 320 220 320 c 3
 300 320 360 260 360 180 c 3
 360 134 343 92 314 60 c 1
 350 60 l 3
 367 60 380 47 380 30 c 3
 380 13 367 0 350 0 c 3
 180 0 l 3
180 60 m 3
 247 60 300 113 300 180 c 3
 300 227 267 260 220 260 c 3
 153 260 100 207 100 140 c 3
 100 93 133 60 180 60 c 3
EndSplineSet
Validated: 1
AlternateSubs2: "Substitutions 1x1-1" b.1x1
Substitution2: "Substitutions 1r1-1" b.1r1
EndChar

StartChar: g.0x1
Encoding: 57638 57638 13
Width: 440
VWidth: 0
Flags: W
HStem: -384 60<159.578 264.477> 0 60<124.046 249.404 360.886 418.894> 260 60<152.193 275.954>
VStem: 40 60<84.0457 207.807> 80 60<-305.652 -204.026> 300 60<-286.362 -0.917816 110.218 235.625>
DStem2: 120 -162 162 -204 0.810792 0.585335<-31.363 156.49>
LayerCount: 2
Fore
SplineSet
180 0 m 3xec
 100 0 40 60 40 140 c 3xf4
 40 239 121 320 220 320 c 3
 300 320 360 260 360 180 c 3
 360 56 l 1
 369 59 379 60 390 60 c 3
 407 60 420 47 420 30 c 3
 420 13 407 0 390 0 c 3
 370 0 360 -13 360 -30 c 3
 360 -194 l 3
 360 -294 312 -384 212 -384 c 3
 132 -384 80 -324 80 -244 c 3
 80 -211 98 -184 120 -162 c 0
 150 -132 188 -124 208 -104 c 0
 228 -84 239 -74 250 -74 c 3
 267 -74 280 -87 280 -104 c 3
 280 -115 270 -126 250 -146 c 0
 220 -176 182 -184 162 -204 c 0
 152 -214 140 -229 140 -244 c 3
 140 -291 163 -324 210 -324 c 3
 277 -324 300 -261 300 -194 c 3
 300 46 l 1
 268 17 226 0 180 0 c 3xec
180 60 m 3
 247 60 300 113 300 180 c 3
 300 227 267 260 220 260 c 3
 153 260 100 207 100 140 c 3
 100 93 133 60 180 60 c 3
EndSplineSet
Validated: 1
AlternateSubs2: "Substitutions 1x1-1" g.1x1
Substitution2: "Substitutions 1r1-1" g.1r1
EndChar

StartChar: b.1x0
Encoding: 57665 57665 14
Width: 420
VWidth: 0
Flags: W
HStem: 0 60<-78.8936 -10.0491 144.289 267.807> 260 60<170.596 295.954>
VStem: 60 60<182 209.782 274 614.894> 320 60<112.193 235.954>
LayerCount: 2
Fore
SplineSet
200 0 m 3
 137 0 85 38 67 93 c 1
 58 76 49 57 32 40 c 0
 10 18 -17 0 -50 0 c 11
 -67 0 -80 13 -80 30 c 3
 -80 47 -67 60 -50 60 c 3
 -35 60 -20 72 -10 82 c 0
 10 102 18 140 48 170 c 0
 53 175 57 179 60 182 c 1
 60 586 l 3
 60 603 73 616 90 616 c 3
 107 616 120 603 120 586 c 0
 120 274 l 1
 152 303 194 320 240 320 c 3
 320 320 380 260 380 180 c 3
 380 81 299 0 200 0 c 3
200 60 m 3
 267 60 320 113 320 180 c 3
 320 227 287 260 240 260 c 3
 173 260 120 207 120 140 c 3
 120 93 153 60 200 60 c 3
EndSplineSet
Validated: 1
AlternateSubs2: "Substitutions 1x1-1" b.1x1
EndChar

StartChar: c.1x0
Encoding: 57666 57666 15
Width: 400
VWidth: 0
Flags: W
HStem: 0 60<-78.8936 -10.0491 144.289 268.505> 260 60<170.664 290.096>
VStem: -80 200<21.5 173.5>
LayerCount: 2
Fore
SplineSet
200 0 m 3
 137 0 85 38 67 93 c 1
 58 76 49 57 32 40 c 0
 10 18 -17 0 -50 0 c 11
 -67 0 -80 13 -80 30 c 3
 -80 47 -67 60 -50 60 c 3
 -35 60 -20 72 -10 82 c 0
 10 102 18 140 48 170 c 0
 56 178 62 184 67 188 c 1
 88 264 158 320 240 320 c 3
 270 320 302 310 322 290 c 0
 340 272 350 261 350 250 c 3
 350 233 337 220 320 220 c 3
 309 220 298 230 280 248 c 0
 272 256 254 260 240 260 c 3
 173 260 120 207 120 140 c 3
 120 93 153 60 200 60 c 3
 237 60 263 75 280 92 c 0
 298 110 309 120 320 120 c 3
 337 120 350 107 350 90 c 3
 350 79 340 68 322 50 c 0
 292 20 250 0 200 0 c 3
EndSplineSet
Validated: 1
AlternateSubs2: "Substitutions 1x1-1" c.1x1
EndChar

StartChar: g.1x0
Encoding: 57670 57670 16
Width: 440
VWidth: 0
Flags: W
HStem: -384 60<179.578 284.477> 0 60<-78.8936 -10.0491 144.289 269.404> 260 60<170.664 295.954>
VStem: -80 200<21.5 173.5> 100 60<-305.652 -204.026> 320 60<-286.362 46 110.218 235.625>
DStem2: 140 -162 182 -204 0.810792 0.585335<-31.363 156.49>
LayerCount: 2
Fore
SplineSet
200 0 m 3xec
 137 0 85 38 67 93 c 1
 58 76 49 57 32 40 c 0
 10 18 -17 0 -50 0 c 11
 -67 0 -80 13 -80 30 c 3xf4
 -80 47 -67 60 -50 60 c 3
 -35 60 -20 72 -10 82 c 0
 10 102 18 140 48 170 c 0
 56 178 62 184 67 188 c 1
 88 264 158 320 240 320 c 3
 320 320 380 260 380 180 c 3
 380 170 380 -184 380 -194 c 3
 380 -294 332 -384 232 -384 c 3
 152 -384 100 -324 100 -244 c 3
 100 -211 118 -184 140 -162 c 0
 170 -132 208 -124 228 -104 c 0
 248 -84 259 -74 270 -74 c 3
 287 -74 300 -87 300 -104 c 3
 300 -115 290 -126 270 -146 c 0
 240 -176 202 -184 182 -204 c 0
 172 -214 160 -229 160 -244 c 3
 160 -291 183 -324 230 -324 c 3
 297 -324 320 -261 320 -194 c 3
 320 46 l 1
 288 17 246 0 200 0 c 3xec
200 60 m 3
 267 60 320 113 320 180 c 3
 320 227 287 260 240 260 c 3
 173 260 120 207 120 140 c 3
 120 93 153 60 200 60 c 3
EndSplineSet
Validated: 1
AlternateSubs2: "Substitutions 1x1-1" g.1x1
EndChar

StartChar: a.1x1
Encoding: 57696 57696 17
Width: 500
VWidth: 0
Flags: W
HStem: 0 60<-78.8936 -10.0491 144.289 269.047 399.206 478.894> 260 60<170.664 296.296>
VStem: -80 200<21.5 173.5> 320 60<111.365 236.284>
LayerCount: 2
Fore
SplineSet
200 0 m 3
 137 0 85 38 67 93 c 1
 58 76 49 57 32 40 c 0
 10 18 -17 0 -50 0 c 11
 -67 0 -80 13 -80 30 c 3
 -80 47 -67 60 -50 60 c 3
 -35 60 -20 72 -10 82 c 0
 10 102 18 140 48 170 c 0
 56 178 62 184 67 188 c 1
 88 264 158 320 240 320 c 3
 271 320 299 311 321 296 c 1
 324 310 335 320 350 320 c 3
 367 320 380 307 380 290 c 0
 380 140 l 3
 380 93 403 60 450 60 c 3
 467 60 480 47 480 30 c 3
 480 13 467 0 450 0 c 3
 398 0 359 26 338 65 c 1
 305 26 255 0 200 0 c 3
200 60 m 3
 267 60 320 113 320 180 c 3
 320 227 287 260 240 260 c 3
 173 260 120 207 120 140 c 3
 120 93 153 60 200 60 c 3
EndSplineSet
Validated: 1
EndChar

StartChar: b.1x1
Encoding: 57697 57697 18
Width: 420
VWidth: 0
Flags: W
HStem: 0 60<-78.8936 -10.0491 144.862 269.782 334 398.894> 260 60<170.596 295.954>
VStem: 60 60<182 209.782 274 614.894> 320 60<110.596 235.954>
LayerCount: 2
Fore
SplineSet
200 0 m 3
 137 0 85 38 67 93 c 1
 58 76 49 57 32 40 c 0
 10 18 -17 0 -50 0 c 11
 -67 0 -80 13 -80 30 c 3
 -80 47 -67 60 -50 60 c 3
 -35 60 -20 72 -10 82 c 0
 10 102 18 140 48 170 c 0
 53 175 57 179 60 182 c 1
 60 586 l 3
 60 603 73 616 90 616 c 3
 107 616 120 603 120 586 c 3
 120 274 l 1
 152 303 194 320 240 320 c 3
 320 320 380 260 380 180 c 3
 380 134 363 92 334 60 c 1
 370 60 l 3
 387 60 400 47 400 30 c 3
 400 13 387 0 370 0 c 0
 200 0 l 3
200 60 m 3
 267 60 320 113 320 180 c 3
 320 227 287 260 240 260 c 3
 173 260 120 207 120 140 c 3
 120 93 153 60 200 60 c 3
EndSplineSet
Validated: 1
EndChar

StartChar: c.1x1
Encoding: 57698 57698 19
Width: 400
VWidth: 0
Flags: W
HStem: 0 60<-78.8936 -10.0491 145.063 378.894> 260 60<170.664 290.096>
VStem: -80 200<21.5 173.5>
LayerCount: 2
Fore
SplineSet
200 0 m 3
 137 0 86 38 67 93 c 1
 59 76 49 57 32 40 c 0
 10 18 -17 0 -50 0 c 11
 -67 0 -80 13 -80 30 c 3
 -80 47 -67 60 -50 60 c 3
 -35 60 -20 72 -10 82 c 0
 10 102 18 140 48 170 c 0
 56 178 62 184 67 188 c 1
 88 264 158 320 240 320 c 3
 270 320 302 310 322 290 c 0
 340 272 350 261 350 250 c 3
 350 233 337 220 320 220 c 3
 309 220 298 230 280 248 c 0
 272 256 254 260 240 260 c 3
 173 260 120 207 120 140 c 3
 120 93 153 60 200 60 c 3
 350 60 l 3
 367 60 380 47 380 30 c 3
 380 13 367 0 350 0 c 3
 200 0 l 3
EndSplineSet
Validated: 1
EndChar

StartChar: d.1x1
Encoding: 57699 57699 20
Width: 500
VWidth: 0
Flags: W
HStem: 0 60<-78.8936 -10.0491 144.289 269.047 399.206 478.894> 260 60<170.664 296.415>
VStem: -80 200<21.5 173.5> 320 60<111.365 236.284 296 614.894>
LayerCount: 2
Fore
SplineSet
200 0 m 3
 137 0 85 38 67 93 c 1
 58 76 49 57 32 40 c 0
 10 18 -17 0 -50 0 c 11
 -67 0 -80 13 -80 30 c 3
 -80 47 -67 60 -50 60 c 3
 -35 60 -20 72 -10 82 c 0
 10 102 18 140 48 170 c 0
 56 178 62 184 67 188 c 1
 88 264 158 320 240 320 c 3
 270 320 298 311 320 296 c 1
 320 586 l 3
 320 603 333 616 350 616 c 3
 367 616 380 603 380 586 c 3
 380 140 l 3
 380 93 403 60 450 60 c 3
 467 60 480 47 480 30 c 3
 480 13 467 0 450 0 c 3
 398 0 359 26 338 65 c 1
 305 26 255 0 200 0 c 3
200 60 m 3
 267 60 320 113 320 180 c 3
 320 227 287 260 240 260 c 3
 173 260 120 207 120 140 c 3
 120 93 153 60 200 60 c 3
EndSplineSet
Validated: 1
EndChar

StartChar: e.1x1
Encoding: 57700 57700 21
Width: 400
VWidth: 0
Flags: W
HStem: 0 60<-78.8936 72.0029 156.204 378.894> 260 60<172.193 268.937>
VStem: 60 60<123.477 207.807> 270 60<192.826 258.937>
LayerCount: 2
Fore
SplineSet
240 260 m 3
 173 260 120 207 120 140 c 3
 120 134 120 128 121 123 c 1
 124 126 127 129 130 132 c 0
 160 162 235 177 252 194 c 0
 266 208 270 216 270 230 c 3
 270 247 257 260 240 260 c 3
240 320 m 3
 290 320 330 280 330 230 c 3
 330 200 324 182 294 152 c 0
 264 122 189 107 172 90 c 0
 165 83 160 78 155 73 c 1
 168 65 183 60 200 60 c 0
 350 60 l 3
 367 60 380 47 380 30 c 3
 380 13 367 0 350 0 c 0
 200 0 l 3
 165 0 133 11 109 31 c 1
 79 12 35 0 -50 0 c 3
 -67 0 -80 13 -80 30 c 3
 -80 47 -67 60 -50 60 c 3
 19 60 53 68 73 79 c 1
 65 97 60 118 60 140 c 3
 60 239 141 320 240 320 c 3
EndSplineSet
Validated: 1
EndChar

StartChar: f.1x1
Encoding: 57701 57701 22
Width: 380
VWidth: 0
Flags: W
HStem: -384 21G<101.5 118.5> 0 60<-78.8936 31.6921 191.769 358.894> 556 60<167.592 275.809>
VStem: 80 60<-382.894 -47.9463 15 42 122 527.406> 280 60<469.92 549.551>
LayerCount: 2
Fore
SplineSet
270 0 m 3
 203 0 140 -43 140 -110 c 3
 140 -354 l 3
 140 -371 127 -384 110 -384 c 3
 93 -384 80 -371 80 -354 c 3
 80 42 l 1
 40 12 -3 0 -50 0 c 3
 -67 0 -80 13 -80 30 c 3
 -80 47 -67 60 -50 60 c 3
 7 60 40 82 70 112 c 0
 74 116 77 119 80 122 c 1
 80 466 l 3
 80 556 140 616 230 616 c 3
 290 616 340 580 340 520 c 3
 340 480 326 454 310 438 c 0
 292 420 281 410 270 410 c 3
 253 410 240 423 240 440 c 3
 240 451 250 462 268 480 c 0
 276 488 280 504 280 520 c 3
 280 545 255 556 230 556 c 3
 173 556 140 523 140 466 c 3
 140 15 l 1
 175 44 221 60 270 60 c 3
 330 60 l 3
 347 60 360 47 360 30 c 3
 360 13 347 0 330 0 c 3
 270 0 l 3
EndSplineSet
Validated: 1
EndChar

StartChar: g.1x1
Encoding: 57702 57702 23
Width: 460
VWidth: 0
Flags: W
HStem: -384 60<179.578 284.477> 0 60<-78.8936 -10.0491 144.289 269.404 380.886 438.894> 260 60<170.664 295.954>
VStem: -80 200<21.5 173.5> 100 60<-305.652 -204.026> 320 60<-286.362 -0.917816 110.218 235.625>
DStem2: 140 -162 182 -204 0.810792 0.585335<-31.363 156.49>
LayerCount: 2
Fore
SplineSet
200 0 m 3xec
 137 0 85 38 67 93 c 1
 58 76 49 57 32 40 c 0
 10 18 -17 0 -50 0 c 11
 -67 0 -80 13 -80 30 c 3xf4
 -80 47 -67 60 -50 60 c 3
 -35 60 -20 72 -10 82 c 0
 10 102 18 140 48 170 c 0
 56 178 62 184 67 188 c 1
 88 264 158 320 240 320 c 3
 320 320 380 260 380 180 c 3
 380 56 l 3
 389 56 399 60 410 60 c 3
 427 60 440 47 440 30 c 3
 440 13 427 0 410 -0 c 3
 390 0 380 -13 380 -30 c 3
 380 -194 l 3
 380 -294 332 -384 232 -384 c 3
 152 -384 100 -324 100 -244 c 3
 100 -211 118 -184 140 -162 c 0
 170 -132 208 -124 228 -104 c 0
 248 -84 259 -74 270 -74 c 3
 287 -74 300 -87 300 -104 c 3
 300 -115 290 -126 270 -146 c 0
 240 -176 202 -184 182 -204 c 0
 172 -214 160 -229 160 -244 c 3
 160 -291 183 -324 230 -324 c 3
 297 -324 320 -261 320 -194 c 3
 320 46 l 1
 288 17 246 0 200 0 c 3xec
200 60 m 3
 267 60 320 113 320 180 c 3
 320 227 287 260 240 260 c 3
 173 260 120 207 120 140 c 3
 120 93 153 60 200 60 c 3
EndSplineSet
Validated: 1
EndChar

StartChar: f
Encoding: 102 102 24
Width: 360
VWidth: 0
Flags: W
HStem: -384 21G<81.5 98.5> 0 60<171.769 338.894> 556 60<147.592 255.809>
VStem: 60 60<-382.894 -47.9463 15 527.406> 260 60<469.92 549.551>
LayerCount: 2
Fore
SplineSet
250 0 m 3
 183 0 120 -43 120 -110 c 3
 120 -354 l 3
 120 -371 107 -384 90 -384 c 3
 73 -384 60 -371 60 -354 c 3
 60 466 l 3
 60 556 120 616 210 616 c 3
 270 616 320 580 320 520 c 3
 320 480 306 454 290 438 c 0
 272 420 261 410 250 410 c 3
 233 410 220 423 220 440 c 3
 220 451 230 462 248 480 c 0
 256 488 260 504 260 520 c 3
 260 545 235 556 210 556 c 3
 153 556 120 523 120 466 c 3
 120 15 l 1
 155 44 201 60 250 60 c 3
 310 60 l 3
 327 60 340 47 340 30 c 3
 340 13 327 0 310 0 c 3
 250 0 l 3
EndSplineSet
Validated: 1
AlternateSubs2: "Substitutions 1x1-1" f.1x1
Substitution2: "Substitutions 1r1-1" f.1r1
EndChar

StartChar: g
Encoding: 103 103 25
Width: 420
VWidth: 0
Flags: W
HStem: -384 60<159.578 264.477> 0 60<124.046 249.404> 260 60<152.193 275.954>
VStem: 40 60<84.0457 207.807> 80 60<-305.652 -204.026> 300 60<-286.362 46 110.218 235.625>
DStem2: 120 -162 162 -204 0.810792 0.585335<-31.363 156.49>
LayerCount: 2
Fore
SplineSet
180 0 m 3xec
 100 0 40 60 40 140 c 3xf4
 40 239 121 320 220 320 c 3
 300 320 360 260 360 180 c 3
 360 170 360 -184 360 -194 c 3
 360 -294 312 -384 212 -384 c 3
 132 -384 80 -324 80 -244 c 3
 80 -211 98 -184 120 -162 c 0
 150 -132 188 -124 208 -104 c 0
 228 -84 239 -74 250 -74 c 3
 267 -74 280 -87 280 -104 c 3
 280 -115 270 -126 250 -146 c 0
 220 -176 182 -184 162 -204 c 0
 152 -214 140 -229 140 -244 c 3
 140 -291 163 -324 210 -324 c 3
 277 -324 300 -261 300 -194 c 3
 300 46 l 1
 268 17 226 0 180 0 c 3xec
180 60 m 3
 247 60 300 113 300 180 c 3
 300 227 267 260 220 260 c 3
 153 260 100 207 100 140 c 3
 100 93 133 60 180 60 c 3
EndSplineSet
Validated: 1
AlternateSubs2: "Substitutions 0x1-1" g.0x1
AlternateSubs2: "Substitutions 1x0-1" g.1x0
Substitution2: "Substitutions 1o0-1" g.1o0
EndChar

StartChar: h.1x1
Encoding: 57703 57703 26
Width: 420
VWidth: 0
Flags: W
HStem: 0 60<-78.8936 44.0625 325.854 398.894> 260 60<146.186 250.314>
VStem: 60 60<75.9375 233.409 294 614.894> 260 60<65.8538 250.437>
LayerCount: 2
Fore
SplineSet
210 260 m 3
 153 260 120 227 120 170 c 3
 120 130 l 3
 120 50 70 0 -10 0 c 3
 -50 0 l 3
 -67 0 -80 13 -80 30 c 3
 -80 47 -67 60 -50 60 c 0
 -10 60 l 3
 37 60 60 83 60 130 c 3
 60 586 l 3
 60 603 73 616 90 616 c 3
 107 616 120 603 120 586 c 3
 120 586 120 408 120 294 c 17
 144 311 175 320 210 320 c 3
 270 320 320 271 320 210 c 3
 320 110 l 3
 320 73 333 60 370 60 c 3
 387 60 400 47 400 30 c 3
 400 13 387 0 370 0 c 3
 300 0 260 40 260 110 c 3
 260 210 l 3
 260 237 237 260 210 260 c 3
EndSplineSet
Validated: 1
EndChar

StartChar: h
Encoding: 104 104 27
Width: 400
VWidth: 0
Flags: W
HStem: 0 60<305.854 378.894> 260 60<126.186 230.662>
VStem: 40 60<1.1064 233.409 294 614.894> 240 60<65.8538 250.025>
LayerCount: 2
Fore
SplineSet
190 260 m 3
 133 260 100 227 100 170 c 3
 100 30 l 3
 100 12 87 0 70 0 c 3
 53 0 40 13 40 30 c 3
 40 586 l 3
 40 603 53 616 70 616 c 3
 87 616 100 603 100 586 c 3
 100 294 l 1
 124 311 155 320 190 320 c 3
 250 320 300 270 300 210 c 3
 300 110 l 3
 300 73 313 60 350 60 c 3
 367 60 380 47 380 30 c 3
 380 13 367 0 350 0 c 3
 280 0 240 40 240 110 c 3
 240 210 l 3
 240 238 217 260 190 260 c 3
EndSplineSet
Validated: 1
AlternateSubs2: "Substitutions 1x1-1" h.1x1
Substitution2: "Substitutions 1r1-1" h.1r1
EndChar

StartChar: dotlessi.0x1
Encoding: 57640 57640 28
Width: 220
VWidth: 0
Flags: W
HStem: 0 60<118.951 198.894> 300 20G<61.5 78.5>
VStem: 40 60<78.5592 318.894>
LayerCount: 2
Fore
SplineSet
170 0 m 3
 90 0 40 60 40 140 c 3
 40 290 l 3
 40 307 53 320 70 320 c 3
 87 320 100 307 100 290 c 3
 100 140 l 3
 100 93 123 60 170 60 c 3
 187 60 200 47 200 30 c 3
 200 13 187 0 170 0 c 3
EndSplineSet
Validated: 1
AlternateSubs2: "Substitutions 1x1-1" dotlessi.1x1
Substitution2: "Substitutions 1r1-1" dotlessi.1r1
EndChar

StartChar: dotlessi.1x1
Encoding: 57704 57704 29
Width: 260
VWidth: 0
Flags: W
HStem: 0 60<-78.8936 31.2038 158.482 238.894> 300 20G<101.5 118.5>
VStem: 80 60<122 318.894>
LayerCount: 2
Fore
SplineSet
-50 0 m 3
 -67 0 -80 13 -80 30 c 3
 -80 47 -67 60 -50 60 c 3
 7 60 40 82 70 112 c 0
 74 116 77 119 80 122 c 9
 80 290 l 3
 80 307 93 320 110 320 c 3
 127 320 140 307 140 290 c 3
 140 140 l 3
 140 93 163 60 210 60 c 3
 227 60 240 47 240 30 c 3
 240 13 227 0 210 0 c 3
 161 0 123 23 101 59 c 1
 54 17 6 0 -50 0 c 3
EndSplineSet
Validated: 1
EndChar

StartChar: dotlessi.1x0
Encoding: 57672 57672 30
Width: 240
VWidth: 0
Flags: W
HStem: 0 60<-78.8936 31.7272> 300 20G<101.5 118.5>
VStem: 80 60<122 318.894>
LayerCount: 2
Fore
SplineSet
80 122 m 1
 80 290 l 3
 80 307 93 320 110 320 c 3
 127 320 140 307 140 290 c 3
 140 290 140 192 140 130 c 3
 140 103 164 78 172 70 c 0
 190 52 200 41 200 30 c 3
 200 13 187 0 170 0 c 3
 159 0 148 10 130 28 c 0
 123 35 112 46 102 61 c 1
 55 18 6 0 -50 0 c 3
 -67 0 -80 13 -80 30 c 3
 -80 47 -67 60 -50 60 c 3
 7 60 40 82 70 112 c 0
 74 116 77 119 80 122 c 1
EndSplineSet
Validated: 1
AlternateSubs2: "Substitutions 1x1-1" dotlessi.1x1
EndChar

StartChar: period
Encoding: 46 46 32
Width: 220
VWidth: 0
Flags: W
HStem: 0 60<81.1064 138.894>
VStem: 80 60<1.1064 58.8936>
LayerCount: 2
Fore
SplineSet
80 30 m 3
 80 47 93 60 110 60 c 3
 127 60 140 47 140 30 c 3
 140 13 127 0 110 0 c 3
 93 0 80 13 80 30 c 3
EndSplineSet
Validated: 1
EndChar

StartChar: A
Encoding: 65 65 33
Width: 500
VWidth: 0
Flags: W
HStem: 0 60<150.266 275.773> 480 60<204.227 331.023>
VStem: 40 60<120.465 341.109> 380 60<1.1064 105 201.15 420.503 494 538.894>
LayerCount: 2
Fore
SplineSet
380 105 m 1
 340 42 280 0 200 0 c 3
 100 0 40 110 40 210 c 3
 40 370 120 540 280 540 c 3
 320 540 354 522 380 494 c 1
 380 510 l 3
 380 527 393 540 410 540 c 3
 427 540 440 527 440 510 c 3
 440 30 l 3
 440 13 427 0 410 0 c 3
 393 0 380 13 380 30 c 3
 380 105 l 1
380 330 m 3
 380 394 344 480 280 480 c 3
 156 480 100 334 100 210 c 3
 100 146 136 60 200 60 c 3
 324 60 380 206 380 330 c 3
EndSplineSet
Validated: 1
EndChar

StartChar: Z
Encoding: 90 90 34
Width: 560
VWidth: 0
Flags: W
HStem: 0 60<142 518.894> 420 60<41.1064 418>
DStem2: 70 72 142 60 0.707107 0.707107<42.4264 492.146>
LayerCount: 2
Fore
SplineSet
142 60 m 1
 490 60 l 3
 507 60 520 47 520 30 c 3
 520 13 507 0 490 0 c 3
 70 0 l 3
 53 0 40 13 40 30 c 3
 40 47 50 52 70 72 c 0
 78 80 329 332 418 420 c 1
 70 420 l 3
 53 420 40 433 40 450 c 3
 40 467 53 480 70 480 c 3
 490 480 l 3
 507 480 520 467 520 450 c 3
 520 433 510 428 490 408 c 0
 142 60 l 1
EndSplineSet
Validated: 1
EndChar

StartChar: B
Encoding: 66 66 35
Width: 420
VWidth: 0
Flags: W
HStem: 0 60<100 265.832> 260 60<100 234.308> 480 60<100 268.281>
VStem: 40 60<60 260 320 480> 280 60<365.463 468.338> 320 60<112.193 236.275>
LayerCount: 2
Fore
SplineSet
200 0 m 0xf4
 70 0 l 3
 53 0 40 13 40 30 c 3
 40 40 40 500 40 510 c 3
 40 527 53 540 70 540 c 3
 220 540 l 3
 290 540 340 490 340 420 c 3xf8
 340 380 320 341 291 311 c 1
 344 291 380 242 380 180 c 3
 380 81 299 0 200 0 c 0xf4
200 60 m 3
 267 60 320 113 320 180 c 3xf4
 320 227 287 260 240 260 c 0
 100 260 l 1
 100 60 l 1
 200 60 l 3
180 320 m 3
 227 320 280 373 280 420 c 3xf8
 280 457 257 480 220 480 c 3
 100 480 l 1
 100 320 l 1
 100 320 157 320 180 320 c 3
EndSplineSet
Validated: 1
EndChar

StartChar: C
Encoding: 67 67 36
Width: 440
VWidth: 10
Flags: W
HStem: 0 60<150.266 272.496> 480 60<204.227 329.888>
VStem: 40 60<120.465 341.109>
LayerCount: 2
Fore
SplineSet
200 0 m 3
 100 0 40 110 40 210 c 3
 40 370 120 540 280 540 c 3
 317 540 350 522 370 502 c 0
 390 482 400 471 400 460 c 3
 400 443 387 430 370 430 c 3
 359 430 348 440 328 460 c 0
 318 470 300 480 280 480 c 3
 156 480 100 334 100 210 c 3
 100 146 136 60 200 60 c 3
 237 60 271 73 308 110 c 0
 328 130 339 140 350 140 c 3
 367 140 380 127 380 110 c 3
 380 99 370 88 350 68 c 0
 300 18 250 0 200 0 c 3
EndSplineSet
Validated: 1
EndChar

StartChar: D
Encoding: 68 68 37
Width: 420
VWidth: 0
Flags: W
HStem: 0 60<100 215.41> 480 60<100 248.659>
VStem: 40 60<60 480> 320 60<198.891 409.143>
LayerCount: 2
Fore
SplineSet
140 60 m 3
 264 60 320 206 320 330 c 3
 320 417 257 480 170 480 c 3
 100 480 l 1
 100 60 l 1
 140 60 l 3
140 0 m 3
 70 0 l 3
 53 0 40 13 40 30 c 3
 40 40 40 500 40 510 c 3
 40 527 53 540 70 540 c 3
 90 540 139 540 170 540 c 3
 290 540 380 450 380 330 c 3
 380 170 300 0 140 0 c 3
EndSplineSet
Validated: 1
EndChar

StartChar: E
Encoding: 69 69 38
Width: 400
VWidth: 0
Flags: W
HStem: 0 60<100 358.894> 260 60<100 318.894> 480 60<100 358.894>
VStem: 40 60<60 260 320 480>
LayerCount: 2
Fore
SplineSet
70 0 m 3
 53 0 40 13 40 30 c 3
 40 40 40 500 40 510 c 3
 40 527 53 540 70 540 c 27
 330 540 l 3
 347 540 360 527 360 510 c 3
 360 493 347 480 330 480 c 27
 100 480 l 1
 100 320 l 1
 290 320 l 3
 307 320 320 307 320 290 c 3
 320 273 307 260 290 260 c 27
 100 260 l 1
 100 60 l 1
 330 60 l 3
 347 60 360 47 360 30 c 3
 360 13 347 0 330 0 c 3
 70 0 l 3
EndSplineSet
Validated: 1
EndChar

StartChar: F
Encoding: 70 70 39
Width: 400
VWidth: 0
Flags: W
HStem: 0 21G<61.5 78.5> 260 60<100 318.894> 480 60<100 358.894>
VStem: 40 60<1.1064 260 320 480>
LayerCount: 2
Fore
SplineSet
100 30 m 3
 100 13 87 0 70 0 c 3
 53 0 40 13 40 30 c 3
 40 40 40 500 40 510 c 3
 40 527 53 540 70 540 c 27
 330 540 l 3
 347 540 360 527 360 510 c 3
 360 493 347 480 330 480 c 27
 100 480 l 1
 100 320 l 1
 290 320 l 3
 307 320 320 307 320 290 c 3
 320 273 307 260 290 260 c 27
 100 260 l 1
 100 30 l 3
EndSplineSet
Validated: 1
EndChar

StartChar: G
Encoding: 71 71 40
Width: 460
VWidth: 0
Flags: W
HStem: 0 60<150.266 279.712> 220 60<201.106 359> 480 60<204.227 329.888>
VStem: 40 60<120.465 341.109>
LayerCount: 2
Fore
SplineSet
200 0 m 3
 100 0 40 110 40 210 c 3
 40 370 120 540 280 540 c 3
 317 540 350 522 370 502 c 0
 390 482 400 471 400 460 c 3
 400 443 387 430 370 430 c 3
 359 430 348 440 328 460 c 0
 318 470 300 480 280 480 c 3
 156 480 100 334 100 210 c 3
 100 146 136 60 200 60 c 3
 297 60 352 134 359 220 c 1
 230 220 l 0
 213 220 200 233 200 250 c 3
 200 267 213 280 230 280 c 0
 390 280 l 0
 407 280 420 267 420 250 c 3
 420 110 340 0 200 0 c 3
EndSplineSet
Validated: 1
EndChar

StartChar: H
Encoding: 72 72 41
Width: 420
VWidth: 0
Flags: W
HStem: 0 21G<61.5 78.5 341.5 358.5> 260 60<100 320> 520 20G<61.5 78.5 341.5 358.5>
VStem: 40 60<1.1064 260 320 538.894> 320 60<1.1064 260 320 538.894>
LayerCount: 2
Fore
SplineSet
70 0 m 3
 53 0 40 13 40 30 c 27
 40 510 l 3
 40 527 53 540 70 540 c 3
 87 540 100 527 100 510 c 27
 100 320 l 1
 320 320 l 1
 320 510 l 3
 320 527 333 540 350 540 c 3
 367 540 380 527 380 510 c 27
 380 30 l 3
 380 13 367 0 350 0 c 3
 333 0 320 13 320 30 c 27
 320 260 l 1
 100 260 l 1
 100 30 l 3
 100 13 87 0 70 0 c 3
EndSplineSet
Validated: 1
EndChar

StartChar: I
Encoding: 73 73 42
Width: 220
VWidth: 0
Flags: W
HStem: 0 21G<101.5 118.5> 520 20G<101.5 118.5>
VStem: 80 60<1.1064 538.894>
LayerCount: 2
Fore
SplineSet
140 510 m 3
 140 500 140 40 140 30 c 3
 140 13 127 0 110 0 c 3
 93 0 80 13 80 30 c 3
 80 40 80 500 80 510 c 3
 80 527 93 540 110 540 c 3
 127 540 140 527 140 510 c 3
EndSplineSet
Validated: 1
EndChar

StartChar: J
Encoding: 74 74 43
Width: 420
VWidth: 10
Flags: W
HStem: 0 60<122.657 247.807> 520 20G<321.5 338.5>
VStem: 300 60<114.168 538.894>
LayerCount: 2
Fore
SplineSet
180 0 m 3
 143 0 98 20 68 50 c 0
 50 68 40 79 40 90 c 3
 40 107 53 120 70 120 c 3
 81 120 92 110 110 92 c 0
 127 75 160 60 180 60 c 3
 247 60 300 113 300 180 c 3
 300 190 300 500 300 510 c 3
 300 527 313 540 330 540 c 3
 347 540 360 527 360 510 c 3
 360 500 360 190 360 180 c 3
 360 81 279 0 180 0 c 3
EndSplineSet
Validated: 1
EndChar

StartChar: K
Encoding: 75 75 44
Width: 420
VWidth: 10
Flags: W
HStem: 0 21G<61.5 78.5 344.5 358.5> 520 20G<61.5 78.5 304.5 318.5>
VStem: 40 60<1.1064 238 342 538.894>
DStem2: 100 342 132 290 0.707107 0.707107<0 288.13> 132 290 100 238 0.707107 -0.707107<14.1421 358.84>
LayerCount: 2
Fore
SplineSet
70 0 m 3
 53 0 40 13 40 30 c 3
 40 40 40 500 40 510 c 3
 40 527 53 540 70 540 c 3
 87 540 100 527 100 510 c 3
 100 342 l 1
 268 510 l 0
 288 530 299 540 310 540 c 3
 327 540 340 527 340 510 c 3
 340 499 330 488 310 468 c 0
 132 290 l 1
 350 72 l 0
 370 52 380 41 380 30 c 3
 380 13 367 0 350 0 c 3
 339 0 328 10 308 30 c 0
 100 238 l 1
 100 30 l 3
 100 13 87 0 70 0 c 3
EndSplineSet
Validated: 1
EndChar

StartChar: L
Encoding: 76 76 45
Width: 400
VWidth: 0
Flags: W
HStem: 0 60<100 358.894> 520 20G<61.5 78.5>
VStem: 40 60<60 538.894>
LayerCount: 2
Fore
SplineSet
330 0 m 3
 70 0 l 3
 53 0 40 13 40 30 c 3
 40 40 40 500 40 510 c 3
 40 527 53 540 70 540 c 3
 87 540 100 527 100 510 c 3
 100 60 l 1
 330 60 l 3
 347 60 360 47 360 30 c 3
 360 13 347 0 330 0 c 3
EndSplineSet
Validated: 1
EndChar

StartChar: M
Encoding: 77 77 46
Width: 680
VWidth: 0
Flags: W
HStem: 0 21G<61.5 78.5 321.5 338.5 581.5 598.5> 480 60<148.977 250.983 409.017 509.734>
VStem: 40 60<1.1064 420.503 494 538.894> 300 60<1.1064 420.503> 560 60<1.1064 418.567>
CounterMasks: 1 38
LayerCount: 2
Fore
SplineSet
100 330 m 3
 100 30 l 0
 100 13 87 0 70 0 c 3
 53 0 40 13 40 30 c 1
 40 510 l 0
 40 527 53 540 70 540 c 3
 87 540 100 527 100 510 c 3
 100 494 l 1
 126 522 160 540 200 540 c 3
 258 540 303 503 330 452 c 1
 357 503 402 540 460 540 c 3
 560 540 620 430 620 330 c 3
 620 320 620 40 620 30 c 3
 620 13 607 0 590 0 c 3
 573 0 560 13 560 30 c 3
 560 40 560 320 560 330 c 3
 560 394 524 480 460 480 c 3
 396 480 360 394 360 330 c 3
 360 320 360 40 360 30 c 3
 360 13 347 0 330 0 c 3
 313 0 300 13 300 30 c 3
 300 40 300 320 300 330 c 3
 300 394 264 480 200 480 c 3
 136 480 100 394 100 330 c 3
EndSplineSet
Validated: 1
EndChar

StartChar: N
Encoding: 78 78 47
Width: 500
VWidth: 0
Flags: W
HStem: 0 21G<61.5 78.5 401.5 418.5> 480 60<208.386 329.734>
VStem: 40 60<1.1064 338.406 435 538.894> 380 60<1.1064 418.567>
LayerCount: 2
Fore
SplineSet
280 540 m 3
 380 540 440 430 440 330 c 3
 440 320 440 40 440 30 c 3
 440 13 427 0 410 0 c 3
 393 0 380 13 380 30 c 3
 380 40 380 320 380 330 c 3
 380 394 344 480 280 480 c 3
 158 480 100 333 100 210 c 0
 100 30 l 3
 100 13 87 0 70 0 c 3
 53 0 40 13 40 30 c 1
 40 510 l 3
 40 527 53 540 70 540 c 3
 87 540 100 527 100 510 c 3
 100 435 l 1
 140 498 200 540 280 540 c 3
EndSplineSet
Validated: 1
EndChar

StartChar: O
Encoding: 79 79 48
Width: 480
VWidth: 0
Flags: W
HStem: 0 60<150.266 275.773> 480 60<204.227 329.734>
VStem: 40 60<120.465 341.109> 380 60<198.891 419.535>
LayerCount: 2
Fore
SplineSet
440 330 m 3
 440 170 360 0 200 0 c 3
 100 0 40 110 40 210 c 3
 40 370 120 540 280 540 c 3
 380 540 440 430 440 330 c 3
380 330 m 3
 380 394 344 480 280 480 c 3
 156 480 100 334 100 210 c 3
 100 146 136 60 200 60 c 3
 324 60 380 206 380 330 c 3
EndSplineSet
Validated: 1
EndChar

StartChar: P
Encoding: 80 80 49
Width: 400
VWidth: 0
Flags: W
HStem: 0 21G<61.5 78.5> 220 60<100 245.832> 480 60<100 275.625>
VStem: 40 60<1.10641 220 280 480> 300 60<332.193 455.954>
LayerCount: 2
Fore
SplineSet
180 220 m 3
 100 220 l 1
 100 30 l 3
 100 13 87 0 70 0 c 3
 53 0 40 13 40 30 c 3
 40 40 40 500 40 510 c 3
 40 527 53 540 70 540 c 3
 220 540 l 3
 300 540 360 480 360 400 c 3
 360 301 279 220 180 220 c 3
180 280 m 3
 247 280 300 333 300 400 c 3
 300 447 267 480 220 480 c 3
 100 480 l 1
 100 280 l 1
 180 280 l 3
EndSplineSet
Validated: 1
EndChar

StartChar: Q
Encoding: 81 81 50
Width: 480
VWidth: 0
Flags: W
HStem: 0 60<150.266 276.295> 480 60<204.227 329.734>
VStem: 40 60<120.465 341.109> 380 60<197.953 419.535>
DStem2: 312 170 270 128 0.707107 -0.707107<-50.5419 33.234 98.83 189.135>
LayerCount: 2
Fore
SplineSet
200 0 m 3
 100 0 40 110 40 210 c 3
 40 370 120 540 280 540 c 3
 380 540 440 430 440 330 c 3
 440 249 420 166 379 103 c 1
 394 88 406 76 410 72 c 0
 430 52 440 41 440 30 c 3
 440 13 427 0 410 0 c 3
 399 0 388 10 368 30 c 0
 341 57 l 1
 304 22 257 0 200 0 c 3
200 60 m 3
 240 60 273 75 299 99 c 1
 270 128 l 0
 250 148 240 159 240 170 c 3
 240 187 253 200 270 200 c 3
 281 200 292 190 312 170 c 0
 315 167 324 158 336 147 c 1
 366 199 380 267 380 330 c 3
 380 394 344 480 280 480 c 3
 156 480 100 334 100 210 c 3
 100 146 136 60 200 60 c 3
EndSplineSet
Validated: 1
EndChar

StartChar: R
Encoding: 82 82 51
Width: 420
VWidth: 0
Flags: W
HStem: 0 21G<61.5 78.5 344.5 358.5> 220 60<100 118> 480 60<100 275.625>
VStem: 40 60<1.10641 220 280 480> 300 60<330.605 455.954>
DStem2: 201 221 118 220 0.707107 -0.707107<0 261.26>
LayerCount: 2
Fore
SplineSet
220 540 m 3
 300 540 360 480 360 400 c 3
 360 308 290 232 201 221 c 1
 250 173 342 80 350 72 c 0
 370 52 380 41 380 30 c 3
 380 13 367 0 350 0 c 3
 339 0 328 10 308 30 c 0
 298 40 168 170 118 220 c 1
 100 220 l 1
 100 30 l 3
 100 13 87 0 70 0 c 3
 53 0 40 13 40 30 c 3
 40 40 40 500 40 510 c 3
 40 527 53 540 70 540 c 3
 220 540 l 3
220 480 m 3
 100 480 l 1
 100 280 l 1
 180 280 l 3
 247 280 300 333 300 400 c 3
 300 447 267 480 220 480 c 3
EndSplineSet
Validated: 1
EndChar

StartChar: S
Encoding: 83 83 52
Width: 400
VWidth: 0
Flags: W
HStem: 0 60<147.504 275.375> 260 60<134.463 245.832> 480 60<165.413 269.888>
VStem: 60 60<333.458 434.764> 300 60<84.7334 207.807>
LayerCount: 2
Fore
SplineSet
180 260 m 3
 110 260 60 310 60 380 c 3
 60 460 132 540 220 540 c 19
 257 540 290 522 310 502 c 0
 330 482 340 471 340 460 c 3
 340 443 327 430 310 430 c 3
 299 430 288 440 268 460 c 0
 258 470 240 480 220 480 c 3
 173 480 120 427 120 380 c 3
 120 343 147 320 180 320 c 11
 279 320 360 239 360 140 c 3
 360 60 300 0 220 0 c 3
 170 0 120 18 70 68 c 0
 50 88 40 99 40 110 c 3
 40 127 53 140 70 140 c 3
 81 140 92 130 112 110 c 0
 149 73 183 60 220 60 c 11
 264 60 300 93 300 140 c 3
 300 207 247 260 180 260 c 3
EndSplineSet
Validated: 1
EndChar

StartChar: T
Encoding: 84 84 53
Width: 420
VWidth: 0
Flags: W
HStem: 0 21G<201.5 218.5> 480 60<41.1064 180 240 378.894>
VStem: 180 60<1.1064 480>
LayerCount: 2
Fore
SplineSet
210 0 m 3
 193 0 180 13 180 30 c 3
 180 480 l 1
 70 480 l 3
 53 480 40 493 40 510 c 3
 40 527 53 540 70 540 c 3
 350 540 l 3
 367 540 380 527 380 510 c 3
 380 493 367 480 350 480 c 3
 240 480 l 1
 240 30 l 3
 240 13 227 0 210 0 c 3
EndSplineSet
Validated: 1
EndChar

StartChar: U
Encoding: 85 85 54
Width: 480
VWidth: 0
Flags: W
HStem: 0 60<150.266 275.773> 520 20G<61.5 78.5 401.5 418.5>
VStem: 40 60<121.433 538.894> 380 60<201.15 538.894>
LayerCount: 2
Fore
SplineSet
200 0 m 3
 100 0 40 110 40 210 c 3
 40 220 40 500 40 510 c 3
 40 527 53 540 70 540 c 3
 87 540 100 527 100 510 c 3
 100 500 100 220 100 210 c 3
 100 146 136 60 200 60 c 3
 324 60 380 206 380 330 c 3
 380 340 380 500 380 510 c 3
 380 527 393 540 410 540 c 3
 427 540 440 527 440 510 c 3
 440 500 440 340 440 330 c 3
 440 170 360 0 200 0 c 3
EndSplineSet
Validated: 1
EndChar

StartChar: V
Encoding: 86 86 55
Width: 520
VWidth: 0
Flags: W
HStem: 0 21G<61.5 78.5>
VStem: 40 60<102 478.894>
DStem2: 100 102 112 30 0.707107 0.707107<0 542.688>
LayerCount: 2
Fore
SplineSet
40 30 m 3
 40 40 40 440 40 450 c 3
 40 467 53 480 70 480 c 3
 87 480 100 467 100 450 c 0
 100 102 l 1
 198 200 440 442 448 450 c 0
 468 470 479 480 490 480 c 3
 507 480 520 467 520 450 c 3
 520 439 510 428 490 408 c 0
 440 358 122 40 112 30 c 0
 92 10 87 0 70 0 c 3
 53 0 40 13 40 30 c 3
EndSplineSet
Validated: 1
EndChar

StartChar: W
Encoding: 87 87 56
Width: 720
VWidth: 0
Flags: W
HStem: 0 21G<61.5 78.5 261.5 278.5>
VStem: 40 60<102 478.894> 240 60<102 158 302 478.894>
DStem2: 100 102 112 30 0.707107 0.707107<0 138.593 282.843 542.688> 300 102 312 30 0.707107 0.707107<0 542.688>
LayerCount: 2
Fore
SplineSet
70 0 m 3
 53 0 40 13 40 30 c 3
 40 40 40 440 40 450 c 3
 40 467 53 480 70 480 c 3
 87 480 100 467 100 450 c 0
 100 102 l 1
 240 242 l 1
 240 450 l 3
 240 467 253 480 270 480 c 3
 287 480 300 467 300 450 c 0
 300 302 l 1
 448 450 l 0
 468 470 479 480 490 480 c 3
 507 480 520 467 520 450 c 3
 520 439 510 428 490 408 c 0
 300 218 l 1
 300 102 l 1
 398 200 640 442 648 450 c 0
 668 470 679 480 690 480 c 3
 707 480 720 467 720 450 c 3
 720 439 710 428 690 408 c 0
 640 358 322 40 312 30 c 0
 292 10 287 0 270 0 c 3
 253 0 240 13 240 30 c 3
 240 158 l 1
 112 30 l 0
 92 10 87 0 70 0 c 3
EndSplineSet
Validated: 1
EndChar

StartChar: X
Encoding: 88 88 57
Width: 560
VWidth: 10
Flags: W
HStem: 0 21G<61.5 75.5 484.5 498.5>
DStem2: 112 450 70 408 0.707107 -0.707107<-50.5419 237.588 296.985 585.115> 70 72 112 30 0.707107 0.707107<-50.5419 237.588 296.985 585.115>
LayerCount: 2
Fore
SplineSet
70 0 m 3
 53 0 40 13 40 30 c 3
 40 41 50 52 70 72 c 0
 75 77 154 155 238 240 c 1
 70 408 l 0
 50 428 40 439 40 450 c 3
 40 467 53 480 70 480 c 3
 81 480 92 470 112 450 c 0
 117 446 195 367 280 282 c 1
 365 367 443 446 448 450 c 0
 468 470 479 480 490 480 c 3
 507 480 520 467 520 450 c 3
 520 439 510 428 490 408 c 0
 322 240 l 1
 406 155 485 77 490 72 c 0
 510 52 520 41 520 30 c 3
 520 13 507 0 490 0 c 3
 479 0 468 10 448 30 c 0
 280 198 l 1
 112 30 l 0
 92 10 81 0 70 0 c 3
EndSplineSet
Validated: 1
EndChar

StartChar: Y
Encoding: 89 89 58
Width: 560
VWidth: 10
Flags: W
HStem: 0 21G<61.5 75.5>
DStem2: 112 450 70 408 0.707107 -0.707107<-50.5419 237.588> 70 72 112 30 0.707107 0.707107<-50.5419 237.588 296.985 585.115>
LayerCount: 2
Fore
SplineSet
70 0 m 3
 53 0 40 13 40 30 c 3
 40 41 50 52 70 72 c 0
 75 77 154 155 238 240 c 1
 70 408 l 0
 50 428 40 439 40 450 c 3
 40 467 53 480 70 480 c 3
 81 480 92 470 112 450 c 0
 117 446 195 367 280 282 c 1
 365 367 443 446 448 450 c 0
 468 470 479 480 490 480 c 3
 507 480 520 467 520 450 c 3
 520 439 510 428 490 408 c 0
 112 30 l 0
 92 10 81 0 70 0 c 3
EndSplineSet
Validated: 1
EndChar

StartChar: k
Encoding: 107 107 60
Width: 420
VWidth: 0
Flags: W
HStem: 0 60<231.769 398.894> 250 60<231.021 298.894>
VStem: 40 60<1.1064 98 182 614.894>
DStem2: 100 182 180 177 0.707107 0.707107<53.033 201.847>
LayerCount: 2
Fore
SplineSet
310 0 m 3
 226 0 149 49 127 125 c 1
 100 98 l 17
 100 30 l 3
 100 12 87 0 70 0 c 3
 53 0 40 13 40 30 c 3
 40 586 l 3
 40 603 53 616 70 616 c 3
 87 616 100 603 100 586 c 3
 100 182 l 1
 127 209 192 274 198 280 c 0
 214 296 237 310 270 310 c 3
 287 310 300 297 300 280 c 3
 300 263 287 250 270 250 c 3
 259 250 248 246 240 238 c 0
 240 238 203 201 180 177 c 17
 180 175 180 172 180 170 c 3
 180 103 243 60 310 60 c 3
 370 60 l 3
 387 60 400 47 400 30 c 3
 400 13 387 0 370 0 c 3
 310 0 l 3
EndSplineSet
Validated: 1
AlternateSubs2: "Substitutions 1x1-1" k.1x1
Substitution2: "Substitutions 1r1-1" k.1r1
EndChar

StartChar: l
Encoding: 108 108 61
Width: 320
VWidth: 0
Flags: W
HStem: 0 60<118.951 298.894> 556 60<127.592 235.809>
VStem: 40 60<78.5592 527.406> 240 60<469.92 549.551>
LayerCount: 2
Fore
SplineSet
170 0 m 3
 90 0 40 60 40 140 c 3
 40 466 l 3
 40 556 100 616 190 616 c 3
 250 616 300 580 300 520 c 3
 300 480 286 454 270 438 c 0
 252 420 241 410 230 410 c 3
 213 410 200 423 200 440 c 3
 200 451 210 462 228 480 c 0
 236 488 240 504 240 520 c 3
 240 545 215 556 190 556 c 3
 133 556 100 523 100 466 c 3
 100 140 l 3
 100 93 123 60 170 60 c 3
 270 60 l 3
 287 60 300 47 300 30 c 3
 300 13 287 0 270 0 c 0
 170 0 l 3
EndSplineSet
Validated: 1
AlternateSubs2: "Substitutions 1x1-1" l.1x1
Substitution2: "Substitutions 1r1-1" l.1r1
EndChar

StartChar: m
Encoding: 109 109 62
Width: 890
VWidth: 30
Flags: W
HStem: 0 60<811.642 868.894> 230 60<100.236 168.813 390.573 458.736 680.573 748.813>
VStem: 170 60<132 228.98> 460 60<132 228.358> 750 60<61.6421 228.358>
DStem2: 230 132 242 60 0.707107 0.707107<0 210.351> 520 132 532 60 0.707107 0.707107<0 210.351>
CounterMasks: 1 38
LayerCount: 2
Fore
SplineSet
140 290 m 3
 194 290 230 250 230 200 c 27
 230 132 l 1
 274 176 351 253 358 260 c 0
 374 276 397 290 430 290 c 0
 484 290 520 254 520 200 c 8
 520 132 l 1
 564 176 641 253 648 260 c 0
 664 276 687 290 720 290 c 3
 774 290 810 254 810 200 c 3
 810 90 l 3
 810 70 820 60 840 60 c 3
 857 60 870 47 870 30 c 3
 870 13 857 0 840 0 c 3
 786 0 750 36 750 90 c 3
 750 200 l 3
 750 220 740 230 720 230 c 3
 709 230 698 226 690 218 c 0
 532 60 l 0
 512 40 507 30 490 30 c 3
 473 30 460 43 460 60 c 27
 460 115 460 145 460 200 c 27
 460 217 450 230 430 230 c 0
 419 230 408 226 400 218 c 0
 242 60 l 0
 222 40 217 30 200 30 c 3
 183 30 170 43 170 60 c 3
 170 200 l 3
 170 220 160 230 140 230 c 3
 129 230 118 226 110 218 c 0
 90 198 81 190 70 190 c 3
 53 190 40 203 40 220 c 3
 40 231 48 240 68 260 c 0
 84 276 107 290 140 290 c 3
EndSplineSet
Validated: 1
AlternateSubs2: "Substitutions 1x1-1" m.1x1
Substitution2: "Substitutions 1r1-1" m.1r1
EndChar

StartChar: n
Encoding: 110 110 63
Width: 600
VWidth: 30
Flags: W
HStem: 0 60<521.642 578.894> 230 60<100.236 168.813 390.573 458.813>
VStem: 170 60<132 228.358> 460 60<61.6421 228.358>
DStem2: 230 132 242 60 0.707107 0.707107<0 210.351>
LayerCount: 2
Fore
SplineSet
140 230 m 3
 129 230 118 226 110 218 c 0
 90 198 81 190 70 190 c 3
 53 190 40 203 40 220 c 3
 40 231 48 240 68 260 c 0
 84 276 107 290 140 290 c 3
 194 290 230 254 230 200 c 0
 230 132 l 1
 274 176 351 253 358 260 c 0
 374 276 397 290 430 290 c 3
 484 290 520 254 520 200 c 3
 520 90 l 3
 520 70 530 60 550 60 c 3
 567 60 580 47 580 30 c 3
 580 13 567 0 550 0 c 3
 496 0 460 36 460 90 c 3
 460 200 l 3
 460 220 450 230 430 230 c 3
 419 230 408 226 400 218 c 0
 350 168 252 70 242 60 c 0
 222 40 217 30 200 30 c 3
 183 30 170 43 170 60 c 3
 170 80 170 145 170 200 c 19
 170 220 160 230 140 230 c 3
EndSplineSet
Validated: 1
AlternateSubs2: "Substitutions 1x1-1" n.1x1
Substitution2: "Substitutions 1r1-1" n.1r1
EndChar

StartChar: o
Encoding: 111 111 64
Width: 400
VWidth: 0
Flags: W
HStem: 0 60<124.046 247.807> 260 60<152.193 275.954>
VStem: 40 60<84.0457 207.807> 300 60<112.193 235.954>
LayerCount: 2
Fore
SplineSet
180 0 m 3
 100 0 40 60 40 140 c 3
 40 239 121 320 220 320 c 3
 300 320 360 260 360 180 c 3
 360 81 279 0 180 0 c 3
180 60 m 3
 247 60 300 113 300 180 c 3
 300 227 267 260 220 260 c 3
 153 260 100 207 100 140 c 3
 100 93 133 60 180 60 c 3
EndSplineSet
Validated: 1
AlternateSubs2: "Substitutions 1x0-1" o.1x0
Substitution2: "Substitutions 0o1-1" o.0o1
Substitution2: "Substitutions 1o0-1" o.1o0
EndChar

StartChar: p
Encoding: 112 112 65
Width: 400
VWidth: 0
Flags: W
HStem: -384 21G<61.5 78.5> 0 60<123.585 247.807> 260 60<150.596 275.954>
VStem: 40 60<-382.894 24 83.7164 209.782 274 318.894> 300 60<112.193 235.954>
LayerCount: 2
Fore
SplineSet
180 0 m 3
 150 0 122 9 100 24 c 1
 100 -354 l 1
 100 -371 87 -384 70 -384 c 3
 53 -384 40 -371 40 -354 c 3
 40 290 l 3
 40 307 53 320 70 320 c 3
 87 320 100 307 100 290 c 3
 100 274 l 1
 132 303 174 320 220 320 c 3
 300 320 360 260 360 180 c 3
 360 81 279 0 180 0 c 3
180 60 m 3
 247 60 300 113 300 180 c 3
 300 227 267 260 220 260 c 3
 153 260 100 207 100 140 c 3
 100 93 133 60 180 60 c 3
EndSplineSet
Validated: 1
AlternateSubs2: "Substitutions 0x1-1" p.0x1
AlternateSubs2: "Substitutions 1x0-1" p.1x0
Substitution2: "Substitutions 1o0-1" p.1o0
EndChar

StartChar: q
Encoding: 113 113 66
Width: 420
VWidth: 0
Flags: W
HStem: -384 21G<321.5 338.5> 0 60<124.046 249.404> 260 60<152.193 276.296>
VStem: 40 60<84.0457 207.807> 300 60<-382.894 46 110.218 236.284>
LayerCount: 2
Fore
SplineSet
180 0 m 3
 100 0 40 60 40 140 c 3
 40 239 121 320 220 320 c 3
 251 320 279 311 301 296 c 1
 304 310 315 320 330 320 c 3
 347 320 360 307 360 290 c 3
 360 -354 l 3
 360 -371 347 -384 330 -384 c 3
 313 -384 300 -371 300 -354 c 3
 300 46 l 1
 268 17 226 0 180 0 c 3
180 60 m 3
 247 60 300 113 300 180 c 3
 300 227 267 260 220 260 c 3
 153 260 100 207 100 140 c 3
 100 93 133 60 180 60 c 3
EndSplineSet
Validated: 1
AlternateSubs2: "Substitutions 0x1-1" q.0x1
AlternateSubs2: "Substitutions 1x0-1" q.1x0
Substitution2: "Substitutions 1o0-1" q.1o0
EndChar

StartChar: r
Encoding: 114 114 67
Width: 400
VWidth: 0
Flags: W
HStem: 0 60<321.642 378.894> 260 60<100.596 256.295>
VStem: 260 60<61.6421 256.295>
LayerCount: 2
Fore
SplineSet
140 260 m 3
 129 260 118 256 110 248 c 0
 90 228 81 220 70 220 c 3
 53 220 40 233 40 250 c 3
 40 261 48 270 68 290 c 0
 84 306 110 320 140 320 c 3
 220 320 l 3
 280 320 320 280 320 220 c 3
 320 90 l 3
 320 70 330 60 350 60 c 3
 367 60 380 47 380 30 c 3
 380 13 367 0 350 0 c 3
 296 0 260 36 260 90 c 3
 260 220 l 3
 260 247 247 260 220 260 c 3
 140 260 l 3
EndSplineSet
Validated: 1
AlternateSubs2: "Substitutions 1x1-1" r.1x1
Substitution2: "Substitutions 1r1-1" r.1r1
EndChar

StartChar: s
Encoding: 115 115 68
Width: 520
VWidth: 0
Flags: W
HStem: 0 60<270.665 395.954> 260 60<260.573 368.013>
VStem: 420 60<84.0457 208.013>
DStem2: 70 132 112 90 0.707107 0.707107<-50.5419 252.778>
LayerCount: 2
Fore
SplineSet
340 0 m 3
 300 0 258 10 228 40 c 0
 208 60 200 69 200 80 c 3
 200 97 213 110 230 110 c 3
 241 110 250 102 270 82 c 0
 287 65 316 60 340 60 c 3
 387 60 420 93 420 140 c 3
 420 207 367 260 300 260 c 3
 289 260 278 256 270 248 c 0
 220 198 122 100 112 90 c 0
 92 70 81 60 70 60 c 3
 53 60 40 73 40 90 c 3
 40 101 50 112 70 132 c 0
 80 142 218 281 228 290 c 0
 244 306 267 320 300 320 c 3
 400 320 480 240 480 140 c 3
 480 60 420 0 340 0 c 3
EndSplineSet
Validated: 1
AlternateSubs2: "Substitutions 0x1-1" s.0x1
AlternateSubs2: "Substitutions 1x0-1" s.1x0
Substitution2: "Substitutions 1o0-1" s.1o0
EndChar

StartChar: t
Encoding: 116 116 69
Width: 360
VWidth: 0
Flags: W
HStem: 0 60<158.951 338.894> 260 60<31.1064 80 140 248.894>
VStem: 80 60<78.5592 260 320 614.894>
LayerCount: 2
Fore
SplineSet
210 0 m 3
 130 0 80 60 80 140 c 3
 80 260 l 1
 60 260 l 3
 43 260 30 273 30 290 c 3
 30 307 43 320 60 320 c 3
 80 320 l 1
 80 586 l 3
 80 603 93 616 110 616 c 3
 127 616 140 603 140 586 c 3
 140 320 l 1
 220 320 l 3
 237 320 250 307 250 290 c 3
 250 273 237 260 220 260 c 0
 140 260 l 1
 140 140 l 3
 140 93 163 60 210 60 c 3
 310 60 l 3
 327 60 340 47 340 30 c 3
 340 13 327 0 310 0 c 3
 210 0 l 3
EndSplineSet
Validated: 1
AlternateSubs2: "Substitutions 1x1-1" t.1x1
Substitution2: "Substitutions 1r1-1" t.1r1
EndChar

StartChar: u
Encoding: 117 117 70
Width: 400
VWidth: 0
Flags: W
HStem: 0 60<124.046 236.081 321.235 378.894> 300 20G<61.5 78.5 281.5 298.5>
VStem: 40 60<84.375 318.894> 260 60<83.7164 318.894>
LayerCount: 2
Fore
SplineSet
180 0 m 3
 100 0 40 60 40 140 c 0
 40 290 l 3
 40 307 53 320 70 320 c 3
 87 320 100 307 100 290 c 0
 100 140 l 3
 100 93 133 60 180 60 c 3
 227 60 260 93 260 140 c 3
 260 290 l 3
 260 307 273 320 290 320 c 3
 307 320 320 307 320 290 c 0
 320 290 320 168 320 90 c 19
 320 70 330 60 350 60 c 3
 367 60 380 47 380 30 c 3
 380 13 367 0 350 0 c 3
 317 0 291 13 276 36 c 1
 251 14 218 0 180 0 c 3
EndSplineSet
Validated: 1
AlternateSubs2: "Substitutions 1x1-1" u.1x1
Substitution2: "Substitutions 1r1-1" u.1r1
EndChar

StartChar: v
Encoding: 118 118 71
Width: 470
VWidth: 0
Flags: W
HStem: 0 60<103.238 179.651> 270 20G<394.5 408.5>
VStem: 40 60<63.7054 258.894>
DStem2: 180 82 222 40 0.707107 0.707107<-43.3031 302.272>
LayerCount: 2
Fore
SplineSet
140 0 m 3
 80 0 40 40 40 100 c 3
 40 230 l 3
 40 247 53 260 70 260 c 3
 87 260 100 247 100 230 c 3
 100 210 100 120 100 100 c 3
 100 73 113 60 140 60 c 3
 156 60 172 74 180 82 c 0
 200 102 340 242 360 262 c 0
 378 280 389 290 400 290 c 3
 417 290 430 277 430 260 c 3
 430 249 420 238 402 220 c 0
 382 200 242 60 222 40 c 0
 206 24 180 0 140 0 c 3
EndSplineSet
Validated: 1
AlternateSubs2: "Substitutions 1x0-1" v.1x0
Substitution2: "Substitutions 0o1-1" v.0o1
Substitution2: "Substitutions 1o0-1" v.1o0
EndChar

StartChar: w
Encoding: 119 119 72
Width: 680
VWidth: 0
Flags: W
HStem: 0 60<103.238 179.651 313.048 389.651> 270 20G<604.5 618.5>
VStem: 40 60<63.7054 258.894>
DStem2: 180 82 222 40 0.707107 0.707107<-43.3031 43.8406> 390 82 432 40 0.707107 0.707107<-43.3031 302.272>
LayerCount: 2
Fore
SplineSet
140 0 m 3
 80 0 40 40 40 100 c 3
 40 230 l 3
 40 247 53 260 70 260 c 3
 87 260 100 247 100 230 c 3
 100 230 100 120 100 100 c 3
 100 73 113 60 140 60 c 3
 156 60 172 74 180 82 c 0
 200 102 220 122 240 142 c 0
 258 160 263 170 280 170 c 3
 297 170 310 157 310 140 c 3
 310 120 310 120 310 100 c 3
 310 73 323 60 350 60 c 3
 366 60 382 74 390 82 c 0
 410 102 550 242 570 262 c 0
 588 280 599 290 610 290 c 3
 627 290 640 277 640 260 c 3
 640 249 630 238 612 220 c 0
 592 200 452 60 432 40 c 0
 416 24 390 0 350 0 c 3
 300 0 264 27 253 71 c 1
 222 40 l 0
 206 24 180 0 140 0 c 3
EndSplineSet
Validated: 1
AlternateSubs2: "Substitutions 1x0-1" w.1x0
Substitution2: "Substitutions 0o1-1" w.0o1
Substitution2: "Substitutions 1o0-1" w.1o0
EndChar

StartChar: x
Encoding: 120 120 73
Width: 400
VWidth: 0
Flags: W
HStem: 0 21G<61.5 75.5 324.5 338.5> 300 20G<61.5 75.5 324.5 338.5>
DStem2: 112 290 70 248 0.707107 -0.707107<-50.5419 124.451 183.848 358.84> 70 72 112 30 0.707107 0.707107<-50.5419 124.451 183.848 358.84>
LayerCount: 2
Fore
SplineSet
330 248 m 0
 326 244 282 200 242 160 c 1
 282 120 326 76 330 72 c 0
 350 52 360 41 360 30 c 3
 360 13 347 0 330 0 c 3
 319 0 308 10 288 30 c 0
 200 118 l 1
 156 74 116 34 112 30 c 0
 92 10 81 0 70 0 c 3
 53 0 40 13 40 30 c 3
 40 41 50 52 70 72 c 0
 158 160 l 1
 70 248 l 0
 50 268 40 279 40 290 c 3
 40 307 53 320 70 320 c 3
 81 320 92 310 112 290 c 0
 116 286 156 246 200 202 c 1
 288 290 l 0
 308 310 319 320 330 320 c 3
 347 320 360 307 360 290 c 3
 360 279 350 268 330 248 c 0
EndSplineSet
Validated: 1
AlternateSubs2: "Substitutions 1x0-1" x.1x0
Substitution2: "Substitutions 1o0-1" x.1o0
EndChar

StartChar: y
Encoding: 121 121 74
Width: 380
VWidth: 0
Flags: W
HStem: -384 60<119.578 224.477> 0 60<124.046 236.415> 300 20G<61.5 78.5 281.5 298.5>
VStem: 40 60<-305.652 -204.026 84.375 318.894> 260 60<-286.362 24 83.7164 318.894>
DStem2: 80 -162 122 -204 0.810792 0.585335<-31.363 156.49>
LayerCount: 2
Fore
SplineSet
172 -384 m 3
 92 -384 40 -324 40 -244 c 3
 40 -211 58 -184 80 -162 c 0
 110 -132 148 -124 168 -104 c 0
 188 -84 199 -74 210 -74 c 3
 227 -74 240 -87 240 -104 c 3
 240 -115 230 -126 210 -146 c 0
 180 -176 142 -184 122 -204 c 0
 112 -214 100 -229 100 -244 c 3
 100 -291 123 -324 170 -324 c 3
 237 -324 260 -261 260 -194 c 3
 260 24 l 1
 238 9 210 0 180 0 c 3
 100 0 40 60 40 140 c 3
 40 290 l 3
 40 307 53 320 70 320 c 3
 87 320 100 307 100 290 c 27
 100 140 l 3
 100 93 133 60 180 60 c 3
 227 60 260 93 260 140 c 3
 260 290 l 3
 260 307 273 320 290 320 c 3
 307 320 320 307 320 290 c 3
 320 -194 l 3
 320 -294 272 -384 172 -384 c 3
EndSplineSet
Validated: 1
AlternateSubs2: "Substitutions 0x1-1" y.0x1
AlternateSubs2: "Substitutions 1x0-1" y.1x0
Substitution2: "Substitutions 1o0-1" y.1o0
EndChar

StartChar: z
Encoding: 122 122 75
Width: 400
VWidth: 0
Flags: W
HStem: -384 60<139.578 244.477> 260 60<146.109 269.547>
VStem: 60 60<-305.652 -204.026> 80 60<179.877 253.891> 280 60<-286.362 -14.2603 160.349 249.822>
DStem2: 100 -162 142 -204 0.810792 0.585335<-31.363 156.49> 168 70 240 58 0.707107 0.707107<42.4264 170.582>
LayerCount: 2
Fore
SplineSet
192 -384 m 3xd8
 112 -384 60 -324 60 -244 c 3
 60 -211 78 -184 100 -162 c 0
 130 -132 168 -124 188 -104 c 0
 208 -84 219 -74 230 -74 c 3
 247 -74 260 -87 260 -104 c 3
 260 -115 250 -126 230 -146 c 0
 200 -176 162 -184 142 -204 c 0
 132 -214 120 -229 120 -244 c 3xe8
 120 -291 143 -324 190 -324 c 3
 257 -324 280 -261 280 -194 c 3
 280 -194 280 -118 280 -70 c 19
 280 -23 257 0 210 0 c 3
 210 0 190 0 170 0 c 3
 153 0 140 13 140 30 c 3
 140 48 150 52 168 70 c 0
 188 90 238 140 258 160 c 0
 266 168 280 184 280 200 c 3
 280 240 260 260 220 260 c 3
 180 260 l 3
 160 260 140 240 140 220 c 3
 140 187 126 164 110 148 c 0
 92 130 81 120 70 120 c 3
 53 120 40 133 40 150 c 3
 40 161 50 172 68 190 c 0
 76 198 80 209 80 220 c 3
 80 274 126 320 180 320 c 3
 180 320 200 320 220 320 c 3
 293 320 340 273 340 200 c 3
 340 160 316 134 300 118 c 0
 240 58 l 1
 303 47 340 0 340 -70 c 3
 340 -70 340 -174 340 -194 c 3
 340 -294 292 -384 192 -384 c 3xd8
EndSplineSet
Validated: 1
AlternateSubs2: "Substitutions 0x1-1" z.0x1
AlternateSubs2: "Substitutions 1x0-1" z.1x0
Substitution2: "Substitutions 1o0-1" z.1o0
EndChar

StartChar: dotlessj.0x1
Encoding: 57641 57641 76
Width: 400
VWidth: 0
Flags: W
HStem: -384 60<119.578 224.477> 0 60<320.847 378.894> 300 20G<281.5 298.5>
VStem: 40 60<-305.652 -204.026> 260 120<1.1064 55.7572> 260 60<-286.362 -0.732422 56 318.894>
DStem2: 80 -162 122 -204 0.810792 0.585335<-31.363 156.49>
LayerCount: 2
Fore
SplineSet
172 -384 m 3xf4
 92 -384 40 -324 40 -244 c 3
 40 -211 58 -184 80 -162 c 0
 110 -132 148 -124 168 -104 c 0
 188 -84 199 -74 210 -74 c 3
 227 -74 240 -87 240 -104 c 3
 240 -115 230 -126 210 -146 c 0
 180 -176 142 -184 122 -204 c 0
 112 -214 100 -229 100 -244 c 3
 100 -291 123 -324 170 -324 c 3
 237 -324 260 -261 260 -194 c 3
 260 290 l 3
 260 307 273 320 290 320 c 3
 307 320 320 307 320 290 c 3
 320 56 l 1xf4
 329 59 339 60 350 60 c 3
 367 60 380 47 380 30 c 3xf8
 380 13 367 0 350 0 c 3
 330 0 320 -10 320 -30 c 3
 320 -194 l 7
 320 -294 272 -384 172 -384 c 3xf4
EndSplineSet
Validated: 1
AlternateSubs2: "Substitutions 1x1-1" dotlessj.1x1
Substitution2: "Substitutions 1r1-1" dotlessj.1r1
EndChar

StartChar: k.1x1
Encoding: 57706 57706 79
Width: 460
VWidth: 0
Flags: W
HStem: 0 60<-78.8936 31.6921 271.769 438.894> 250 60<271.021 338.894>
VStem: 80 60<1.1064 42 182 614.894>
DStem2: 140 182 220 177 0.707107 0.707107<53.033 201.847>
LayerCount: 2
Fore
SplineSet
350 0 m 3
 266 0 189 49 167 125 c 1
 140 98 l 17
 140 30 l 3
 140 12 127 0 110 0 c 3
 93 0 80 13 80 30 c 3
 80 42 l 1
 40 12 -3 0 -50 0 c 3
 -67 0 -80 13 -80 30 c 3
 -80 47 -67 60 -50 60 c 3
 7 60 40 82 70 112 c 0
 74 116 77 119 80 122 c 1
 80 586 l 3
 80 603 93 616 110 616 c 3
 127 616 140 603 140 586 c 3
 140 182 l 1
 167 209 232 274 238 280 c 0
 254 296 277 310 310 310 c 3
 327 310 340 297 340 280 c 3
 340 263 327 250 310 250 c 3
 299 250 288 246 280 238 c 0
 280 238 243 201 220 177 c 17
 220 175 220 172 220 170 c 3
 220 103 283 60 350 60 c 3
 410 60 l 3
 427 60 440 47 440 30 c 3
 440 13 427 0 410 0 c 0
 350 0 l 3
EndSplineSet
Validated: 1
EndChar

StartChar: l.1x1
Encoding: 57707 57707 80
Width: 360
VWidth: 0
Flags: W
HStem: 0 60<-78.8936 31.2038 158.482 338.894> 556 60<167.592 275.809>
VStem: 80 60<122 527.406> 280 60<469.92 549.551>
LayerCount: 2
Fore
SplineSet
210 0 m 3
 161 0 123 23 101 59 c 1
 54 17 6 0 -50 0 c 3
 -67 0 -80 13 -80 30 c 3
 -80 47 -67 60 -50 60 c 3
 7 60 40 82 70 112 c 0
 74 116 77 119 80 122 c 9
 80 466 l 3
 80 556 140 616 230 616 c 3
 290 616 340 580 340 520 c 3
 340 480 326 454 310 438 c 0
 292 420 281 410 270 410 c 3
 253 410 240 423 240 440 c 3
 240 451 250 462 268 480 c 0
 276 488 280 504 280 520 c 3
 280 545 255 556 230 556 c 3
 173 556 140 523 140 466 c 3
 140 140 l 3
 140 93 163 60 210 60 c 3
 310 60 l 3
 327 60 340 47 340 30 c 3
 340 13 327 0 310 0 c 0
 210 0 l 3
EndSplineSet
Validated: 1
EndChar

StartChar: m.1x1
Encoding: 57708 57708 81
Width: 960
VWidth: 0
Flags: W
HStem: 0 60<-78.8936 -10.0491 881.642 938.894> 230 60<170.589 238.813 460.573 528.736 750.573 818.813>
VStem: 240 60<132 228.358> 530 60<132 228.358> 820 60<61.6421 228.358>
DStem2: 48 170 90 128 0.707107 0.707107<-188.405 156.611> 300 132 312 60 0.707107 0.707107<0 210.351> 590 132 602 60 0.707107 0.707107<0 210.351>
CounterMasks: 1 38
LayerCount: 2
Fore
SplineSet
210 290 m 3
 264 290 300 254 300 200 c 0
 300 132 l 1
 344 176 421 253 428 260 c 0
 444 276 467 290 500 290 c 0
 554 290 590 254 590 200 c 8
 590 132 l 1
 634 176 711 253 718 260 c 0
 734 276 757 290 790 290 c 3
 844 290 880 254 880 200 c 3
 880 200 880 133 880 90 c 3
 880 70 890 60 910 60 c 3
 927 60 940 47 940 30 c 3
 940 13 927 0 910 0 c 3
 856 0 820 36 820 90 c 3
 820 133 820 157 820 200 c 3
 820 220 810 230 790 230 c 3
 779 230 768 226 760 218 c 0
 602 60 l 0
 582 40 577 30 560 30 c 3
 543 30 530 43 530 60 c 27
 530 115 530 145 530 200 c 27
 530 217 520 230 500 230 c 0
 489 230 478 226 470 218 c 0
 312 60 l 0
 292 40 287 30 270 30 c 3
 253 30 240 43 240 60 c 19
 240 80 240 145 240 200 c 19
 240 220 230 230 210 230 c 3
 199 230 188 226 180 218 c 0
 130 168 100 138 90 128 c 0
 70 108 62 70 32 40 c 0
 10 18 -17 0 -50 0 c 11
 -67 0 -80 13 -80 30 c 3
 -80 47 -67 60 -50 60 c 3
 -35 60 -20 72 -10 82 c 0
 10 102 18 140 48 170 c 0
 58 180 128 251 138 260 c 0
 154 276 177 290 210 290 c 3
EndSplineSet
Validated: 1
EndChar

StartChar: n.1x1
Encoding: 57709 57709 82
Width: 670
VWidth: 30
Flags: W
HStem: 0 60<-78.8936 -10.0491 591.642 648.894> 230 60<170.589 238.813 460.573 528.813>
VStem: 240 60<132 228.358> 530 60<61.6421 228.358>
DStem2: 48 170 90 128 0.707107 0.707107<-188.405 156.611> 300 132 312 60 0.707107 0.707107<0 210.351>
LayerCount: 2
Fore
SplineSet
210 290 m 3
 264 290 300 254 300 200 c 0
 300 132 l 1
 344 176 421 253 428 260 c 0
 444 276 467 290 500 290 c 3
 554 290 590 254 590 200 c 3
 590 90 l 3
 590 70 600 60 620 60 c 3
 637 60 650 47 650 30 c 3
 650 13 637 0 620 0 c 3
 566 0 530 36 530 90 c 3
 530 200 l 3
 530 220 520 230 500 230 c 3
 489 230 478 226 470 218 c 0
 420 168 322 70 312 60 c 0
 292 40 287 30 270 30 c 3
 253 30 240 43 240 60 c 3
 240 80 240 145 240 200 c 19
 240 220 230 230 210 230 c 3
 199 230 188 226 180 218 c 0
 130 168 100 138 90 128 c 0
 70 108 62 70 32 40 c 0
 10 18 -17 0 -50 0 c 11
 -67 0 -80 13 -80 30 c 3
 -80 47 -67 60 -50 60 c 3
 -35 60 -20 72 -10 82 c 0
 10 102 18 140 48 170 c 0
 58 180 128 251 138 260 c 0
 154 276 177 290 210 290 c 3
EndSplineSet
Validated: 1
EndChar

StartChar: o.1x0
Encoding: 57678 57678 83
Width: 420
VWidth: 0
Flags: W
HStem: 0 60<-78.8936 -10.0491 144.289 267.807> 260 60<170.664 295.954>
VStem: -80 200<21.5 173.5> 320 60<112.193 235.954>
LayerCount: 2
Fore
SplineSet
200 0 m 3
 137 0 85 38 67 93 c 1
 58 76 49 57 32 40 c 0
 10 18 -17 0 -50 0 c 11
 -67 0 -80 13 -80 30 c 3
 -80 47 -67 60 -50 60 c 3
 -35 60 -20 72 -10 82 c 0
 10 102 18 140 48 170 c 0
 56 178 62 184 67 188 c 1
 88 264 158 320 240 320 c 3
 320 320 380 260 380 180 c 3
 380 81 299 0 200 0 c 3
200 60 m 3
 267 60 320 113 320 180 c 3
 320 227 287 260 240 260 c 3
 173 260 120 207 120 140 c 3
 120 93 153 60 200 60 c 3
EndSplineSet
Validated: 1
Substitution2: "Substitutions 1s1-1" o.1s1
EndChar

StartChar: o.0o1
Encoding: 57742 57742 84
Width: 400
VWidth: 0
Flags: W
HStem: 0 60<124.046 247.807> 260 60<154.168 276.284 336 378.894>
VStem: 40 60<84.0457 207.807> 300 60<112.193 236.415>
LayerCount: 2
Fore
SplineSet
180 60 m 3
 247 60 300 113 300 180 c 3
 300 227 267 260 220 260 c 3
 153 260 100 207 100 140 c 3
 100 93 133 60 180 60 c 3
180 0 m 3
 100 0 40 60 40 140 c 3
 40 239 121 320 220 320 c 3
 350 320 l 3
 367 320 380 307 380 290 c 3
 380 273 367 260 350 260 c 0
 336 260 l 1
 351 238 360 210 360 180 c 3
 360 81 279 0 180 0 c 3
EndSplineSet
Validated: 1
Substitution2: "Substitutions 1o1-1" o.1o1
Substitution2: "Substitutions 1s1-1" o.1s1
EndChar

StartChar: o.1o0
Encoding: 57774 57774 85
Width: 420
VWidth: 0
Flags: W
HStem: 0 60<144.046 267.807> 260 60<-78.8936 106 170.218 295.625>
VStem: 60 60<84.0457 209.404> 320 60<112.193 235.954>
LayerCount: 2
Fore
SplineSet
200 0 m 3
 120 0 60 60 60 140 c 3
 60 186 77 228 106 260 c 1
 -50 260 l 3
 -67 260 -80 273 -80 290 c 3
 -80 307 -67 320 -50 320 c 3
 240 320 l 3
 320 320 380 260 380 180 c 3
 380 81 299 0 200 0 c 3
200 60 m 3
 267 60 320 113 320 180 c 3
 320 227 287 260 240 260 c 3
 173 260 120 207 120 140 c 3
 120 93 153 60 200 60 c 3
EndSplineSet
Validated: 1
Substitution2: "Substitutions 1o1-1" o.1o1
EndChar

StartChar: o.1o1
Encoding: 57806 57806 86
Width: 420
VWidth: 0
Flags: W
HStem: 0 60<144.046 267.807> 260 60<-78.8936 106 170.218 296.284 356 398.894>
VStem: 60 60<84.0457 209.404> 320 60<112.193 236.415>
LayerCount: 2
Fore
SplineSet
200 0 m 3
 120 0 60 60 60 140 c 3
 60 186 77 228 106 260 c 1
 -50 260 l 3
 -67 260 -80 273 -80 290 c 3
 -80 307 -67 320 -50 320 c 3
 370 320 l 3
 387 320 400 307 400 290 c 3
 400 273 387 260 370 260 c 27
 356 260 l 1
 371 238 380 210 380 180 c 3
 380 81 299 0 200 0 c 3
200 60 m 3
 267 60 320 113 320 180 c 3
 320 227 287 260 240 260 c 3
 173 260 120 207 120 140 c 3
 120 93 153 60 200 60 c 3
EndSplineSet
Validated: 1
EndChar

StartChar: b.1o0
Encoding: 57761 57761 87
Width: 440
VWidth: 0
Flags: W
HStem: 0 60<164.046 287.807> 260 60<-78.8936 31.6921 190.596 315.954>
VStem: 80 60<84.375 209.782 274 302 382 614.894> 340 60<112.193 235.954>
LayerCount: 2
Fore
SplineSet
220 0 m 3
 140 0 80 60 80 140 c 3
 80 302 l 1
 40 272 -3 260 -50 260 c 3
 -67 260 -80 273 -80 290 c 3
 -80 307 -67 320 -50 320 c 3
 7 320 40 342 70 372 c 0
 74 376 77 379 80 382 c 1
 80 586 l 3
 80 603 93 616 110 616 c 3
 127 616 140 603 140 586 c 0
 140 274 l 1
 172 303 214 320 260 320 c 3
 340 320 400 260 400 180 c 3
 400 81 319 0 220 0 c 3
220 60 m 3
 287 60 340 113 340 180 c 3
 340 227 307 260 260 260 c 3
 193 260 140 207 140 140 c 3
 140 93 173 60 220 60 c 3
EndSplineSet
Validated: 1
Substitution2: "Substitutions 1r1-1" b.1r1
EndChar

StartChar: a.1r1
Encoding: 57824 57824 88
Width: 500
VWidth: 0
Flags: W
HStem: 0 60<144.046 269.047 399.206 478.894> 260 60<-78.8936 106 170.218 296.284>
VStem: 60 60<84.0457 209.404> 320 60<111.365 236.284>
LayerCount: 2
Fore
SplineSet
200 0 m 3
 120 0 60 60 60 140 c 3
 60 186 77 228 106 260 c 1
 -50 260 l 3
 -67 260 -80 273 -80 290 c 3
 -80 307 -67 320 -50 320 c 0
 240 320 l 3
 271 320 299 311 321 296 c 1
 324 310 335 320 350 320 c 3
 367 320 380 307 380 290 c 3
 380 140 l 3
 380 93 403 60 450 60 c 3
 467 60 480 47 480 30 c 3
 480 13 467 0 450 0 c 3
 398 0 359 26 338 65 c 1
 305 26 255 0 200 0 c 3
200 60 m 3
 267 60 320 113 320 180 c 3
 320 227 287 260 240 260 c 3
 173 260 120 207 120 140 c 3
 120 93 153 60 200 60 c 3
EndSplineSet
Validated: 1
EndChar

StartChar: b.1r1
Encoding: 57825 57825 89
Width: 440
VWidth: 0
Flags: W
HStem: 0 60<164.375 289.782 354 418.894> 260 60<-78.8936 31.6921 190.596 315.954>
VStem: 80 60<84.375 209.782 274 302 382 614.894> 340 60<110.596 235.954>
LayerCount: 2
Fore
SplineSet
220 0 m 3
 140 0 80 60 80 140 c 3
 80 302 l 1
 40 272 -3 260 -50 260 c 3
 -67 260 -80 273 -80 290 c 3
 -80 307 -67 320 -50 320 c 3
 7 320 40 342 70 372 c 0
 74 376 77 379 80 382 c 1
 80 586 l 3
 80 603 93 616 110 616 c 3
 127 616 140 603 140 586 c 3
 140 274 l 1
 172 303 214 320 260 320 c 3
 340 320 400 260 400 180 c 3
 400 134 383 92 354 60 c 1
 390 60 l 3
 407 60 420 47 420 30 c 3
 420 13 407 0 390 0 c 0
 220 0 l 3
220 60 m 3
 287 60 340 113 340 180 c 3
 340 227 307 260 260 260 c 3
 193 260 140 207 140 140 c 3
 140 93 173 60 220 60 c 3
EndSplineSet
Validated: 1
EndChar

StartChar: c.1o0
Encoding: 57762 57762 90
Width: 400
VWidth: 0
Flags: W
HStem: 0 60<144.046 268.505> 260 60<-78.8936 106 170.218 290.032>
VStem: 60 60<84.0457 209.404>
LayerCount: 2
Fore
SplineSet
200 0 m 3
 120 0 60 60 60 140 c 3
 60 186 77 228 106 260 c 1
 -50 260 l 3
 -67 260 -80 273 -80 290 c 3
 -80 307 -67 320 -50 320 c 0
 240 320 l 3
 270 320 302 310 322 290 c 0
 340 272 350 261 350 250 c 3
 350 233 337 220 320 220 c 3
 309 220 298 230 280 248 c 0
 272 256 254 260 240 260 c 3
 173 260 120 207 120 140 c 3
 120 93 153 60 200 60 c 3
 237 60 263 75 280 92 c 0
 298 110 309 120 320 120 c 3
 337 120 350 107 350 90 c 3
 350 79 340 68 322 50 c 0
 292 20 250 0 200 0 c 3
EndSplineSet
Validated: 1
Substitution2: "Substitutions 1r1-1" c.1r1
EndChar

StartChar: c.1r1
Encoding: 57826 57826 91
Width: 400
VWidth: 0
Flags: W
HStem: 0 60<144.375 378.894> 260 60<-78.8936 106 170.218 290.032>
VStem: 60 60<84.0457 209.404>
LayerCount: 2
Fore
SplineSet
200 0 m 3
 120 0 60 60 60 140 c 3
 60 186 77 228 106 260 c 1
 -50 260 l 3
 -67 260 -80 273 -80 290 c 3
 -80 307 -67 320 -50 320 c 3
 240 320 l 3
 270 320 302 310 322 290 c 0
 340 272 350 261 350 250 c 3
 350 233 337 220 320 220 c 3
 309 220 298 230 280 248 c 0
 272 256 254 260 240 260 c 3
 173 260 120 207 120 140 c 3
 120 93 153 60 200 60 c 3
 350 60 l 3
 367 60 380 47 380 30 c 3
 380 13 367 0 350 0 c 3
 200 0 l 3
EndSplineSet
Validated: 1
EndChar

StartChar: d.1r1
Encoding: 57827 57827 92
Width: 500
VWidth: 0
Flags: W
HStem: 0 60<144.046 269.047 399.206 478.894> 260 60<-78.8936 106 170.218 296.284>
VStem: 60 60<84.0457 209.404> 320 60<111.365 236.284 296 614.894>
LayerCount: 2
Fore
SplineSet
200 0 m 3
 120 0 60 60 60 140 c 3
 60 186 77 228 106 260 c 1
 -50 260 l 3
 -67 260 -80 273 -80 290 c 3
 -80 307 -67 320 -50 320 c 0
 240 320 l 3
 270 320 298 311 320 296 c 1
 320 586 l 3
 320 603 333 616 350 616 c 3
 367 616 380 603 380 586 c 3
 380 140 l 3
 380 93 403 60 450 60 c 3
 467 60 480 47 480 30 c 3
 480 13 467 0 450 0 c 3
 398 0 359 26 338 65 c 1
 305 26 255 0 200 0 c 3
200 60 m 3
 267 60 320 113 320 180 c 3
 320 227 287 260 240 260 c 3
 173 260 120 207 120 140 c 3
 120 93 153 60 200 60 c 3
EndSplineSet
Validated: 1
EndChar

StartChar: p.0x1
Encoding: 57647 57647 93
Width: 400
VWidth: 0
Flags: W
HStem: -384 21G<61.5 78.5> -0 60<123.716 249.782 314 378.894> 260 60<150.596 275.954>
VStem: 40 60<-382.894 24 83.7164 209.782 274 318.894> 300 60<110.596 235.954>
LayerCount: 2
Fore
SplineSet
180 -0 m 3
 150 0 122 9 100 24 c 1
 100 -354 l 3
 100 -371 87 -384 70 -384 c 3
 53 -384 40 -371 40 -354 c 3
 40 290 l 3
 40 307 53 320 70 320 c 3
 87 320 100 307 100 290 c 3
 100 274 l 1
 132 303 174 320 220 320 c 3
 300 320 360 260 360 180 c 3
 360 134 343 92 314 60 c 1
 350 60 l 3
 367 60 380 47 380 30 c 3
 380 13 367 0 350 0 c 3
 180 -0 l 3
180 60 m 3
 247 60 300 113 300 180 c 3
 300 227 267 260 220 260 c 3
 153 260 100 207 100 140 c 3
 100 93 133 60 180 60 c 3
EndSplineSet
Validated: 1
AlternateSubs2: "Substitutions 1x1-1" p.1x1
Substitution2: "Substitutions 1r1-1" p.1r1
EndChar

StartChar: p.1x0
Encoding: 57679 57679 94
Width: 440
VWidth: 0
Flags: W
HStem: -384 21G<101.5 118.5> 0 60<-78.8936 31.6921 163.585 287.807> 260 60<190.596 315.954>
VStem: 80 60<-382.894 24 122 209.782 274 318.894> 340 60<112.193 235.954>
LayerCount: 2
Fore
SplineSet
220 0 m 3
 190 0 162 9 140 24 c 1
 140 -354 l 1
 140 -371 127 -384 110 -384 c 3
 93 -384 80 -371 80 -354 c 0
 80 42 l 1
 40 12 -3 0 -50 0 c 3
 -67 0 -80 13 -80 30 c 3
 -80 47 -67 60 -50 60 c 3
 7 60 40 82 70 112 c 0
 74 116 77 119 80 122 c 1
 80 290 l 3
 80 307 93 320 110 320 c 3
 127 320 140 307 140 290 c 0
 140 274 l 1
 172 303 214 320 260 320 c 3
 340 320 400 260 400 180 c 3
 400 81 319 0 220 0 c 3
220 60 m 3
 287 60 340 113 340 180 c 3
 340 227 307 260 260 260 c 3
 193 260 140 207 140 140 c 3
 140 93 173 60 220 60 c 3
EndSplineSet
Validated: 1
AlternateSubs2: "Substitutions 1x1-1" p.1x1
EndChar

StartChar: p.1x1
Encoding: 57711 57711 95
Width: 440
VWidth: 0
Flags: W
HStem: -384 21G<101.5 118.5> 0 60<-78.8936 31.6921 163.716 289.782 354 418.894> 260 60<190.596 315.954>
VStem: 80 60<-382.894 24 122 209.782 274 318.894> 340 60<110.596 235.954>
LayerCount: 2
Fore
SplineSet
220 0 m 3
 190 0 162 9 140 24 c 1
 140 -354 l 3
 140 -371 127 -384 110 -384 c 3
 93 -384 80 -371 80 -354 c 3
 80 42 l 1
 40 12 -3 0 -50 0 c 3
 -67 0 -80 13 -80 30 c 3
 -80 47 -67 60 -50 60 c 3
 7 60 40 82 70 112 c 0
 74 116 77 119 80 122 c 1
 80 290 l 3
 80 307 93 320 110 320 c 3
 127 320 140 307 140 290 c 3
 140 274 l 1
 172 303 214 320 260 320 c 3
 340 320 400 260 400 180 c 3
 400 134 383 92 354 60 c 1
 390 60 l 3
 407 60 420 47 420 30 c 3
 420 13 407 0 390 0 c 3
 220 0 l 3
220 60 m 3
 287 60 340 113 340 180 c 3
 340 227 307 260 260 260 c 3
 193 260 140 207 140 140 c 3
 140 93 173 60 220 60 c 3
EndSplineSet
Validated: 1
EndChar

StartChar: p.1o0
Encoding: 57775 57775 96
Width: 440
VWidth: 0
Flags: W
HStem: -384 21G<101.5 118.5> 0 60<163.585 287.807> 260 60<-78.8936 78.0156 191.176 315.954>
VStem: 80 60<-382.894 24 83.7164 209.782> 340 60<112.193 235.954>
LayerCount: 2
Fore
SplineSet
220 0 m 3
 190 0 162 9 140 24 c 1
 140 -354 l 3
 140 -371 127 -384 110 -384 c 3
 93 -384 80 -371 80 -354 c 3
 80 230 l 3
 80 250 70 260 50 260 c 3
 -50 260 l 3
 -67 260 -80 273 -80 290 c 3
 -80 307 -67 320 -50 320 c 3
 50 320 l 3
 90 320 120 300 133 268 c 1
 166 300 210 320 260 320 c 3
 340 320 400 260 400 180 c 3
 400 81 319 0 220 0 c 3
220 60 m 3
 287 60 340 113 340 180 c 3
 340 227 307 260 260 260 c 3
 193 260 140 207 140 140 c 3
 140 93 173 60 220 60 c 3
EndSplineSet
Validated: 1
Substitution2: "Substitutions 1r1-1" p.1r1
EndChar

StartChar: p.1r1
Encoding: 57839 57839 97
Width: 440
VWidth: 0
Flags: W
HStem: -384 21G<101.5 118.5> -0 60<163.716 289.782 354 418.894> 260 60<-78.8936 78.0156 191.176 315.954>
VStem: 80 60<-382.894 24 83.7164 209.782> 340 60<110.596 235.954>
LayerCount: 2
Fore
SplineSet
220 -0 m 3
 190 0 162 9 140 24 c 1
 140 -354 l 3
 140 -371 127 -384 110 -384 c 3
 93 -384 80 -371 80 -354 c 3
 80 230 l 3
 80 250 70 260 50 260 c 3
 -50 260 l 3
 -67 260 -80 273 -80 290 c 3
 -80 307 -67 320 -50 320 c 3
 50 320 l 3
 90 320 120 300 133 268 c 1
 166 300 210 320 260 320 c 3
 340 320 400 260 400 180 c 3
 400 134 383 92 354 60 c 1
 390 60 l 3
 407 60 420 47 420 30 c 3
 420 13 407 0 390 0 c 3
 220 -0 l 3
220 60 m 3
 287 60 340 113 340 180 c 3
 340 227 307 260 260 260 c 3
 193 260 140 207 140 140 c 3
 140 93 173 60 220 60 c 3
EndSplineSet
Validated: 1
EndChar

StartChar: f.1r1
Encoding: 57829 57829 98
Width: 380
VWidth: 0
Flags: W
HStem: -384 21G<101.5 118.5> 0 60<191.769 358.894> 260 60<-78.8936 31.6921> 556 60<167.592 275.809>
VStem: 80 60<-382.894 -47.9463 15 302 382 527.406> 280 60<469.92 549.551>
LayerCount: 2
Fore
SplineSet
270 0 m 3
 203 0 140 -43 140 -110 c 3
 140 -354 l 3
 140 -371 127 -384 110 -384 c 3
 93 -384 80 -371 80 -354 c 3
 80 302 l 1
 40 272 -3 260 -50 260 c 3
 -67 260 -80 273 -80 290 c 3
 -80 307 -67 320 -50 320 c 3
 7 320 40 342 70 372 c 0
 74 376 77 379 80 382 c 1
 80 466 l 3
 80 556 140 616 230 616 c 3
 290 616 340 580 340 520 c 3
 340 480 326 454 310 438 c 0
 292 420 281 410 270 410 c 3
 253 410 240 423 240 440 c 3
 240 451 250 462 268 480 c 0
 276 488 280 504 280 520 c 3
 280 545 255 556 230 556 c 3
 173 556 140 523 140 466 c 0
 140 15 l 1
 175 44 221 60 270 60 c 3
 330 60 l 3
 347 60 360 47 360 30 c 3
 360 13 347 0 330 0 c 3
 270 0 l 3
EndSplineSet
Validated: 1
EndChar

StartChar: r.1x1
Encoding: 57713 57713 99
Width: 420
VWidth: 0
Flags: W
HStem: 0 60<-78.8936 44.0625 341.642 398.894> 260 60<121.642 276.295>
VStem: 60 60<75.9375 258.358> 280 60<61.6421 256.295>
LayerCount: 2
Fore
SplineSet
150 260 m 3
 130 260 120 250 120 230 c 3
 120 130 l 3
 120 50 70 0 -10 0 c 3
 -50 0 l 3
 -67 0 -80 13 -80 30 c 3
 -80 47 -67 60 -50 60 c 0
 -10 60 l 3
 37 60 60 83 60 130 c 3
 60 230 l 3
 60 284 96 320 150 320 c 3
 240 320 l 3
 300 320 340 280 340 220 c 3
 340 90 l 3
 340 70 350 60 370 60 c 3
 387 60 400 47 400 30 c 3
 400 13 387 0 370 0 c 3
 316 0 280 36 280 90 c 3
 280 220 l 3
 280 247 267 260 240 260 c 3
 150 260 l 3
EndSplineSet
Validated: 1
EndChar

StartChar: r.1r1
Encoding: 57841 57841 100
Width: 420
VWidth: 0
Flags: W
HStem: 0 60<341.642 398.894> 260 60<-78.8936 74.1562> 320 60<115.844 278.406>
VStem: 280 60<61.6421 315.45>
LayerCount: 2
Fore
SplineSet
40 260 m 0xd0
 -50 260 l 3
 -67 260 -80 273 -80 290 c 3
 -80 307 -67 320 -50 320 c 3
 -40 320 -15 320 40 320 c 3xd0
 70 320 90 380 150 380 c 3
 240 380 l 3
 294 380 340 342 340 290 c 27
 340 90 l 3
 340 70 350 60 370 60 c 3
 387 60 400 47 400 30 c 3
 400 13 387 0 370 0 c 3
 316 0 280 36 280 90 c 3
 280 290 l 3
 280 310 260 320 240 320 c 27
 205 320 173 320 150 320 c 3xb0
 120 320 100 260 40 260 c 0xd0
EndSplineSet
Validated: 1
EndChar

StartChar: m.1r1
Encoding: 57836 57836 101
Width: 890
VWidth: 0
Flags: W
HStem: 0 60<811.642 868.894> 230 60<390.573 458.736 680.573 748.813> 260 60<-78.8936 161.673>
VStem: 170 60<132 250.437> 460 60<132 228.358> 750 60<61.6421 228.358>
DStem2: 230 132 242 60 0.707107 0.707107<0 210.351> 520 132 532 60 0.707107 0.707107<0 210.351>
CounterMasks: 1 1c
LayerCount: 2
Fore
SplineSet
120 320 m 3xbc
 184 320 230 271 230 210 c 27
 230 132 l 1
 274 176 351 253 358 260 c 0xbc
 374 276 397 290 430 290 c 0xdc
 484 290 520 254 520 200 c 8
 520 132 l 1
 564 176 641 253 648 260 c 0xbc
 664 276 687 290 720 290 c 3
 774 290 810 254 810 200 c 3
 810 90 l 3
 810 70 820 60 840 60 c 3
 857 60 870 47 870 30 c 3
 870 13 857 0 840 0 c 3
 786 0 750 36 750 90 c 3
 750 200 l 3
 750 220 740 230 720 230 c 3
 709 230 698 226 690 218 c 0
 532 60 l 0
 512 40 507 30 490 30 c 3
 473 30 460 43 460 60 c 27
 460 115 460 145 460 200 c 27
 460 217 450 230 430 230 c 0xdc
 419 230 408 226 400 218 c 0
 242 60 l 0
 222 40 217 30 200 30 c 3
 183 30 170 43 170 60 c 19
 170 80 170 140 170 210 c 3
 170 241 148 260 120 260 c 3
 -50 260 l 3xbc
 -67 260 -80 273 -80 290 c 3xdc
 -80 307 -67 320 -50 320 c 3
 120 320 l 3xbc
EndSplineSet
Validated: 1
EndChar

StartChar: n.1r1
Encoding: 57837 57837 102
Width: 600
VWidth: 0
Flags: W
HStem: 0 60<521.642 578.894> 230 60<390.573 458.813> 260 60<-78.8936 161.673>
VStem: 170 60<132 251.673> 460 60<61.6421 228.358>
DStem2: 230 132 242 60 0.707107 0.707107<0 210.351>
LayerCount: 2
Fore
SplineSet
120 320 m 3xb8
 184 320 230 274 230 210 c 3
 230 132 l 1
 274 176 351 253 358 260 c 0xb8
 374 276 397 290 430 290 c 3
 484 290 520 254 520 200 c 3
 520 90 l 3
 520 70 530 60 550 60 c 3
 567 60 580 47 580 30 c 3
 580 13 567 0 550 0 c 3
 496 0 460 36 460 90 c 3
 460 200 l 3
 460 220 450 230 430 230 c 3xd8
 419 230 408 226 400 218 c 0
 350 168 252 70 242 60 c 0
 222 40 217 30 200 30 c 3
 183 30 170 43 170 60 c 3
 170 80 170 140 170 210 c 3
 170 241 150 260 120 260 c 3
 -50 260 l 3xb8
 -67 260 -80 273 -80 290 c 3xd8
 -80 307 -67 320 -50 320 c 3
 120 320 l 3xb8
EndSplineSet
Validated: 1
EndChar

StartChar: g.1o0
Encoding: 57766 57766 103
Width: 440
VWidth: 0
Flags: W
HStem: -384 60<179.578 284.477> 0 60<144.046 269.404> 260 60<-78.8936 106 170.218 295.625>
VStem: 60 60<84.0457 209.404> 100 60<-305.652 -204.026> 320 60<-286.362 46 110.218 235.625>
DStem2: 140 -162 182 -204 0.810792 0.585335<-31.363 156.49>
LayerCount: 2
Fore
SplineSet
200 0 m 3xec
 120 0 60 60 60 140 c 3xf4
 60 186 77 228 106 260 c 1
 -50 260 l 3
 -67 260 -80 273 -80 290 c 3
 -80 307 -67 320 -50 320 c 3
 240 320 l 3
 320 320 380 260 380 180 c 3
 380 170 380 -184 380 -194 c 3
 380 -294 332 -384 232 -384 c 3
 152 -384 100 -324 100 -244 c 3
 100 -211 118 -184 140 -162 c 0
 170 -132 208 -124 228 -104 c 0
 248 -84 259 -74 270 -74 c 3
 287 -74 300 -87 300 -104 c 3
 300 -115 290 -126 270 -146 c 0
 240 -176 202 -184 182 -204 c 0
 172 -214 160 -229 160 -244 c 3
 160 -291 183 -324 230 -324 c 3
 297 -324 320 -261 320 -194 c 3
 320 46 l 1
 288 17 246 0 200 0 c 3xec
200 60 m 3
 267 60 320 113 320 180 c 3
 320 227 287 260 240 260 c 3
 173 260 120 207 120 140 c 3
 120 93 153 60 200 60 c 3
EndSplineSet
Validated: 1
Substitution2: "Substitutions 1r1-1" g.1r1
EndChar

StartChar: g.1r1
Encoding: 57830 57830 104
Width: 460
VWidth: 0
Flags: W
HStem: -384 60<179.578 284.477> 0 60<144.046 269.404 380.886 438.894> 260 60<-78.8936 106 170.218 295.625>
VStem: 60 60<84.0457 209.404> 100 60<-305.652 -204.026> 320 60<-286.362 -0.917816 110.218 235.625>
DStem2: 140 -162 182 -204 0.810792 0.585335<-31.363 156.49>
LayerCount: 2
Fore
SplineSet
200 0 m 3xec
 120 0 60 60 60 140 c 3xf4
 60 186 77 228 106 260 c 1
 -50 260 l 3
 -67 260 -80 273 -80 290 c 3
 -80 307 -67 320 -50 320 c 3
 240 320 l 3
 320 320 380 260 380 180 c 0
 380 56 l 1
 389 59 399 60 410 60 c 3
 427 60 440 47 440 30 c 3
 440 13 427 0 410 0 c 3
 390 0 380 -13 380 -30 c 0
 380 -194 l 3
 380 -294 332 -384 232 -384 c 3
 152 -384 100 -324 100 -244 c 3
 100 -211 118 -184 140 -162 c 0
 170 -132 208 -124 228 -104 c 0
 248 -84 259 -74 270 -74 c 3
 287 -74 300 -87 300 -104 c 3
 300 -115 290 -126 270 -146 c 0
 240 -176 202 -184 182 -204 c 0
 172 -214 160 -229 160 -244 c 3
 160 -291 183 -324 230 -324 c 3
 297 -324 320 -261 320 -194 c 0
 320 46 l 1
 288 17 246 0 200 0 c 3xec
200 60 m 3
 267 60 320 113 320 180 c 3
 320 227 287 260 240 260 c 3
 173 260 120 207 120 140 c 3
 120 93 153 60 200 60 c 3
EndSplineSet
Validated: 1
EndChar

StartChar: q.0x1
Encoding: 57648 57648 105
Width: 440
VWidth: 0
Flags: W
HStem: -384 21G<321.5 338.5> 0 60<124.046 249.404 360.847 418.894> 260 60<152.193 276.296>
VStem: 40 60<84.0457 207.807> 300 60<-382.894 -0.732422 110.218 236.284>
LayerCount: 2
Fore
SplineSet
180 0 m 3
 100 0 40 60 40 140 c 3
 40 239 121 320 220 320 c 3
 251 320 279 311 301 296 c 1
 304 310 315 320 330 320 c 3
 347 320 360 307 360 290 c 3
 360 56 l 1
 369 59 379 60 390 60 c 3
 407 60 420 47 420 30 c 3
 420 13 407 0 390 0 c 3
 370 0 360 -10 360 -30 c 3
 360 -354 l 3
 360 -371 347 -384 330 -384 c 3
 313 -384 300 -371 300 -354 c 3
 300 46 l 1
 268 17 226 0 180 0 c 3
180 60 m 3
 247 60 300 113 300 180 c 3
 300 227 267 260 220 260 c 3
 153 260 100 207 100 140 c 3
 100 93 133 60 180 60 c 3
EndSplineSet
Validated: 1
AlternateSubs2: "Substitutions 1x1-1" q.1x1
Substitution2: "Substitutions 1r1-1" q.1r1
EndChar

StartChar: q.1x0
Encoding: 57680 57680 106
Width: 440
VWidth: 0
Flags: W
HStem: -384 21G<341.5 358.5> 0 60<-78.8936 -10.0491 144.289 269.404> 260 60<170.664 296.296>
VStem: -80 200<21.5 173.5> 320 60<-382.894 46 110.218 236.284>
LayerCount: 2
Fore
SplineSet
200 0 m 3
 137 0 85 38 67 93 c 1
 58 76 49 57 32 40 c 0
 10 18 -17 0 -50 0 c 11
 -67 0 -80 13 -80 30 c 3
 -80 47 -67 60 -50 60 c 3
 -35 60 -20 72 -10 82 c 0
 10 102 18 140 48 170 c 0
 56 178 62 184 67 188 c 1
 88 264 158 320 240 320 c 3
 271 320 299 311 321 296 c 1
 324 310 335 320 350 320 c 3
 367 320 380 307 380 290 c 0
 380 -354 l 3
 380 -371 367 -384 350 -384 c 3
 333 -384 320 -371 320 -354 c 0
 320 46 l 1
 288 17 246 0 200 0 c 3
200 60 m 3
 267 60 320 113 320 180 c 3
 320 227 287 260 240 260 c 3
 173 260 120 207 120 140 c 3
 120 93 153 60 200 60 c 3
EndSplineSet
Validated: 1
AlternateSubs2: "Substitutions 1x1-1" q.1x1
EndChar

StartChar: q.1x1
Encoding: 57712 57712 107
Width: 460
VWidth: 0
Flags: W
HStem: -384 21G<341.5 358.5> 0 60<-78.8936 -10.0491 144.289 269.404 380.847 438.894> 260 60<170.664 296.296>
VStem: -80 200<21.5 173.5> 320 60<-382.894 -0.732422 110.218 236.284>
LayerCount: 2
Fore
SplineSet
200 0 m 3
 137 0 85 38 67 93 c 1
 58 76 49 57 32 40 c 0
 10 18 -17 0 -50 0 c 11
 -67 0 -80 13 -80 30 c 3
 -80 47 -67 60 -50 60 c 3
 -35 60 -20 72 -10 82 c 0
 10 102 18 140 48 170 c 0
 56 178 62 184 67 188 c 1
 88 264 158 320 240 320 c 3
 271 320 299 311 321 296 c 1
 324 310 335 320 350 320 c 3
 367 320 380 307 380 290 c 3
 380 56 l 1
 389 59 399 60 410 60 c 3
 427 60 440 47 440 30 c 3
 440 13 427 0 410 0 c 3
 390 0 380 -10 380 -30 c 3
 380 -354 l 3
 380 -371 367 -384 350 -384 c 3
 333 -384 320 -371 320 -354 c 3
 320 46 l 1
 288 17 246 0 200 0 c 3
200 60 m 3
 267 60 320 113 320 180 c 3
 320 227 287 260 240 260 c 3
 173 260 120 207 120 140 c 3
 120 93 153 60 200 60 c 3
EndSplineSet
Validated: 1
EndChar

StartChar: q.1o0
Encoding: 57776 57776 108
Width: 440
VWidth: 0
Flags: W
HStem: -384 21G<341.5 358.5> 0 60<144.046 269.404> 260 60<-78.8936 106 170.218 296.284>
VStem: 60 60<84.0457 209.404> 320 60<-382.894 46 110.218 236.284>
LayerCount: 2
Fore
SplineSet
200 0 m 3
 120 0 60 60 60 140 c 3
 60 186 77 228 106 260 c 1
 -50 260 l 3
 -67 260 -80 273 -80 290 c 3
 -80 307 -67 320 -50 320 c 3
 240 320 l 3
 271 320 299 311 321 296 c 1
 324 310 335 320 350 320 c 3
 367 320 380 307 380 290 c 3
 380 -354 l 3
 380 -371 367 -384 350 -384 c 3
 333 -384 320 -371 320 -354 c 3
 320 46 l 1
 288 17 246 0 200 0 c 3
200 60 m 3
 267 60 320 113 320 180 c 3
 320 227 287 260 240 260 c 3
 173 260 120 207 120 140 c 3
 120 93 153 60 200 60 c 3
EndSplineSet
Validated: 1
Substitution2: "Substitutions 1r1-1" q.1r1
EndChar

StartChar: q.1r1
Encoding: 57840 57840 109
Width: 460
VWidth: 0
Flags: W
HStem: -384 21G<341.5 358.5> 0 60<144.046 269.404 380.847 438.894> 260 60<-78.8936 106 170.218 296.284>
VStem: 60 60<84.0457 209.404> 320 60<-382.894 -0.732422 110.218 236.284>
LayerCount: 2
Fore
SplineSet
200 0 m 3
 120 0 60 60 60 140 c 3
 60 186 77 228 106 260 c 1
 -50 260 l 3
 -67 260 -80 273 -80 290 c 3
 -80 307 -67 320 -50 320 c 3
 240 320 l 3
 271 320 299 311 321 296 c 1
 324 310 335 320 350 320 c 3
 367 320 380 307 380 290 c 3
 380 56 l 1
 389 59 399 60 410 60 c 3
 427 60 440 47 440 30 c 3
 440 13 427 0 410 0 c 3
 390 0 380 -10 380 -30 c 3
 380 -354 l 3
 380 -371 367 -384 350 -384 c 3
 333 -384 320 -371 320 -354 c 3
 320 46 l 1
 288 17 246 0 200 0 c 3
200 60 m 3
 267 60 320 113 320 180 c 3
 320 227 287 260 240 260 c 3
 173 260 120 207 120 140 c 3
 120 93 153 60 200 60 c 3
EndSplineSet
Validated: 1
EndChar

StartChar: dotlessi.1r1
Encoding: 57832 57832 110
Width: 240
VWidth: 0
Flags: W
HStem: 0 60<141.594 218.894> 260 60<-78.8936 78.4062>
VStem: 80 60<64.5501 255.45>
LayerCount: 2
Fore
SplineSet
40 260 m 3
 -50 260 l 3
 -67 260 -80 273 -80 290 c 3
 -80 307 -67 320 -50 320 c 3
 40 320 l 3
 94 320 140 282 140 230 c 3
 140 90 l 3
 140 70 160 60 180 60 c 27
 190 60 l 3
 207 60 220 47 220 30 c 3
 220 13 207 0 190 0 c 27
 180 0 l 3
 126 0 80 38 80 90 c 3
 80 230 l 3
 80 250 60 260 40 260 c 3
EndSplineSet
Validated: 1
EndChar

StartChar: dotlessi
Encoding: 305 305 111
Width: 200
VWidth: 0
Flags: W
HStem: 0 21G<124.5 138.5> 300 20G<61.5 78.5>
VStem: 40 60<81.7965 318.894>
LayerCount: 2
Fore
SplineSet
130 0 m 3
 119 0 108 10 90 28 c 0
 74 44 40 80 40 130 c 1
 40 290 l 3
 40 307 53 320 70 320 c 3
 87 320 100 307 100 290 c 3
 100 290 100 192 100 130 c 3
 100 103 124 78 132 70 c 0
 150 52 160 41 160 30 c 3
 160 13 147 0 130 0 c 3
EndSplineSet
Validated: 1
AlternateSubs2: "Substitutions 0x1-1" dotlessi.0x1
AlternateSubs2: "Substitutions 1x0-1" dotlessi.1x0
Substitution2: "Substitutions 1o0-1" dotlessi.1o0
EndChar

StartChar: dotlessj
Encoding: 567 567 116
Width: 380
VWidth: 0
Flags: W
HStem: -384 60<119.578 224.477> 300 20G<281.5 298.5>
VStem: 40 60<-305.652 -204.026> 260 60<-286.362 318.894>
DStem2: 80 -162 122 -204 0.810792 0.585335<-31.363 156.49>
LayerCount: 2
Fore
SplineSet
172 -384 m 3
 92 -384 40 -324 40 -244 c 3
 40 -211 58 -184 80 -162 c 0
 110 -132 148 -124 168 -104 c 0
 188 -84 199 -74 210 -74 c 3
 227 -74 240 -87 240 -104 c 3
 240 -115 230 -126 210 -146 c 0
 180 -176 142 -184 122 -204 c 0
 112 -214 100 -229 100 -244 c 3
 100 -291 123 -324 170 -324 c 3
 237 -324 260 -261 260 -194 c 3
 260 290 l 3
 260 307 273 320 290 320 c 3
 307 320 320 307 320 290 c 3
 320 -194 l 3
 320 -294 272 -384 172 -384 c 3
EndSplineSet
Validated: 1
AlternateSubs2: "Substitutions 0x1-1" dotlessj.0x1
AlternateSubs2: "Substitutions 1x0-1" dotlessj.1x0
Substitution2: "Substitutions 1o0-1" dotlessj.1o0
EndChar

StartChar: l.1r1
Encoding: 57835 57835 120
Width: 360
VWidth: 0
Flags: W
HStem: 0 60<158.951 338.894> 260 60<-78.8936 31.6921> 556 60<167.592 275.809>
VStem: 80 60<78.5592 302 382 527.406> 280 60<469.92 549.551>
LayerCount: 2
Fore
SplineSet
210 0 m 3
 130 0 80 60 80 140 c 3
 80 302 l 1
 40 272 -3 260 -50 260 c 3
 -67 260 -80 273 -80 290 c 3
 -80 307 -67 320 -50 320 c 3
 7 320 40 342 70 372 c 0
 74 376 77 379 80 382 c 1
 80 466 l 3
 80 556 140 616 230 616 c 3
 290 616 340 580 340 520 c 3
 340 480 326 454 310 438 c 0
 292 420 281 410 270 410 c 3
 253 410 240 423 240 440 c 3
 240 451 250 462 268 480 c 0
 276 488 280 504 280 520 c 3
 280 545 255 556 230 556 c 3
 173 556 140 523 140 466 c 3
 140 140 l 3
 140 93 163 60 210 60 c 3
 310 60 l 3
 327 60 340 47 340 30 c 3
 340 13 327 0 310 0 c 3
 210 0 l 3
EndSplineSet
Validated: 1
EndChar

StartChar: s.0x1
Encoding: 57650 57650 121
Width: 520
VWidth: 0
Flags: W
HStem: 0 60<271.325 396.284 456 498.894> 260 60<260.573 368.013>
VStem: 420 60<83.5846 208.013>
DStem2: 70 132 112 90 0.707107 0.707107<-50.5419 252.778>
LayerCount: 2
Fore
SplineSet
456 60 m 1
 470 60 l 3
 487 60 500 47 500 30 c 3
 500 13 487 0 470 0 c 27
 340 0 l 3
 300 0 258 10 228 40 c 0
 208 60 200 69 200 80 c 3
 200 97 213 110 230 110 c 3
 241 110 250 102 270 82 c 0
 287 65 316 60 340 60 c 3
 387 60 420 93 420 140 c 3
 420 207 367 260 300 260 c 3
 289 260 278 256 270 248 c 0
 220 198 122 100 112 90 c 0
 92 70 81 60 70 60 c 3
 53 60 40 73 40 90 c 3
 40 101 50 112 70 132 c 0
 80 142 218 281 228 290 c 0
 244 306 267 320 300 320 c 3
 400 320 480 240 480 140 c 3
 480 110 471 82 456 60 c 1
EndSplineSet
Validated: 1
AlternateSubs2: "Substitutions 1x1-1" s.1x1
Substitution2: "Substitutions 1r1-1" s.1r1
EndChar

StartChar: s.1x0
Encoding: 57682 57682 122
Width: 500
VWidth: 0
Flags: W
HStem: 0 60<-78.8936 -1.27441 250.665 375.954> 260 60<242.104 348.013>
VStem: 400 60<84.0457 208.013>
DStem2: -10 72 32 30 0.707107 0.707107<-38.7382 337.63>
LayerCount: 2
Fore
SplineSet
320 0 m 3
 280 0 238 10 208 40 c 0
 188 60 180 69 180 80 c 3
 180 97 193 110 210 110 c 3
 221 110 230 102 250 82 c 0
 267 65 296 60 320 60 c 3
 367 60 400 93 400 140 c 3
 400 207 347 260 280 260 c 3
 269 260 258 256 250 248 c 0
 200 198 42 40 32 30 c 0
 16 14 -10 0 -50 0 c 3
 -67 0 -80 13 -80 30 c 3
 -80 47 -67 60 -50 60 c 3
 -34 60 -18 64 -10 72 c 0
 0 82 198 281 208 290 c 0
 224 306 247 320 280 320 c 3
 380 320 460 240 460 140 c 3
 460 60 400 0 320 0 c 3
EndSplineSet
Validated: 1
AlternateSubs2: "Substitutions 1x1-1" s.1x1
EndChar

StartChar: s.1x1
Encoding: 57714 57714 123
Width: 500
VWidth: 0
Flags: W
HStem: 0 60<-78.8936 -1.27441 251.325 376.284 436 478.894> 260 60<242.104 348.013>
VStem: 400 60<83.5846 208.013>
DStem2: -10 72 32 30 0.707107 0.707107<-38.7382 337.63>
LayerCount: 2
Fore
SplineSet
320 0 m 3
 280 0 238 10 208 40 c 0
 188 60 180 69 180 80 c 3
 180 97 193 110 210 110 c 3
 221 110 230 102 250 82 c 0
 267 65 296 60 320 60 c 3
 367 60 400 93 400 140 c 3
 400 207 347 260 280 260 c 3
 269 260 258 256 250 248 c 0
 200 198 42 40 32 30 c 0
 16 14 -10 0 -50 0 c 3
 -67 0 -80 13 -80 30 c 3
 -80 47 -67 60 -50 60 c 3
 -34 60 -18 64 -10 72 c 0
 0 82 198 281 208 290 c 0
 224 306 247 320 280 320 c 3
 380 320 460 240 460 140 c 3
 460 110 451 82 436 60 c 1
 450 60 l 3
 467 60 480 47 480 30 c 3
 480 13 467 0 450 0 c 27
 320 0 l 3
EndSplineSet
Validated: 1
EndChar

StartChar: s.1r1
Encoding: 57842 57842 124
Width: 480
VWidth: 0
Flags: W
HStem: 0 60<231.325 356.284 416 458.894> 260 60<-78.8936 326.244>
VStem: 380 60<83.5846 208.013>
LayerCount: 2
Fore
SplineSet
300 0 m 3
 260 0 218 10 188 40 c 0
 168 60 160 69 160 80 c 3
 160 97 173 110 190 110 c 3
 201 110 210 102 230 82 c 0
 247 65 276 60 300 60 c 3
 347 60 380 93 380 140 c 3
 380 207 327 260 260 260 c 3
 -50 260 l 3
 -67 260 -80 273 -80 290 c 3
 -80 307 -67 320 -50 320 c 3
 260 320 l 3
 360 320 440 240 440 140 c 3
 440 110 431 82 416 60 c 1
 430 60 l 3
 447 60 460 47 460 30 c 3
 460 13 447 0 430 0 c 27
 300 0 l 3
EndSplineSet
Validated: 1
EndChar

StartChar: s.1o0
Encoding: 57778 57778 125
Width: 480
VWidth: 0
Flags: W
HStem: 0 60<230.665 355.954> 260 60<-78.8936 326.244>
VStem: 380 60<84.0457 208.013>
LayerCount: 2
Fore
SplineSet
300 0 m 3
 260 0 218 10 188 40 c 0
 168 60 160 69 160 80 c 3
 160 97 173 110 190 110 c 3
 201 110 210 102 230 82 c 0
 247 65 276 60 300 60 c 3
 347 60 380 93 380 140 c 3
 380 207 327 260 260 260 c 3
 -50 260 l 3
 -67 260 -80 273 -80 290 c 3
 -80 307 -67 320 -50 320 c 3
 260 320 l 3
 360 320 440 240 440 140 c 3
 440 60 380 0 300 0 c 3
EndSplineSet
Validated: 1
Substitution2: "Substitutions 1r1-1" s.1r1
EndChar

StartChar: t.1x1
Encoding: 57715 57715 126
Width: 360
VWidth: 0
Flags: W
HStem: 0 60<-78.8936 31.2038 158.482 338.894> 260 60<31.1064 80 140 248.894>
VStem: 80 60<122 260 320 614.894>
LayerCount: 2
Fore
SplineSet
210 0 m 3
 161 0 123 23 101 59 c 1
 54 17 6 0 -50 0 c 3
 -67 0 -80 13 -80 30 c 3
 -80 47 -67 60 -50 60 c 3
 7 60 40 82 70 112 c 0
 74 116 77 119 80 122 c 1
 80 260 l 1
 60 260 l 3
 43 260 30 273 30 290 c 3
 30 307 43 320 60 320 c 3
 80 320 l 1
 80 586 l 3
 80 603 93 616 110 616 c 3
 127 616 140 603 140 586 c 3
 140 320 l 1
 220 320 l 3
 237 320 250 307 250 290 c 3
 250 273 237 260 220 260 c 3
 140 260 l 1
 140 140 l 3
 140 93 163 60 210 60 c 3
 310 60 l 3
 327 60 340 47 340 30 c 3
 340 13 327 0 310 0 c 3
 210 0 l 3
EndSplineSet
Validated: 1
EndChar

StartChar: t.1r1
Encoding: 57843 57843 127
Width: 360
VWidth: 0
Flags: W
HStem: 0 60<158.951 338.894> 260 60<-78.8936 80 140 268.894>
VStem: 80 60<78.5592 260 320 614.894>
LayerCount: 2
Fore
SplineSet
210 0 m 3
 130 0 80 60 80 140 c 3
 80 260 l 1
 -50 260 l 3
 -67 260 -80 273 -80 290 c 3
 -80 307 -67 320 -50 320 c 3
 80 320 l 1
 80 586 l 3
 80 603 93 616 110 616 c 3
 127 616 140 603 140 586 c 3
 140 320 l 1
 240 320 l 3
 257 320 270 307 270 290 c 3
 270 273 257 260 240 260 c 0
 140 260 l 1
 140 140 l 3
 140 93 163 60 210 60 c 3
 310 60 l 3
 327 60 340 47 340 30 c 3
 340 13 327 0 310 0 c 3
 210 0 l 3
EndSplineSet
Validated: 1
EndChar

StartChar: y.1r1
Encoding: 57848 57848 128
Width: 420
VWidth: 0
Flags: W
HStem: -384 60<139.578 244.477> 0 60<144.046 256.415 340.847 398.894> 260 60<-78.8936 58.3579>
VStem: 60 60<-305.652 -204.026 84.375 258.358> 280 60<-286.362 -0.732422 83.7164 318.894>
DStem2: 100 -162 142 -204 0.810792 0.585335<-31.363 156.49>
LayerCount: 2
Fore
SplineSet
200 0 m 3
 120 0 60 60 60 140 c 0
 60 230 l 3
 60 250 50 260 30 260 c 3
 -50 260 l 3
 -67 260 -80 273 -80 290 c 3
 -80 307 -67 320 -50 320 c 3
 30 320 l 3
 84 320 120 284 120 230 c 3
 120 140 l 3
 120 93 153 60 200 60 c 3
 247 60 280 93 280 140 c 3
 280 290 l 3
 280 307 293 320 310 320 c 3
 327 320 340 307 340 290 c 3
 340 290 340 147 340 56 c 17
 349 59 359 60 370 60 c 3
 387 60 400 47 400 30 c 3
 400 13 387 0 370 0 c 3
 350 0 340 -10 340 -30 c 3
 340 -194 l 3
 340 -294 292 -384 192 -384 c 3
 112 -384 60 -324 60 -244 c 3
 60 -211 78 -184 100 -162 c 0
 130 -132 168 -124 188 -104 c 0
 208 -84 219 -74 230 -74 c 3
 247 -74 260 -87 260 -104 c 3
 260 -115 250 -126 230 -146 c 0
 200 -176 162 -184 142 -204 c 0
 132 -214 120 -229 120 -244 c 3
 120 -291 143 -324 190 -324 c 3
 257 -324 280 -261 280 -194 c 3
 280 24 l 1
 258 9 230 0 200 0 c 3
EndSplineSet
Validated: 1
EndChar

StartChar: u.1x1
Encoding: 57716 57716 129
Width: 420
VWidth: 0
Flags: W
HStem: 0 60<-78.8936 -10.0491 144.289 256.081 341.235 398.894> 300 20G<81.5 98.5 301.5 318.5>
VStem: 60 60<159.903 318.894> 280 60<83.7164 318.894>
LayerCount: 2
Fore
SplineSet
200 0 m 3
 137 0 85 38 67 93 c 1
 58 76 49 57 32 40 c 0
 10 18 -17 0 -50 0 c 11
 -67 0 -80 13 -80 30 c 3
 -80 47 -67 60 -50 60 c 3
 -35 60 -20 72 -10 82 c 0
 10 102 18 140 48 170 c 0
 53 175 57 179 60 183 c 1
 60 290 l 3
 60 307 73 320 90 320 c 3
 107 320 120 307 120 290 c 3
 120 140 l 3
 120 93 153 60 200 60 c 3
 247 60 280 93 280 140 c 3
 280 290 l 3
 280 307 293 320 310 320 c 3
 327 320 340 307 340 290 c 3
 340 290 340 168 340 90 c 19
 340 70 350 60 370 60 c 3
 387 60 400 47 400 30 c 3
 400 13 387 0 370 0 c 3
 337 0 311 13 296 36 c 1
 271 14 238 0 200 0 c 3
EndSplineSet
Validated: 1
EndChar

StartChar: u.1r1
Encoding: 57844 57844 130
Width: 420
VWidth: 0
Flags: W
HStem: 0 60<144.046 256.081 341.235 398.894> 260 60<-78.8936 58.3579>
VStem: 60 60<84.375 258.358> 280 60<83.7164 318.894>
LayerCount: 2
Fore
SplineSet
200 0 m 3
 120 0 60 60 60 140 c 3
 60 230 l 3
 60 250 50 260 30 260 c 3
 -50 260 l 3
 -67 260 -80 273 -80 290 c 3
 -80 307 -67 320 -50 320 c 3
 30 320 l 3
 84 320 120 284 120 230 c 3
 120 140 l 3
 120 93 153 60 200 60 c 3
 247 60 280 93 280 140 c 3
 280 290 l 3
 280 307 293 320 310 320 c 3
 327 320 340 307 340 290 c 3
 340 290 340 168 340 90 c 19
 340 70 350 60 370 60 c 3
 387 60 400 47 400 30 c 3
 400 13 387 0 370 0 c 3
 337 0 311 13 296 36 c 1
 271 14 238 0 200 0 c 3
EndSplineSet
Validated: 1
EndChar

StartChar: y.1o0
Encoding: 57784 57784 131
Width: 400
VWidth: 0
Flags: W
HStem: -384 60<139.578 244.477> 0 60<144.046 256.415> 260 60<-78.8936 58.3579>
VStem: 60 60<-305.652 -204.026 84.375 258.358> 280 60<-286.362 24 83.7164 318.894>
DStem2: 100 -162 142 -204 0.810792 0.585335<-31.363 156.49>
LayerCount: 2
Fore
SplineSet
192 -384 m 3
 112 -384 60 -324 60 -244 c 3
 60 -211 78 -184 100 -162 c 0
 130 -132 168 -124 188 -104 c 0
 208 -84 219 -74 230 -74 c 3
 247 -74 260 -87 260 -104 c 3
 260 -115 250 -126 230 -146 c 0
 200 -176 162 -184 142 -204 c 0
 132 -214 120 -229 120 -244 c 3
 120 -291 143 -324 190 -324 c 3
 257 -324 280 -261 280 -194 c 3
 280 24 l 1
 258 9 230 0 200 0 c 3
 120 0 60 60 60 140 c 3
 60 230 l 3
 60 250 50 260 30 260 c 3
 -50 260 l 3
 -67 260 -80 273 -80 290 c 3
 -80 307 -67 320 -50 320 c 3
 30 320 l 3
 84 320 120 284 120 230 c 3
 120 140 l 3
 120 93 153 60 200 60 c 3
 247 60 280 93 280 140 c 3
 280 290 l 3
 280 307 293 320 310 320 c 3
 327 320 340 307 340 290 c 3
 340 -194 l 3
 340 -294 292 -384 192 -384 c 3
EndSplineSet
Validated: 1
Substitution2: "Substitutions 1r1-1" y.1r1
EndChar

StartChar: y.0x1
Encoding: 57656 57656 132
Width: 400
VWidth: 0
Flags: W
HStem: -384 60<119.578 224.477> 0 60<124.046 236.415 320.847 378.894> 300 20G<61.5 78.5 281.5 298.5>
VStem: 40 60<-305.652 -204.026 84.375 318.894> 260 60<-286.362 -0.732422 83.7164 318.894>
DStem2: 80 -162 122 -204 0.810792 0.585335<-31.363 156.49>
LayerCount: 2
Fore
SplineSet
180 0 m 3
 100 0 40 60 40 140 c 3
 40 290 l 3
 40 307 53 320 70 320 c 3
 87 320 100 307 100 290 c 27
 100 140 l 3
 100 93 133 60 180 60 c 3
 227 60 260 93 260 140 c 3
 260 290 l 3
 260 307 273 320 290 320 c 3
 307 320 320 307 320 290 c 3
 320 56 l 1
 329 59 339 60 350 60 c 3
 367 60 380 47 380 30 c 3
 380 13 367 0 350 0 c 3
 330 0 320 -10 320 -30 c 3
 320 -194 l 3
 320 -294 272 -384 172 -384 c 3
 92 -384 40 -324 40 -244 c 3
 40 -211 58 -184 80 -162 c 0
 110 -132 148 -124 168 -104 c 0
 188 -84 199 -74 210 -74 c 3
 227 -74 240 -87 240 -104 c 3
 240 -115 230 -126 210 -146 c 0
 180 -176 142 -184 122 -204 c 0
 112 -214 100 -229 100 -244 c 3
 100 -291 123 -324 170 -324 c 3
 237 -324 260 -261 260 -194 c 3
 260 24 l 1
 238 9 210 0 180 0 c 3
EndSplineSet
Validated: 1
AlternateSubs2: "Substitutions 1x1-1" y.1x1
Substitution2: "Substitutions 1r1-1" y.1r1
EndChar

StartChar: y.1x1
Encoding: 57720 57720 133
Width: 440
VWidth: 0
Flags: W
HStem: -384 60<159.578 264.477> 0 60<-78.8936 32.2188 163.672 276.415 360.847 418.894> 300 20G<101.5 118.5 321.5 338.5>
VStem: 80 60<-305.652 -204.026 102.339 318.894> 300 60<-286.362 -0.732422 83.7164 318.894>
DStem2: 120 -162 162 -204 0.810792 0.585335<-31.363 156.49>
LayerCount: 2
Fore
SplineSet
220 0 m 3
 170 0 128 24 103 61 c 1
 56 17 6 0 -50 0 c 3
 -67 0 -80 13 -80 30 c 3
 -80 47 -67 60 -50 60 c 3
 7 60 40 82 70 112 c 0
 74 116 77 120 80 123 c 1
 80 290 l 3
 80 307 93 320 110 320 c 3
 127 320 140 307 140 290 c 27
 140 140 l 3
 140 93 173 60 220 60 c 3
 267 60 300 93 300 140 c 3
 300 290 l 3
 300 307 313 320 330 320 c 3
 347 320 360 307 360 290 c 3
 360 56 l 1
 369 59 379 60 390 60 c 3
 407 60 420 47 420 30 c 3
 420 13 407 0 390 0 c 3
 370 0 360 -10 360 -30 c 3
 360 -194 l 3
 360 -294 312 -384 212 -384 c 3
 132 -384 80 -324 80 -244 c 3
 80 -211 98 -184 120 -162 c 0
 150 -132 188 -124 208 -104 c 0
 228 -84 239 -74 250 -74 c 3
 267 -74 280 -87 280 -104 c 3
 280 -115 270 -126 250 -146 c 0
 220 -176 182 -184 162 -204 c 0
 152 -214 140 -229 140 -244 c 3
 140 -291 163 -324 210 -324 c 3
 277 -324 300 -261 300 -194 c 3
 300 24 l 1
 278 9 250 0 220 0 c 3
EndSplineSet
Validated: 1
EndChar

StartChar: y.1x0
Encoding: 57688 57688 134
Width: 420
VWidth: 0
Flags: W
HStem: -384 60<159.578 264.477> 0 60<-78.8936 32.2188 163.672 276.415> 300 20G<101.5 118.5 321.5 338.5>
VStem: 80 60<-305.652 -204.026 102.339 318.894> 300 60<-286.362 24 83.7164 318.894>
DStem2: 120 -162 162 -204 0.810792 0.585335<-31.363 156.49>
LayerCount: 2
Fore
SplineSet
220 0 m 3
 170 0 128 23 103 61 c 1
 56 18 6 0 -50 0 c 3
 -67 0 -80 13 -80 30 c 3
 -80 47 -67 60 -50 60 c 3
 7 60 40 82 70 112 c 0
 74 116 77 120 80 123 c 1
 80 290 l 3
 80 307 93 320 110 320 c 3
 127 320 140 307 140 290 c 3
 140 140 l 3
 140 93 173 60 220 60 c 3
 267 60 300 93 300 140 c 3
 300 290 l 3
 300 307 313 320 330 320 c 3
 347 320 360 307 360 290 c 3
 360 -194 l 3
 360 -294 312 -384 212 -384 c 3
 132 -384 80 -324 80 -244 c 3
 80 -211 98 -184 120 -162 c 0
 150 -132 188 -124 208 -104 c 0
 228 -84 239 -74 250 -74 c 3
 267 -74 280 -87 280 -104 c 3
 280 -115 270 -126 250 -146 c 0
 220 -176 182 -184 162 -204 c 0
 152 -214 140 -229 140 -244 c 3
 140 -291 163 -324 210 -324 c 3
 277 -324 300 -261 300 -194 c 3
 300 24 l 1
 278 9 250 0 220 0 c 3
EndSplineSet
Validated: 1
AlternateSubs2: "Substitutions 1x1-1" y.1x1
EndChar

StartChar: v.0o1
Encoding: 57749 57749 135
Width: 510
VWidth: 0
Flags: W
HStem: 0 60<103.238 179.651> 260 60<421.021 488.894>
VStem: 40 60<63.7054 258.894>
DStem2: 180 82 222 40 0.707107 0.707107<-43.3031 344.356>
LayerCount: 2
Fore
SplineSet
140 0 m 3
 80 0 40 40 40 100 c 3
 40 230 l 3
 40 247 53 260 70 260 c 3
 87 260 100 247 100 230 c 3
 100 210 100 120 100 100 c 3
 100 73 113 60 140 60 c 3
 156 60 172 74 180 82 c 0
 200 102 368 270 388 290 c 0
 404 306 427 320 460 320 c 3
 477 320 490 307 490 290 c 3
 490 273 477 260 460 260 c 3
 449 260 438 256 430 248 c 0
 410 228 242 60 222 40 c 0
 206 24 180 0 140 0 c 3
EndSplineSet
Validated: 1
Substitution2: "Substitutions 1s1-1" v.1s1
Substitution2: "Substitutions 1o1-1" v.1o1
EndChar

StartChar: v.1o0
Encoding: 57781 57781 136
Width: 470
VWidth: 0
Flags: W
HStem: 0 60<103.238 179.651> 260 60<-78.8936 38.3579> 270 20G<394.5 408.5>
VStem: 40 60<63.7054 258.358>
DStem2: 180 82 222 40 0.707107 0.707107<-43.3031 302.272>
LayerCount: 2
Fore
SplineSet
140 0 m 3xd0
 80 0 40 40 40 100 c 3
 40 230 l 3
 40 250 30 260 10 260 c 3
 -50 260 l 3xd0
 -67 260 -80 273 -80 290 c 3xb0
 -80 307 -67 320 -50 320 c 3
 10 320 l 3xd0
 64 320 100 284 100 230 c 3
 100 210 100 120 100 100 c 3
 100 73 113 60 140 60 c 3
 156 60 172 74 180 82 c 0
 200 102 340 242 360 262 c 0
 378 280 389 290 400 290 c 3xb0
 417 290 430 277 430 260 c 3
 430 249 420 238 402 220 c 0
 382 200 242 60 222 40 c 0
 206 24 180 0 140 0 c 3xd0
EndSplineSet
Validated: 1
Substitution2: "Substitutions 1o1-1" v.1o1
EndChar

StartChar: v.1o1
Encoding: 57813 57813 137
Width: 510
VWidth: 0
Flags: W
HStem: 0 60<103.238 179.651> 260 60<-78.8936 38.3579 421.021 488.894>
VStem: 40 60<63.7054 258.358>
DStem2: 180 82 222 40 0.707107 0.707107<-43.3031 344.356>
LayerCount: 2
Fore
SplineSet
140 0 m 3
 80 0 40 40 40 100 c 3
 40 230 l 3
 40 250 30 260 10 260 c 3
 -50 260 l 3
 -67 260 -80 273 -80 290 c 3
 -80 307 -67 320 -50 320 c 3
 10 320 l 3
 64 320 100 284 100 230 c 3
 100 210 100 120 100 100 c 3
 100 73 113 60 140 60 c 3
 156 60 172 74 180 82 c 0
 200 102 368 270 388 290 c 0
 404 306 427 320 460 320 c 3
 477 320 490 307 490 290 c 3
 490 273 477 260 460 260 c 3
 449 260 438 256 430 248 c 0
 410 228 242 60 222 40 c 0
 206 24 180 0 140 0 c 3
EndSplineSet
Validated: 1
EndChar

StartChar: w.0o1
Encoding: 57750 57750 138
Width: 720
VWidth: 0
Flags: W
HStem: 0 60<103.238 179.651 313.048 389.651> 260 60<631.021 698.894>
VStem: 40 60<63.7054 258.894>
DStem2: 180 82 222 40 0.707107 0.707107<-43.3031 43.8406> 390 82 432 40 0.707107 0.707107<-43.3031 344.356>
LayerCount: 2
Fore
SplineSet
140 0 m 3
 80 0 40 40 40 100 c 0
 40 230 l 3
 40 247 53 260 70 260 c 3
 87 260 100 247 100 230 c 0
 100 230 100 120 100 100 c 3
 100 73 113 60 140 60 c 3
 156 60 172 74 180 82 c 0
 200 102 220 122 240 142 c 0
 258 160 263 170 280 170 c 3
 297 170 310 157 310 140 c 3
 310 120 310 120 310 100 c 3
 310 73 323 60 350 60 c 3
 366 60 382 74 390 82 c 0
 410 102 578 270 598 290 c 0
 614 306 637 320 670 320 c 3
 687 320 700 307 700 290 c 3
 700 273 687 260 670 260 c 3
 659 260 648 256 640 248 c 0
 620 228 452 60 432 40 c 0
 416 24 390 0 350 0 c 3
 300 0 264 27 253 71 c 1
 222 40 l 0
 206 24 180 0 140 0 c 3
EndSplineSet
Validated: 1
Substitution2: "Substitutions 1s1-1" w.1s1
Substitution2: "Substitutions 1o1-1" w.1o1
EndChar

StartChar: w.1o0
Encoding: 57782 57782 139
Width: 680
VWidth: 0
Flags: W
HStem: 0 60<103.238 179.651 313.048 389.651> 260 60<-78.8936 38.3579> 270 20G<604.5 618.5>
VStem: 40 60<63.7054 258.358>
DStem2: 180 82 222 40 0.707107 0.707107<-43.3031 43.8406> 390 82 432 40 0.707107 0.707107<-43.3031 302.272>
LayerCount: 2
Fore
SplineSet
140 0 m 3xd0
 80 0 40 40 40 100 c 3
 40 230 l 3
 40 250 30 260 10 260 c 3
 -50 260 l 3xd0
 -67 260 -80 273 -80 290 c 3xb0
 -80 307 -67 320 -50 320 c 3
 10 320 l 3xd0
 64 320 100 284 100 230 c 3
 100 230 100 120 100 100 c 3
 100 73 113 60 140 60 c 3
 156 60 172 74 180 82 c 0
 200 102 220 122 240 142 c 0
 258 160 263 170 280 170 c 3
 297 170 310 157 310 140 c 3
 310 120 310 120 310 100 c 3
 310 73 323 60 350 60 c 3
 366 60 382 74 390 82 c 0
 410 102 550 242 570 262 c 0
 588 280 599 290 610 290 c 3xb0
 627 290 640 277 640 260 c 3
 640 249 630 238 612 220 c 0
 592 200 452 60 432 40 c 0
 416 24 390 0 350 0 c 3
 300 0 264 27 253 71 c 1
 222 40 l 0
 206 24 180 0 140 0 c 3xd0
EndSplineSet
Validated: 1
Substitution2: "Substitutions 1o1-1" w.1o1
EndChar

StartChar: w.1o1
Encoding: 57814 57814 140
Width: 720
VWidth: 0
Flags: W
HStem: 0 60<103.238 179.651 313.048 389.651> 260 60<-78.8936 38.3579 631.021 698.894>
VStem: 40 60<63.7054 258.98>
DStem2: 180 82 222 40 0.707107 0.707107<-43.3031 43.8406> 390 82 432 40 0.707107 0.707107<-43.3031 344.356>
LayerCount: 2
Fore
SplineSet
140 0 m 3
 80 0 40 40 40 100 c 3
 40 230 l 3
 40 250 27 260 10 260 c 3
 -50 260 l 3
 -67 260 -80 273 -80 290 c 3
 -80 307 -67 320 -50 320 c 3
 10 320 l 3
 64 320 100 280 100 230 c 3
 100 230 100 120 100 100 c 3
 100 73 113 60 140 60 c 3
 156 60 172 74 180 82 c 0
 200 102 220 122 240 142 c 0
 258 160 263 170 280 170 c 3
 297 170 310 157 310 140 c 3
 310 120 310 120 310 100 c 3
 310 73 323 60 350 60 c 3
 366 60 382 74 390 82 c 0
 410 102 578 270 598 290 c 0
 614 306 637 320 670 320 c 3
 687 320 700 307 700 290 c 3
 700 273 687 260 670 260 c 3
 659 260 648 256 640 248 c 0
 620 228 452 60 432 40 c 0
 416 24 390 0 350 0 c 3
 300 0 264 27 253 71 c 1
 222 40 l 0
 206 24 180 0 140 0 c 3
EndSplineSet
Validated: 1
EndChar

StartChar: x.1x0
Encoding: 57687 57687 141
Width: 580
VWidth: 10
Flags: W
HStem: -0 60<-78.8936 -11.2227> 300 20G<234.5 255.5 504.5 518.5>
DStem2: -10 82 32 40 0.707107 0.707107<-76.8488 300.543> 292 290 245 253 0.707107 -0.707107<-6.38617 124.451 183.848 358.84> 250 72 292 30 0.707107 0.707107<-50.5419 124.451 183.848 358.84>
LayerCount: 2
Fore
SplineSet
380 118 m 1
 336 74 296 34 292 30 c 1
 272 10 261 0 250 0 c 1
 233 0 220 13 220 30 c 3
 220 41 230 52 250 72 c 0
 338 160 l 1
 245 253 l 0
 32 40 l 0
 14 22 -10 0 -50 -0 c 3
 -67 0 -80 13 -80 30 c 3
 -80 47 -67 60 -50 60 c 3
 -33 60 -20 72 -10 82 c 0
 37 129 193 286 198 290 c 0
 218 310 229 320 240 320 c 3
 242 320 248 320 250 320 c 3
 261 320 272 310 292 290 c 0
 296 286 336 246 380 202 c 1
 468 290 l 0
 488 310 499 320 510 320 c 3
 527 320 540 307 540 290 c 3
 540 279 530 268 510 248 c 0
 506 244 462 200 422 160 c 1
 462 120 506 76 510 72 c 0
 530 52 540 41 540 30 c 3
 540 13 527 0 510 0 c 3
 499 0 488 10 468 30 c 0
 380 118 l 1
EndSplineSet
Validated: 1
EndChar

StartChar: x.1o0
Encoding: 57783 57783 142
Width: 420
VWidth: 10
Flags: W
HStem: 0 21G<81.5 95.5 344.5 358.5> 260 60<-78.8936 99.625>
DStem2: 90 72 132 30 0.707107 0.707107<-50.5419 124.451 183.848 358.84> 220 202 178 160 0.707107 -0.707107<-162.436 0 59.397 234.39>
LayerCount: 2
Fore
SplineSet
58 320 m 3
 87 320 113 309 132 290 c 0
 136 286 176 246 220 202 c 1
 308 290 l 0
 328 310 339 320 350 320 c 3
 367 320 380 307 380 290 c 3
 380 279 370 268 350 248 c 0
 346 244 302 200 262 160 c 1
 302 120 346 76 350 72 c 0
 370 52 380 41 380 30 c 3
 380 13 367 0 350 0 c 3
 339 0 328 10 308 30 c 0
 220 118 l 1
 176 74 136 34 132 30 c 0
 112 10 101 0 90 0 c 3
 73 0 60 13 60 30 c 3
 60 41 70 52 90 72 c 0
 178 160 l 1
 90 248 l 0
 82 256 71 260 58 260 c 3
 -50 260 l 3
 -67 260 -80 273 -80 290 c 3
 -80 307 -67 320 -50 320 c 3
 58 320 l 3
EndSplineSet
Validated: 1
EndChar

StartChar: z.0x1
Encoding: 57657 57657 143
Width: 420
VWidth: 0
Flags: W
HStem: -384 60<139.578 244.477> 0 60<341.271 398.894> 260 60<146.109 269.547>
VStem: 60 60<-305.652 -204.026> 80 60<179.877 253.891> 280 60<-286.362 -14.2603 160.349 249.822>
DStem2: 100 -162 142 -204 0.810792 0.585335<-31.363 156.49> 168 70 240 58 0.707107 0.707107<42.4264 170.582>
LayerCount: 2
Fore
SplineSet
192 -384 m 3xec
 112 -384 60 -324 60 -244 c 3
 60 -211 78 -184 100 -162 c 0
 130 -132 168 -124 188 -104 c 0
 208 -84 219 -74 230 -74 c 3
 247 -74 260 -87 260 -104 c 3
 260 -115 250 -126 230 -146 c 0
 200 -176 162 -184 142 -204 c 0
 132 -214 120 -229 120 -244 c 3xf4
 120 -291 143 -324 190 -324 c 3
 257 -324 280 -261 280 -194 c 3
 280 -70 l 3
 280 -23 257 0 210 0 c 3
 210 0 190 0 170 0 c 3
 153 0 140 13 140 30 c 3
 140 48 150 52 168 70 c 0
 188 90 238 140 258 160 c 0
 266 168 280 184 280 200 c 3
 280 240 260 260 220 260 c 3
 180 260 l 3
 160 260 140 240 140 220 c 3
 140 187 126 164 110 148 c 0
 92 130 81 120 70 120 c 3
 53 120 40 133 40 150 c 3
 40 161 50 172 68 190 c 0
 76 198 80 209 80 220 c 3
 80 274 126 320 180 320 c 3
 180 320 200 320 220 320 c 3
 293 320 340 273 340 200 c 3
 340 160 316 134 300 118 c 0
 240 58 l 1
 264 54 284 44 300 30 c 1
 316 49 340 60 370 60 c 3
 387 60 400 47 400 30 c 3
 400 13 387 0 370 0 c 3
 350 0 340 -10 340 -30 c 3
 340 -194 l 3
 340 -294 292 -384 192 -384 c 3xec
EndSplineSet
Validated: 1
AlternateSubs2: "Substitutions 1x1-1" z.1x1
Substitution2: "Substitutions 1r1-1" z.1r1
EndChar

StartChar: z.1x0
Encoding: 57689 57689 144
Width: 400
VWidth: 0
Flags: W
HStem: -384 60<139.578 244.477> 0 60<-78.8936 -10.0491> 260 60<146.109 269.547>
VStem: 60 60<-305.652 -204.026> 80 60<181.021 253.891> 280 60<-286.362 -14.2603 160.349 249.822>
DStem2: 100 -162 142 -204 0.810792 0.585335<-31.363 156.49> 168 70 240 58 0.707107 0.707107<42.4264 170.582>
LayerCount: 2
Fore
SplineSet
192 -384 m 3xec
 112 -384 60 -324 60 -244 c 3
 60 -211 78 -184 100 -162 c 0
 130 -132 168 -124 188 -104 c 0
 208 -84 219 -74 230 -74 c 3
 247 -74 260 -87 260 -104 c 3
 260 -115 250 -126 230 -146 c 0
 200 -176 162 -184 142 -204 c 0
 132 -214 120 -229 120 -244 c 3xf4
 120 -291 143 -324 190 -324 c 3
 257 -324 280 -261 280 -194 c 3
 280 -194 280 -118 280 -70 c 19
 280 -23 257 0 210 0 c 0
 210 0 190 0 170 0 c 3
 153 0 140 13 140 30 c 3
 140 48 150 52 168 70 c 0
 188 90 238 140 258 160 c 0
 266 168 280 184 280 200 c 3
 280 240 260 260 220 260 c 3
 180 260 l 3
 160 260 140 240 140 220 c 3
 140 187 126 164 110 148 c 0
 107 145 93 131 90 128 c 0
 70 108 62 70 32 40 c 0
 10 18 -17 0 -50 0 c 11
 -67 0 -80 13 -80 30 c 3
 -80 47 -67 60 -50 60 c 3
 -35 60 -20 72 -10 82 c 0
 10 102 18 140 48 170 c 0
 52 174 65 187 68 190 c 0
 76 198 80 209 80 220 c 3
 80 274 126 320 180 320 c 3
 180 320 200 320 220 320 c 3
 293 320 340 273 340 200 c 3
 340 160 316 134 300 118 c 0
 240 58 l 1
 303 47 340 0 340 -70 c 0
 340 -70 340 -174 340 -194 c 3
 340 -294 292 -384 192 -384 c 3xec
EndSplineSet
Validated: 1
AlternateSubs2: "Substitutions 1x1-1" z.1x1
EndChar

StartChar: z.1x1
Encoding: 57721 57721 145
Width: 420
VWidth: 0
Flags: W
HStem: -384 60<139.578 244.477> 0 60<-78.8936 -10.0491 341.271 398.894> 260 60<146.109 269.547>
VStem: 60 60<-305.652 -204.026> 80 60<181.021 253.891> 280 60<-286.362 -14.2603 160.349 249.822>
DStem2: 100 -162 142 -204 0.810792 0.585335<-31.363 156.49> 168 70 240 58 0.707107 0.707107<42.4264 170.582>
LayerCount: 2
Fore
SplineSet
192 -384 m 3xec
 112 -384 60 -324 60 -244 c 3
 60 -211 78 -184 100 -162 c 0
 130 -132 168 -124 188 -104 c 0
 208 -84 219 -74 230 -74 c 3
 247 -74 260 -87 260 -104 c 3
 260 -115 250 -126 230 -146 c 0
 200 -176 162 -184 142 -204 c 0
 132 -214 120 -229 120 -244 c 3xf4
 120 -291 143 -324 190 -324 c 3
 257 -324 280 -261 280 -194 c 3
 280 -70 l 3
 280 -23 257 0 210 0 c 0
 210 0 190 0 170 0 c 3
 153 0 140 13 140 30 c 3
 140 48 150 52 168 70 c 0
 188 90 238 140 258 160 c 0
 266 168 280 184 280 200 c 3
 280 240 260 260 220 260 c 3
 180 260 l 3
 160 260 140 240 140 220 c 3
 140 187 126 164 110 148 c 0
 107 145 93 131 90 128 c 0
 70 108 62 70 32 40 c 0
 10 18 -17 0 -50 0 c 11
 -67 0 -80 13 -80 30 c 3
 -80 47 -67 60 -50 60 c 3
 -35 60 -20 72 -10 82 c 0
 10 102 18 140 48 170 c 0
 51 173 65 187 68 190 c 0
 76 198 80 209 80 220 c 3
 80 274 126 320 180 320 c 3
 180 320 200 320 220 320 c 3
 293 320 340 273 340 200 c 3
 340 160 316 134 300 118 c 0
 240 58 l 1
 264 54 284 44 300 30 c 1
 316 49 340 60 370 60 c 3
 387 60 400 47 400 30 c 3
 400 13 387 0 370 0 c 3
 350 0 340 -10 340 -30 c 0
 340 -194 l 3
 340 -294 292 -384 192 -384 c 3xec
EndSplineSet
Validated: 1
EndChar

StartChar: z.1o0
Encoding: 57785 57785 146
Width: 400
VWidth: 0
Flags: W
HStem: -384 60<139.578 244.477> 260 60<-78.8936 74.1562> 320 60<115.844 278.406>
VStem: 60 60<-305.652 -204.026> 280 60<-286.362 -14.2603 160.695 315.45>
DStem2: 100 -162 142 -204 0.810792 0.585335<-31.363 156.49> 168 70 240 58 0.707107 0.707107<42.4264 179.787>
LayerCount: 2
Fore
SplineSet
192 -384 m 3xb8
 112 -384 60 -324 60 -244 c 3
 60 -211 78 -184 100 -162 c 0
 130 -132 168 -124 188 -104 c 0
 208 -84 219 -74 230 -74 c 3
 247 -74 260 -87 260 -104 c 3
 260 -115 250 -126 230 -146 c 0
 200 -176 162 -184 142 -204 c 0
 132 -214 120 -229 120 -244 c 3
 120 -291 143 -324 190 -324 c 3
 257 -324 280 -261 280 -194 c 3
 280 -194 280 -118 280 -70 c 19
 280 -23 257 0 210 0 c 0
 210 0 190 0 170 0 c 3
 153 0 140 13 140 30 c 3
 140 48 150 52 168 70 c 0
 188 90 238 140 258 160 c 0
 266 168 280 183 280 200 c 3
 280 290 l 3
 280 310 260 320 240 320 c 27
 205 320 173 320 150 320 c 3xb8
 120 320 100 260 40 260 c 0
 -50 260 l 3
 -67 260 -80 273 -80 290 c 3
 -80 307 -67 320 -50 320 c 3
 -40 320 -15 320 40 320 c 3xd8
 70 320 90 380 150 380 c 3
 240 380 l 3
 294 380 340 342 340 290 c 27
 340 200 l 3
 340 160 316 134 300 118 c 0
 240 58 l 1
 303 47 340 0 340 -70 c 0
 340 -70 340 -174 340 -194 c 3
 340 -294 292 -384 192 -384 c 3xb8
EndSplineSet
Validated: 1
Substitution2: "Substitutions 1r1-1" z.1r1
EndChar

StartChar: z.1r1
Encoding: 57849 57849 147
Width: 420
VWidth: 0
Flags: W
HStem: -384 60<139.578 244.477> 0 60<341.271 398.894> 260 60<-78.8936 74.1562> 320 60<115.844 278.406>
VStem: 60 60<-305.652 -204.026> 280 60<-286.362 -14.2603 160.695 315.45>
DStem2: 100 -162 142 -204 0.810792 0.585335<-31.363 156.49> 168 70 240 58 0.707107 0.707107<42.4264 179.787>
LayerCount: 2
Fore
SplineSet
280 200 m 3xdc
 280 290 l 3
 280 310 260 320 240 320 c 27
 205 320 173 320 150 320 c 3xdc
 120 320 100 260 40 260 c 0
 -50 260 l 3
 -67 260 -80 273 -80 290 c 3
 -80 307 -67 320 -50 320 c 3
 -40 320 -15 320 40 320 c 3xec
 70 320 90 380 150 380 c 3
 240 380 l 3
 294 380 340 342 340 290 c 27
 340 200 l 3
 340 160 316 134 300 118 c 0
 240 58 l 1
 264 54 284 44 300 30 c 1
 316 49 340 60 370 60 c 3
 387 60 400 47 400 30 c 3
 400 13 387 0 370 0 c 3
 350 0 340 -10 340 -30 c 0
 340 -194 l 7
 340 -294 292 -384 192 -384 c 3
 112 -384 60 -324 60 -244 c 3
 60 -211 78 -184 100 -162 c 0
 130 -132 168 -124 188 -104 c 0
 208 -84 219 -74 230 -74 c 3
 247 -74 260 -87 260 -104 c 3
 260 -115 250 -126 230 -146 c 0
 200 -176 162 -184 142 -204 c 0
 132 -214 120 -229 120 -244 c 3
 120 -291 143 -324 190 -324 c 3
 257 -324 280 -261 280 -194 c 3
 280 -70 l 3
 280 -23 257 0 210 0 c 0
 210 0 190 0 170 0 c 3
 153 0 140 13 140 30 c 3
 140 48 150 52 168 70 c 0
 188 90 238 140 258 160 c 0
 266 168 280 184 280 200 c 3xdc
EndSplineSet
Validated: 1
EndChar

StartChar: quote_60
Encoding: 57409 57409 150
Width: 140
VWidth: 0
Flags: W
VStem: 40 60<431.106 614.894>
LayerCount: 2
Fore
SplineSet
40 460 m 3
 40 586 l 3
 40 603 53 616 70 616 c 3
 87 616 100 603 100 586 c 3
 100 460 l 3
 100 442 87 430 70 430 c 3
 53 430 40 443 40 460 c 3
EndSplineSet
Validated: 1
EndChar

StartChar: numbersign
Encoding: 35 35 152
Width: 400
VWidth: 0
Flags: W
HStem: 0 21G<121.5 138.5 261.5 278.5> 60 60<41.1064 100 160 240 300 358.894> 200 60<41.1064 100 160 240 300 358.894> 300 20G<121.5 138.5 261.5 278.5>
VStem: 100 60<1.1064 60 120 200 260 318.894> 240 60<1.1064 60 120 200 260 318.894>
LayerCount: 2
Fore
SplineSet
160 120 m 1
 240 120 l 1
 240 200 l 1
 160 200 l 1
 160 120 l 1
160 60 m 25
 160 30 l 3
 160 13 147 0 130 0 c 3
 113 0 100 13 100 30 c 0
 100 60 l 1
 70 60 l 3
 53 60 40 73 40 90 c 3
 40 107 53 120 70 120 c 0
 100 120 l 1
 100 200 l 1
 70 200 l 3
 53 200 40 213 40 230 c 3
 40 247 53 260 70 260 c 0
 100 260 l 1
 100 290 l 3
 100 307 113 320 130 320 c 3
 147 320 160 307 160 290 c 0
 160 260 l 1
 240 260 l 1
 240 290 l 3
 240 307 253 320 270 320 c 3
 287 320 300 307 300 290 c 0
 300 260 l 1
 330 260 l 3
 347 260 360 247 360 230 c 3
 360 213 347 200 330 200 c 0
 300 200 l 1
 300 120 l 1
 330 120 l 3
 347 120 360 107 360 90 c 3
 360 73 347 60 330 60 c 0
 300 60 l 1
 300 30 l 3
 300 13 287 0 270 0 c 3
 253 0 240 13 240 30 c 0
 240 60 l 1
 160 60 l 25
EndSplineSet
Validated: 1
EndChar

StartChar: hyphen_60
Encoding: 57410 57410 153
Width: 400
VWidth: 0
Flags: W
HStem: 0 60<41.1064 358.894>
LayerCount: 2
Fore
SplineSet
330 0 m 3
 70 0 l 3
 53 0 40 13 40 30 c 3
 40 47 53 60 70 60 c 3
 330 60 l 3
 347 60 360 47 360 30 c 3
 360 13 347 0 330 0 c 3
EndSplineSet
Validated: 1
EndChar

StartChar: dollar
Encoding: 36 36 154
Width: 400
VWidth: 0
Flags: W
HStem: 1 61<240 277.068> 260 60<134.463 180>
VStem: 60 60<333.458 435.982> 180 60<-78.8936 4.77051 66 244 320 469 533.074 614.894> 300 60<84.9713 209.026>
CounterMasks: 1 38
LayerCount: 2
Fore
SplineSet
300 140 m 3
 300 185 276 223 240 244 c 1
 240 62 l 1
 274 70 300 100 300 140 c 3
180 469 m 1
 147 451 120 414 120 380 c 3
 120 343 147 320 180 320 c 1
 180 469 l 1
360 140 m 3
 360 67 310 10 240 1 c 1
 240 -50 l 3
 240 -68 227 -80 210 -80 c 3
 193 -80 180 -67 180 -50 c 0
 180 4 l 1
 143 12 107 31 70 68 c 0
 50 88 40 99 40 110 c 3
 40 127 53 140 70 140 c 3
 81 140 92 130 112 110 c 0
 135 87 158 73 180 66 c 1
 180 260 l 1
 110 260 60 310 60 380 c 3
 60 447 111 515 180 534 c 1
 180 586 l 3
 180 603 193 616 210 616 c 3
 227 616 240 603 240 586 c 3
 240 538 l 1
 269 533 294 518 310 502 c 0
 330 482 340 471 340 460 c 3
 340 443 327 430 310 430 c 3
 299 430 288 440 268 460 c 0
 261 467 252 473 240 477 c 1
 240 310 l 1
 310 285 360 218 360 140 c 3
EndSplineSet
Validated: 1
EndChar

StartChar: ampersand
Encoding: 38 38 156
Width: 480
VWidth: 0
Flags: W
HStem: 0 60<154.046 277.01> 480 60<122.18 228.338>
VStem: 40 60<350.238 457.82> 70 60<84.0457 206.271> 240 60<361.186 468.338>
DStem2: 132 340 90 298 0.707107 -0.707107<-64.0635 46.0851 106.066 106.066 346.482 429.551> 165 308 207 265 0.707107 0.707107<-0.164002 127.418> 335 137 377 95 0.707107 0.707107<0 97.2109>
LayerCount: 2
Fore
SplineSet
210 0 m 3xe8
 130 0 70 60 70 140 c 3xd8
 70 189 93 232 123 265 c 1
 90 298 l 0
 60 328 40 349 40 400 c 3
 40 483 97 540 180 540 c 3
 250 540 300 490 300 420 c 3
 300 370 285 343 250 308 c 0
 207 265 l 1
 247 225 296 176 335 137 c 1
 349 151 363 166 368 170 c 0
 388 190 399 200 410 200 c 3
 427 200 440 187 440 170 c 3
 440 159 430 148 410 128 c 0
 377 95 l 1
 390 82 398 74 400 72 c 0
 420 52 430 41 430 30 c 3
 430 13 417 0 400 0 c 3
 389 0 378 10 358 30 c 0
 358 30 344 44 335 53 c 17
 301 19 260 0 210 0 c 3xe8
180 480 m 3
 130 480 100 450 100 400 c 3xe8
 100 370 112 360 132 340 c 0
 134 338 147 326 165 308 c 1
 183 326 203 345 208 350 c 0
 228 370 240 383 240 420 c 3
 240 457 217 480 180 480 c 3
210 60 m 3
 247 60 272 74 293 95 c 1
 165 223 l 1
 144 200 130 172 130 140 c 3xd8
 130 93 163 60 210 60 c 3
EndSplineSet
Validated: 1
EndChar

StartChar: parenleft
Encoding: 40 40 157
Width: 400
VWidth: 0
Flags: W
HStem: -220 60<222.071 318.894> 480 60<254.93 358.894>
VStem: 40 60<9.08596 272.879>
LayerCount: 2
Fore
SplineSet
290 -220 m 3
 130 -220 40 -20 40 140 c 3
 40 320 150 540 330 540 c 3
 347 540 360 527 360 510 c 3
 360 493 347 480 330 480 c 3
 185 480 100 285 100 140 c 3
 100 17 167 -160 290 -160 c 3
 307 -160 320 -173 320 -190 c 3
 320 -207 307 -220 290 -220 c 3
EndSplineSet
Validated: 1
EndChar

StartChar: parenright
Encoding: 41 41 158
Width: 400
VWidth: 0
Flags: W
HStem: -220 60<41.1064 145.07> 480 60<81.1064 177.929>
VStem: 300 60<47.1213 310.914>
LayerCount: 2
Fore
SplineSet
110 540 m 3
 270 540 360 340 360 180 c 3
 360 0 250 -220 70 -220 c 3
 53 -220 40 -207 40 -190 c 3
 40 -173 53 -160 70 -160 c 3
 215 -160 300 35 300 180 c 3
 300 303 233 480 110 480 c 3
 93 480 80 493 80 510 c 3
 80 527 93 540 110 540 c 3
EndSplineSet
Validated: 1
EndChar

StartChar: comma
Encoding: 44 44 159
Width: 280
VWidth: 10
Flags: W
DStem2: 70 -68 112 -110 0.707107 0.707107<-50.5419 189.135>
LayerCount: 2
Fore
SplineSet
210 -12 m 0
 160 -62 122 -100 112 -110 c 0
 92 -130 81 -140 70 -140 c 3
 53 -140 40 -127 40 -110 c 3
 40 -99 50 -88 70 -68 c 0
 80 -58 158 21 168 30 c 0
 188 50 199 60 210 60 c 3
 227 60 240 47 240 30 c 3
 240 19 230 8 210 -12 c 0
EndSplineSet
Validated: 1
EndChar

StartChar: asterisk
Encoding: 42 42 160
Width: 400
VWidth: 0
Flags: W
HStem: 0 21G<191.5 208.5> 130 60<41.1064 128 272 358.894> 300 20G<191.5 208.5>
VStem: 170 60<1.1064 88 232 318.894>
DStem2: 132 270 90 228 0.707107 -0.707107<-50.5419 53.7401 197.99 302.272> 90 92 132 50 0.707107 0.707107<-50.5419 53.7401 197.99 302.272>
LayerCount: 2
Fore
SplineSet
200 0 m 3
 183 0 170 13 170 30 c 0
 170 88 l 1
 132 50 l 0
 112 30 101 20 90 20 c 1
 73 20 60 33 60 50 c 3
 60 61 70 72 90 92 c 0
 128 130 l 1
 70 130 l 3
 53 130 40 143 40 160 c 3
 40 177 53 190 70 190 c 0
 128 190 l 1
 90 228 l 0
 70 248 60 259 60 270 c 3
 60 287 73 300 90 300 c 3
 101 300 112 290 132 270 c 0
 170 232 l 1
 170 290 l 3
 170 307 183 320 200 320 c 3
 217 320 230 307 230 290 c 0
 230 232 l 1
 268 270 l 0
 288 290 299 300 310 300 c 3
 327 300 340 287 340 270 c 3
 340 259 330 248 310 228 c 0
 272 190 l 1
 330 190 l 3
 347 190 360 177 360 160 c 3
 360 143 347 130 330 130 c 0
 272 130 l 1
 310 92 l 0
 330 72 340 61 340 50 c 3
 340 33 327 20 310 20 c 3
 299 20 288 30 268 50 c 0
 230 88 l 1
 230 30 l 3
 230 13 217 0 200 0 c 3
EndSplineSet
Validated: 1
EndChar

StartChar: plus
Encoding: 43 43 161
Width: 400
VWidth: 0
Flags: W
HStem: 0 21G<191.5 208.5> 130 60<41.1064 170 230 358.894> 300 20G<191.5 208.5>
VStem: 170 60<1.1064 130 190 318.894>
LayerCount: 2
Fore
SplineSet
200 0 m 3
 183 0 170 13 170 30 c 0
 170 130 l 1
 70 130 l 3
 53 130 40 143 40 160 c 3
 40 177 53 190 70 190 c 0
 170 190 l 1
 170 290 l 3
 170 307 183 320 200 320 c 3
 217 320 230 307 230 290 c 0
 230 190 l 1
 330 190 l 3
 347 190 360 177 360 160 c 3
 360 143 347 130 330 130 c 0
 230 130 l 1
 230 30 l 3
 230 13 217 0 200 0 c 3
EndSplineSet
Validated: 1
EndChar

StartChar: slash
Encoding: 47 47 163
Width: 620
VWidth: 10
Flags: W
HStem: 0 21G<61.5 75.5> 520 20G<544.5 558.5>
DStem2: 70 72 112 30 0.707107 0.707107<-50.5419 669.967>
LayerCount: 2
Fore
SplineSet
550 468 m 0
 500 418 122 40 112 30 c 0
 92 10 81 0 70 0 c 3
 53 0 40 13 40 30 c 3
 40 41 50 52 70 72 c 0
 80 82 498 501 508 510 c 0
 528 530 539 540 550 540 c 3
 567 540 580 527 580 510 c 3
 580 499 570 488 550 468 c 0
EndSplineSet
Validated: 1
EndChar

StartChar: zero
Encoding: 48 48 164
Width: 580
VWidth: 0
Flags: W
HStem: 0 60<209.502 335.773> 480 60<264.227 390.498>
VStem: 100 60<175.572 341.109> 440 60<198.891 364.428>
DStem2: 60 72 102 30 0.707107 0.707107<-50.5419 55.1543 145.664 473.762 564.271 669.967>
LayerCount: 2
Fore
SplineSet
260 0 m 3
 209 0 169 28 141 69 c 1
 102 30 l 0
 82 10 71 0 60 0 c 3
 43 0 30 13 30 30 c 3
 30 41 40 52 60 72 c 0
 62 74 83 95 114 126 c 1
 105 153 100 182 100 210 c 3
 100 370 180 540 340 540 c 3
 391 540 431 512 459 471 c 1
 482 494 496 508 498 510 c 0
 518 530 529 540 540 540 c 3
 557 540 570 527 570 510 c 3
 570 499 560 488 540 468 c 0
 486 414 l 1
 495 387 500 358 500 330 c 3
 500 170 420 0 260 0 c 3
340 480 m 3
 216 480 160 334 160 210 c 3
 160 199 161 187 163 175 c 1
 240 252 343 356 415 427 c 1
 398 457 373 480 340 480 c 3
260 60 m 3
 384 60 440 206 440 330 c 3
 440 341 439 353 437 365 c 1
 185 113 l 1
 202 83 227 60 260 60 c 3
EndSplineSet
Validated: 1
EndChar

StartChar: one
Encoding: 49 49 165
Width: 300
VWidth: 0
Flags: W
HStem: 0 21G<201.5 218.5> 520 20G<201.5 218.5>
VStem: 180 60<1.1064 438>
DStem2: 70 412 112 370 0.707107 0.707107<-50.5419 96.1665>
LayerCount: 2
Fore
SplineSet
210 0 m 3
 193 0 180 13 180 30 c 0
 180 30 180 279 180 438 c 17
 160 418 122 380 112 370 c 0
 92 350 81 340 70 340 c 3
 53 340 40 353 40 370 c 3
 40 381 50 392 70 412 c 0
 168 510 l 0
 188 530 193 540 210 540 c 3
 227 540 240 527 240 510 c 3
 240 500 240 40 240 30 c 3
 240 13 227 0 210 0 c 3
EndSplineSet
Validated: 1
EndChar

StartChar: two
Encoding: 50 50 166
Width: 400
VWidth: 10
Flags: W
HStem: 0 60<131.642 368.894> 480 60<122.657 251.163>
VStem: 70 60<61.1873 129.651> 280 60<327.549 451.163>
DStem2: 110 172 152 130 0.707107 0.707107<-43.3031 259.326>
LayerCount: 2
Fore
SplineSet
110 172 m 0
 120 182 228 291 238 300 c 0
 255 317 280 360 280 380 c 3
 280 447 247 480 180 480 c 3
 160 480 127 465 110 448 c 0
 92 430 81 420 70 420 c 3
 53 420 40 433 40 450 c 3
 40 461 50 472 68 490 c 0
 98 520 143 540 180 540 c 3
 279 540 340 479 340 380 c 3
 340 340 310 288 280 258 c 0
 230 208 162 140 152 130 c 0
 144 122 130 106 130 90 c 3
 130 70 140 60 160 60 c 3
 180 60 320 60 340 60 c 3
 357 60 370 47 370 30 c 3
 370 13 357 0 340 0 c 11
 270 0 180 0 160 0 c 3
 106 0 70 36 70 90 c 3
 70 130 94 156 110 172 c 0
EndSplineSet
Validated: 1
EndChar

StartChar: three
Encoding: 51 51 167
Width: 400
VWidth: 10
Flags: W
HStem: 0 60<122.657 247.807> 260 60<191.106 265.967> 480 60<122.657 251.163>
VStem: 280 60<333.805 451.163> 300 60<112.193 236.31>
LayerCount: 2
Fore
SplineSet
180 0 m 3xe8
 143 0 98 20 68 50 c 0
 50 68 40 79 40 90 c 3
 40 107 53 120 70 120 c 3
 81 120 92 110 110 92 c 0
 127 75 160 60 180 60 c 3
 247 60 300 113 300 180 c 3xe8
 300 227 267 260 220 260 c 3
 203 260 190 273 190 290 c 3
 190 307 203 320 220 320 c 3
 253 320 280 347 280 380 c 3
 280 447 247 480 180 480 c 3
 160 480 127 465 110 448 c 0
 92 430 81 420 70 420 c 3
 53 420 40 433 40 450 c 3
 40 461 50 472 68 490 c 0
 98 520 143 540 180 540 c 3
 279 540 340 479 340 380 c 3xf0
 340 346 325 316 303 294 c 1
 338 269 360 228 360 180 c 3
 360 81 279 0 180 0 c 3xe8
EndSplineSet
Validated: 1
EndChar

StartChar: four
Encoding: 52 52 168
Width: 440
VWidth: 0
Flags: W
HStem: 0 21G<281.5 298.5> 140 60<124.375 260 320 398.894> 300 20G<281.5 298.5> 520 20G<244.5 258.5>
VStem: 40 60<224.046 332.451> 260 60<1.1064 140 200 318.894>
DStem2: 100 402 142 360 0.707107 0.707107<-78.3065 203.277>
LayerCount: 2
Fore
SplineSet
180 140 m 3
 100 140 40 200 40 280 c 3
 40 320 70 372 100 402 c 0
 110 412 198 500 208 510 c 0
 228 530 239 540 250 540 c 3
 267 540 280 527 280 510 c 3
 280 499 270 488 250 468 c 0
 240 458 152 370 142 360 c 0
 125 343 100 300 100 280 c 3
 100 233 133 200 180 200 c 3
 260 200 l 1
 260 290 l 3
 260 307 273 320 290 320 c 3
 307 320 320 307 320 290 c 0
 320 200 l 1
 370 200 l 19
 387 200 400 187 400 170 c 3
 400 153 387 140 370 140 c 3
 320 140 l 1
 320 30 l 3
 320 13 307 0 290 0 c 3
 273 0 260 13 260 30 c 0
 260 140 l 1
 180 140 l 3
EndSplineSet
Validated: 1
EndChar

StartChar: five
Encoding: 53 53 169
Width: 400
VWidth: 0
Flags: W
HStem: 0 60<122.657 247.807> 280 60<150 269.207> 480 60<150 358.894>
VStem: 90 60<340 480> 300 60<112.193 251.163>
LayerCount: 2
Fore
SplineSet
200 280 m 11
 120 280 l 3
 103 280 90 293 90 310 c 27
 90 510 l 3
 90 527 103 540 120 540 c 11
 330 540 l 3
 347 540 360 527 360 510 c 3
 360 493 347 480 330 480 c 27
 150 480 l 1
 150 340 l 1
 150 340 180 340 200 340 c 27
 288 340 360 279 360 180 c 3
 360 81 279 0 180 0 c 3
 143 0 98 20 68 50 c 0
 50 68 40 79 40 90 c 3
 40 107 53 120 70 120 c 3
 81 120 92 110 110 92 c 0
 127 75 160 60 180 60 c 3
 247 60 300 113 300 180 c 3
 300 247 267 280 200 280 c 11
EndSplineSet
Validated: 1
EndChar

StartChar: six
Encoding: 54 54 170
Width: 440
VWidth: 0
Flags: W
HStem: 0 60<124.046 247.807> 260 60<222 276.284>
VStem: 40 60<84.0457 209.004> 300 60<112.193 235.673>
DStem2: 100 282 222 320 0.707107 0.707107<113.137 372.983>
LayerCount: 2
Fore
SplineSet
180 0 m 3
 100 0 40 60 40 140 c 3
 40 200 70 252 100 282 c 0
 110 292 318 500 328 510 c 0
 348 530 359 540 370 540 c 3
 387 540 400 527 400 510 c 3
 400 499 390 488 370 468 c 0
 222 320 l 1
 301 319 360 259 360 180 c 3
 360 81 279 0 180 0 c 3
180 60 m 3
 247 60 300 113 300 180 c 3
 300 227 267 260 220 260 c 3
 153 260 100 207 100 140 c 3
 100 93 133 60 180 60 c 3
EndSplineSet
Validated: 1
EndChar

StartChar: seven
Encoding: 55 55 171
Width: 460
VWidth: 0
Flags: W
HStem: 0 21G<61.5 75.5> 480 60<101.106 335.625>
VStem: 360 60<347.549 455.322>
DStem2: 70 72 112 30 0.707107 0.707107<-50.5419 429.031>
LayerCount: 2
Fore
SplineSet
280 540 m 3
 360 540 420 477 420 400 c 19
 420 360 390 308 360 278 c 0
 350 268 122 40 112 30 c 0
 92 10 81 0 70 0 c 3
 53 0 40 13 40 30 c 3
 40 41 50 52 70 72 c 0
 80 82 308 310 318 320 c 0
 335 337 360 380 360 400 c 3
 360 447 327 480 280 480 c 3
 280 480 188 480 130 480 c 19
 113 480 100 493 100 510 c 3
 100 527 113 540 130 540 c 3
 280 540 l 3
EndSplineSet
Validated: 1
EndChar

StartChar: eight
Encoding: 56 56 172
Width: 400
VWidth: 0
Flags: W
HStem: 0 60<124.046 247.807> 260 60<152.588 263.409> 480 60<157.592 267.901>
VStem: 40 60<84.0457 209.001> 70 60<341.426 452.408> 290 60<346.145 457.901> 300 60<112.193 236.714>
LayerCount: 2
Fore
SplineSet
180 0 m 3xe2
 100 0 40 60 40 140 c 3xf2
 40 202 72 256 119 289 c 1
 89 313 70 350 70 390 c 3
 70 480 130 540 220 540 c 3
 290 540 350 480 350 410 c 3xec
 350 361 332 321 302 295 c 1
 338 270 360 229 360 180 c 3
 360 81 279 0 180 0 c 3xe2
180 60 m 3
 247 60 300 113 300 180 c 3
 300 227 267 260 220 260 c 3
 153 260 100 207 100 140 c 3
 100 93 133 60 180 60 c 3
200 320 m 3
 257 320 290 353 290 410 c 3
 290 447 257 480 220 480 c 3
 163 480 130 447 130 390 c 3xec
 130 353 163 320 200 320 c 3
EndSplineSet
Validated: 1
EndChar

StartChar: nine
Encoding: 57 57 173
Width: 420
VWidth: 0
Flags: W
HStem: 0 60<122.657 247.807> 220 60<124.046 249.404> 480 60<152.193 275.954>
VStem: 40 60<304.046 427.807> 300 60<114.168 266 330.218 455.625>
LayerCount: 2
Fore
SplineSet
180 220 m 3
 100 220 40 280 40 360 c 3
 40 459 121 540 220 540 c 3
 300 540 360 480 360 400 c 3
 360 390 360 190 360 180 c 3
 360 81 279 0 180 0 c 3
 143 0 98 20 68 50 c 0
 50 68 40 79 40 90 c 3
 40 107 53 120 70 120 c 3
 81 120 92 110 110 92 c 0
 127 75 160 60 180 60 c 3
 247 60 300 113 300 180 c 3
 300 266 l 1
 268 237 226 220 180 220 c 3
180 280 m 3
 247 280 300 333 300 400 c 3
 300 447 267 480 220 480 c 3
 153 480 100 427 100 360 c 3
 100 313 133 280 180 280 c 3
EndSplineSet
Validated: 1
EndChar

StartChar: less
Encoding: 60 60 176
Width: 380
VWidth: 10
Flags: W
HStem: 0 21G<304.5 318.5> 520 20G<304.5 318.5>
DStem2: 70 312 112 270 0.707107 0.707107<0 330.556> 112 270 70 228 0.707107 -0.707107<0 330.556>
LayerCount: 2
Fore
SplineSet
40 270 m 3
 40 287 50 292 70 312 c 0
 120 362 258 500 268 510 c 0
 288 530 299 540 310 540 c 3
 327 540 340 527 340 510 c 3
 340 499 330 488 310 468 c 0
 300 458 122 280 112 270 c 1
 122 260 300 82 310 72 c 0
 330 52 340 41 340 30 c 3
 340 13 327 0 310 0 c 3
 299 0 288 10 268 30 c 0
 258 40 120 178 70 228 c 0
 50 248 40 253 40 270 c 3
EndSplineSet
Validated: 1
EndChar

StartChar: greater
Encoding: 62 62 178
Width: 380
VWidth: 10
Flags: W
HStem: 0 21G<61.5 75.5> 520 20G<61.5 75.5>
DStem2: 112 510 70 468 0.707107 -0.707107<-50.5419 280.014> 70 72 112 30 0.707107 0.707107<-50.5419 280.014>
LayerCount: 2
Fore
SplineSet
340 270 m 3
 340 253 330 248 310 228 c 0
 260 178 122 40 112 30 c 0
 92 10 81 0 70 0 c 3
 53 0 40 13 40 30 c 3
 40 41 50 52 70 72 c 0
 80 82 258 260 268 270 c 1
 258 280 80 458 70 468 c 0
 50 488 40 499 40 510 c 3
 40 527 53 540 70 540 c 3
 81 540 92 530 112 510 c 0
 122 500 260 362 310 312 c 0
 330 292 340 287 340 270 c 3
EndSplineSet
Validated: 1
EndChar

StartChar: question
Encoding: 63 63 179
Width: 380
VWidth: 0
Flags: W
HStem: 0 60<131.106 188.894> 120 160<131.106 187.327> 480 60<131.495 255.954>
VStem: 130 60<1.1064 58.8936 121.106 227.358> 280 60<331.657 455.954>
LayerCount: 2
Fore
SplineSet
130 30 m 3
 130 47 143 60 160 60 c 3
 177 60 190 47 190 30 c 3
 190 13 177 0 160 0 c 3
 143 0 130 13 130 30 c 3
200 540 m 3
 280 540 340 480 340 400 c 3
 340 311 275 237 190 223 c 1
 190 150 l 3
 190 133 177 120 160 120 c 3
 143 120 130 133 130 150 c 3
 130 160 130 240 130 250 c 3
 130 267 143 280 160 280 c 3
 227 280 280 333 280 400 c 3
 280 447 247 480 200 480 c 3
 163 480 137 465 120 448 c 0
 102 430 91 420 80 420 c 3
 63 420 50 433 50 450 c 3
 50 461 60 472 78 490 c 0
 108 520 150 540 200 540 c 3
EndSplineSet
Validated: 1
EndChar

StartChar: at
Encoding: 64 64 180
Width: 480
VWidth: 10
Flags: W
HStem: 0 60<150.266 272.496> 190 60<251.451 355.954> 390 60<264.046 340.705> 480 60<204.227 332.108>
VStem: 40 60<120.465 341.109> 180 60<261.662 365.954> 380 60<274.046 377.772>
LayerCount: 2
Fore
SplineSet
300 190 m 3
 229 190 180 240 180 310 c 3
 180 390 240 450 320 450 c 3
 327 450 334 450 341 449 c 1
 325 468 304 480 280 480 c 3
 156 480 100 334 100 210 c 3
 100 146 136 60 200 60 c 3
 237 60 271 73 308 110 c 0
 328 130 339 140 350 140 c 3
 367 140 380 127 380 110 c 3
 380 99 370 88 350 68 c 0
 300 18 250 0 200 0 c 3
 100 0 40 110 40 210 c 3
 40 370 120 540 280 540 c 3
 380 540 440 430 440 330 c 1
 440 250 380 190 300 190 c 3
300 250 m 3
 347 250 380 283 380 330 c 3
 380 367 357 390 320 390 c 3
 273 390 240 357 240 310 c 3
 240 273 263 250 300 250 c 3
EndSplineSet
Validated: 1
EndChar

StartChar: v.1x0
Encoding: 57685 57685 181
Width: 670
VWidth: 0
Flags: W
HStem: 0 60<-78.8936 -10.0491 303.238 379.651> 230 60<170.589 238.813>
VStem: 240 60<63.4267 228.358>
DStem2: 48 170 90 128 0.707107 0.707107<-188.405 156.611> 380 82 422 40 0.707107 0.707107<-43.3031 302.272>
LayerCount: 2
Fore
SplineSet
340 0 m 3
 280 0 240 45 240 100 c 3
 240 200 l 3
 240 220 230 230 210 230 c 3
 199 230 188 226 180 218 c 0
 130 168 100 138 90 128 c 0
 70 108 62 70 32 40 c 0
 10 18 -17 0 -50 0 c 11
 -67 0 -80 13 -80 30 c 3
 -80 47 -67 60 -50 60 c 3
 -35 60 -20 72 -10 82 c 0
 10 102 18 140 48 170 c 0
 58 180 128 251 138 260 c 0
 154 276 177 290 210 290 c 3
 264 290 300 254 300 200 c 3
 300 180 300 120 300 100 c 3
 300 73 313 60 340 60 c 3
 356 60 372 74 380 82 c 0
 400 102 540 242 560 262 c 0
 578 280 589 290 600 290 c 3
 617 290 630 277 630 260 c 3
 630 249 620 238 602 220 c 0
 582 200 442 60 422 40 c 0
 406 24 380 0 340 0 c 3
EndSplineSet
Validated: 1
Substitution2: "Substitutions 1s1-1" v.1s1
EndChar

StartChar: v.1s1
Encoding: 57845 57845 182
Width: 710
VWidth: 0
Flags: W
HStem: 0 60<-78.8936 -10.0491 303.238 379.651> 230 60<170.589 238.813> 260 60<621.021 688.894>
VStem: 240 60<63.7054 228.358>
DStem2: 48 170 90 128 0.707107 0.707107<-188.405 156.611> 380 82 422 40 0.707107 0.707107<-43.3031 344.356>
LayerCount: 2
Fore
SplineSet
340 0 m 3xb0
 280 0 240 40 240 100 c 3
 240 200 l 3
 240 220 230 230 210 230 c 3xd0
 199 230 188 226 180 218 c 0
 130 168 100 138 90 128 c 0
 70 108 62 70 32 40 c 0
 10 18 -17 0 -50 0 c 11
 -67 0 -80 13 -80 30 c 3
 -80 47 -67 60 -50 60 c 3
 -35 60 -20 72 -10 82 c 0
 10 102 18 140 48 170 c 0
 58 180 128 251 138 260 c 0xb0
 154 276 177 290 210 290 c 3
 264 290 300 254 300 200 c 3
 300 180 300 120 300 100 c 3
 300 73 313 60 340 60 c 3
 356 60 372 74 380 82 c 0
 400 102 568 270 588 290 c 0xd0
 604 306 627 320 660 320 c 3xb0
 677 320 690 307 690 290 c 3xd0
 690 273 677 260 660 260 c 3
 649 260 638 256 630 248 c 0
 610 228 442 60 422 40 c 0
 406 24 380 0 340 0 c 3xb0
EndSplineSet
Validated: 1
EndChar

StartChar: w.1x0
Encoding: 57686 57686 183
Width: 880
VWidth: 0
Flags: W
HStem: 0 60<-78.8936 -10.0491 303.238 379.651 513.048 589.651> 230 60<170.589 238.813>
VStem: 240 60<63.7054 228.358>
DStem2: 48 170 90 128 0.707107 0.707107<-188.405 156.611> 380 82 422 40 0.707107 0.707107<-43.3031 43.8406> 590 82 632 40 0.707107 0.707107<-43.3031 302.272>
LayerCount: 2
Fore
SplineSet
240 200 m 3
 240 220 230 230 210 230 c 3
 199 230 188 226 180 218 c 0
 130 168 100 138 90 128 c 0
 70 108 62 70 32 40 c 0
 10 18 -17 0 -50 0 c 11
 -67 0 -80 13 -80 30 c 3
 -80 47 -67 60 -50 60 c 3
 -35 60 -20 72 -10 82 c 0
 10 102 18 140 48 170 c 0
 58 180 128 251 138 260 c 0
 154 276 177 290 210 290 c 3
 264 290 300 254 300 200 c 3
 300 161 300 120 300 100 c 3
 300 73 313 60 340 60 c 3
 356 60 372 74 380 82 c 0
 400 102 420 122 440 142 c 0
 458 160 463 170 480 170 c 3
 497 170 510 157 510 140 c 3
 510 120 510 120 510 100 c 3
 510 73 523 60 550 60 c 3
 566 60 582 74 590 82 c 0
 610 102 750 242 770 262 c 0
 788 280 799 290 810 290 c 3
 827 290 840 277 840 260 c 3
 840 249 830 238 812 220 c 0
 792 200 652 60 632 40 c 0
 616 24 590 0 550 0 c 3
 500 0 464 27 453 71 c 1
 422 40 l 0
 406 24 380 0 340 0 c 3
 280 0 240 40 240 100 c 3
 240 200 l 3
EndSplineSet
Validated: 1
Substitution2: "Substitutions 1s1-1" w.1s1
EndChar

StartChar: w.1s1
Encoding: 57846 57846 184
Width: 920
VWidth: 0
Flags: W
HStem: 0 60<-78.8936 -10.0491 303.238 379.651 513.048 589.651> 230 60<170.589 238.813> 260 60<831.021 898.894>
VStem: 240 60<63.7054 228.358>
DStem2: 48 170 90 128 0.707107 0.707107<-188.405 156.611> 380 82 422 40 0.707107 0.707107<-43.3031 43.8406> 590 82 632 40 0.707107 0.707107<-43.3031 344.356>
LayerCount: 2
Fore
SplineSet
340 0 m 3xb0
 280 0 240 40 240 100 c 3
 240 200 l 3
 240 220 230 230 210 230 c 3xd0
 199 230 188 226 180 218 c 0
 130 168 100 138 90 128 c 0
 70 108 62 70 32 40 c 0
 10 18 -17 0 -50 0 c 11
 -67 0 -80 13 -80 30 c 3
 -80 47 -67 60 -50 60 c 3
 -35 60 -20 72 -10 82 c 0
 10 102 18 140 48 170 c 0
 58 180 128 251 138 260 c 0xb0
 154 276 177 290 210 290 c 3
 264 290 300 254 300 200 c 3
 300 161 300 120 300 100 c 3
 300 73 313 60 340 60 c 3
 356 60 372 74 380 82 c 0
 400 102 420 122 440 142 c 0
 458 160 463 170 480 170 c 3
 497 170 510 157 510 140 c 3
 510 120 510 120 510 100 c 3
 510 73 523 60 550 60 c 3
 566 60 582 74 590 82 c 0
 610 102 778 270 798 290 c 0xd0
 814 306 837 320 870 320 c 3xb0
 887 320 900 307 900 290 c 3xd0
 900 273 887 260 870 260 c 3
 859 260 848 256 840 248 c 0
 820 228 652 60 632 40 c 0
 616 24 590 0 550 0 c 3
 500 0 464 27 453 71 c 1
 422 40 l 0
 406 24 380 0 340 0 c 3xb0
EndSplineSet
Validated: 1
EndChar

StartChar: o.1s1
Encoding: 57838 57838 185
Width: 420
VWidth: 0
Flags: W
HStem: 0 60<-78.8936 -10.0491 144.289 267.807> 260 60<171.11 296.284 356 398.894>
VStem: -80 200<21.5 173.5> 320 60<112.193 236.415>
LayerCount: 2
Fore
SplineSet
200 0 m 3
 137 0 85 38 67 93 c 1
 58 76 49 57 32 40 c 0
 10 18 -17 0 -50 0 c 11
 -67 0 -80 13 -80 30 c 3
 -80 47 -67 60 -50 60 c 3
 -35 60 -20 72 -10 82 c 0
 10 102 18 140 48 170 c 0
 56 178 62 184 67 188 c 1
 88 264 158 320 240 320 c 3
 370 320 l 3
 387 320 400 307 400 290 c 3
 400 273 387 260 370 260 c 3
 356 260 l 1
 371 238 380 210 380 180 c 3
 380 81 299 0 200 0 c 3
200 60 m 3
 267 60 320 113 320 180 c 3
 320 227 287 260 240 260 c 3
 173 260 120 207 120 140 c 3
 120 93 153 60 200 60 c 3
EndSplineSet
Validated: 1
EndChar

StartChar: dotlessi.1o0
Encoding: 57768 57768 186
Width: 240
VWidth: 0
Flags: W
HStem: 0 21G<164.5 178.5> 260 60<-78.8936 78.4062>
VStem: 80 60<81.8676 255.45>
LayerCount: 2
Fore
SplineSet
40 320 m 3
 94 320 140 282 140 230 c 3
 140 130 l 3
 140 100 164 78 172 70 c 0
 190 52 200 41 200 30 c 3
 200 13 187 0 170 0 c 3
 159 0 148 10 130 28 c 0
 114 44 80 76 80 130 c 3
 80 230 l 3
 80 250 60 260 40 260 c 3
 -50 260 l 3
 -67 260 -80 273 -80 290 c 3
 -80 307 -67 320 -50 320 c 27
 40 320 l 3
EndSplineSet
Validated: 1
Substitution2: "Substitutions 1r1-1" dotlessi.1r1
EndChar

StartChar: circle_260
Encoding: 57357 57357 188
Width: 340
VWidth: 0
Flags: W
HStem: 0 60<111.451 215.954> 200 60<124.046 228.338>
VStem: 40 60<71.6618 175.954> 240 60<84.0457 188.338>
LayerCount: 2
Fore
SplineSet
160 0 m 3
 89 0 40 50 40 120 c 3
 40 200 100 260 180 260 c 3
 250 260 300 210 300 140 c 3
 300 60 240 0 160 0 c 3
160 60 m 3
 207 60 240 93 240 140 c 3
 240 177 217 200 180 200 c 3
 133 200 100 167 100 120 c 3
 100 83 123 60 160 60 c 3
EndSplineSet
Validated: 1
EndChar

StartChar: grave
Encoding: 96 96 189
Width: 400
VWidth: 10
Flags: W
DStem2: 172 586 130 544 0.707107 -0.707107<-50.5419 189.135>
LayerCount: 2
Fore
SplineSet
130 544 m 0
 110 564 100 575 100 586 c 3
 100 603 113 616 130 616 c 3
 141 616 152 606 172 586 c 0
 182 577 260 498 270 488 c 0
 290 468 300 457 300 446 c 3
 300 429 287 416 270 416 c 3
 259 416 248 426 228 446 c 0
 218 456 180 494 130 544 c 0
EndSplineSet
Validated: 1
EndChar

StartChar: bracketleft
Encoding: 91 91 190
Width: 240
VWidth: 0
Flags: W
HStem: -76 60<100 198.894> 556 60<100 198.894>
VStem: 40 160<-74.8936 -17.1064 557.106 614.894> 40 60<-16 556>
LayerCount: 2
Fore
SplineSet
170 -76 m 3xe0
 70 -76 l 3
 53 -76 40 -63 40 -46 c 3
 40 -36 40 576 40 586 c 3
 40 603 53 616 70 616 c 3
 170 616 l 3
 187 616 200 603 200 586 c 3xe0
 200 569 187 556 170 556 c 3
 100 556 l 1
 100 -16 l 1xd0
 170 -16 l 3
 187 -16 200 -29 200 -46 c 3
 200 -63 187 -76 170 -76 c 3xe0
EndSplineSet
Validated: 1
EndChar

StartChar: backslash
Encoding: 92 92 191
Width: 620
VWidth: 10
Flags: W
HStem: 0 21G<544.5 558.5> 520 20G<61.5 75.5>
DStem2: 112 510 70 468 0.707107 -0.707107<-50.5419 669.967>
LayerCount: 2
Fore
SplineSet
70 468 m 0
 50 488 40 499 40 510 c 3
 40 527 53 540 70 540 c 3
 81 540 92 530 112 510 c 0
 122 501 540 82 550 72 c 0
 570 52 580 41 580 30 c 3
 580 13 567 0 550 0 c 3
 539 0 528 10 508 30 c 0
 498 40 120 418 70 468 c 0
EndSplineSet
Validated: 1
EndChar

StartChar: bracketright
Encoding: 93 93 192
Width: 240
VWidth: 0
Flags: W
HStem: -76 60<41.1064 140> 556 60<41.1064 140>
VStem: 40 160<-74.8936 -17.1064 557.106 614.894> 140 60<-16 556>
LayerCount: 2
Fore
SplineSet
70 -76 m 3xe0
 53 -76 40 -63 40 -46 c 3xe0
 40 -29 53 -16 70 -16 c 3
 140 -16 l 1
 140 556 l 1xd0
 70 556 l 0
 53 556 40 569 40 586 c 3
 40 603 53 616 70 616 c 3
 70 616 149 616 170 616 c 3
 187 616 200 603 200 586 c 3
 200 576 200 -36 200 -46 c 3
 200 -63 187 -76 170 -76 c 3
 170 -76 90 -76 70 -76 c 3xe0
EndSplineSet
Validated: 1
EndChar

StartChar: asciicircum
Encoding: 94 94 193
Width: 400
VWidth: 10
Flags: W
DStem2: 120 548 162 506 0.707107 0.707107<-50.5419 53.7401> 242 586 200 544 0.707107 -0.707107<0 104.282>
LayerCount: 2
Fore
SplineSet
200 616 m 3
 217 616 222 606 242 586 c 0
 292 536 270 558 280 548 c 0
 300 528 310 517 310 506 c 3
 310 489 297 476 280 476 c 3
 269 476 258 486 238 506 c 0
 228 516 210 534 200 544 c 1
 190 534 172 516 162 506 c 0
 142 486 131 476 120 476 c 3
 103 476 90 489 90 506 c 3
 90 517 100 528 120 548 c 0
 130 558 108 536 158 586 c 0
 178 606 183 616 200 616 c 3
EndSplineSet
Validated: 1
EndChar

StartChar: underscore
Encoding: 95 95 194
Width: 400
VWidth: 0
Flags: W
HStem: 0 60<21.1064 378.894>
LayerCount: 2
Fore
SplineSet
350 0 m 3
 50 0 l 3
 33 0 20 13 20 30 c 3
 20 47 33 60 50 60 c 3
 350 60 l 3
 367 60 380 47 380 30 c 3
 380 13 367 0 350 0 c 3
EndSplineSet
Validated: 1
EndChar

StartChar: braceleft
Encoding: 123 123 195
Width: 260
VWidth: 0
Flags: W
VStem: 100 60<5.79655 218.252 321.748 534.203>
LayerCount: 2
Fore
SplineSet
190 -76 m 3
 179 -76 168 -66 150 -48 c 0
 134 -32 100 4 100 54 c 0
 100 54 100 108 100 170 c 3
 100 197 76 222 68 230 c 0
 50 248 40 253 40 270 c 3
 40 287 50 292 68 310 c 0
 76 318 100 343 100 370 c 3
 100 486 l 3
 100 536 134 572 150 588 c 0
 168 606 179 616 190 616 c 3
 207 616 220 603 220 586 c 3
 220 575 210 564 192 546 c 0
 184 538 160 513 160 486 c 0
 160 486 160 415 160 370 c 3
 160 322 129 287 112 270 c 1
 129 253 160 218 160 170 c 3
 160 54 l 3
 160 27 184 2 192 -6 c 0
 210 -24 220 -35 220 -46 c 3
 220 -63 207 -76 190 -76 c 3
EndSplineSet
Validated: 1
EndChar

StartChar: bar
Encoding: 124 124 196
Width: 220
VWidth: 0
Flags: W
VStem: 80 60<-74.8936 614.894>
LayerCount: 2
Fore
SplineSet
140 586 m 3
 140 576 140 -36 140 -46 c 3
 140 -63 127 -76 110 -76 c 3
 93 -76 80 -63 80 -46 c 3
 80 -36 80 576 80 586 c 3
 80 603 93 616 110 616 c 3
 127 616 140 603 140 586 c 3
EndSplineSet
Validated: 1
EndChar

StartChar: braceright
Encoding: 125 125 197
Width: 260
VWidth: 0
Flags: W
VStem: 100 60<5.79655 218.252 321.748 534.203>
LayerCount: 2
Fore
SplineSet
70 -76 m 3
 53 -76 40 -63 40 -46 c 3
 40 -35 50 -24 68 -6 c 0
 76 2 100 27 100 54 c 3
 100 54 100 125 100 170 c 3
 100 218 131 253 148 270 c 1
 131 287 100 322 100 370 c 3
 100 486 l 0
 100 513 76 538 68 546 c 0
 50 564 40 575 40 586 c 3
 40 603 53 616 70 616 c 3
 81 616 92 606 110 588 c 0
 126 572 160 536 160 486 c 3
 160 486 160 432 160 370 c 3
 160 343 184 318 192 310 c 0
 210 292 220 287 220 270 c 3
 220 253 210 248 192 230 c 0
 184 222 160 197 160 170 c 3
 160 54 l 0
 160 4 126 -32 110 -48 c 0
 92 -66 81 -76 70 -76 c 3
EndSplineSet
Validated: 1
EndChar

StartChar: asciitilde
Encoding: 126 126 198
Width: 400
VWidth: 30
Flags: W
HStem: 480 60<111.029 191.041> 520 60<208.959 288.971>
LayerCount: 2
Fore
SplineSet
150 480 m 3x80
 117 480 94 494 78 510 c 0
 58 530 50 539 50 550 c 3
 50 567 63 580 80 580 c 3x40
 97 580 100 572 120 552 c 0
 128 544 139 540 150 540 c 3x80
 161 540 171 543 179 551 c 0
 195 567 217 580 250 580 c 3x40
 283 580 306 566 322 550 c 0
 342 530 350 521 350 510 c 3
 350 493 337 480 320 480 c 3x80
 303 480 300 488 280 508 c 0
 272 516 261 520 250 520 c 3x40
 239 520 229 517 221 509 c 0
 205 493 183 480 150 480 c 3x80
EndSplineSet
Validated: 1
EndChar

StartChar: questiondown
Encoding: 191 191 202
Width: 370
VWidth: 164
Flags: W
HStem: -220 60<124.046 248.505> 40 160<192.673 248.894> 260 60<191.106 248.894>
VStem: 40 60<-135.954 -11.6571> 190 60<92.6416 198.894 261.106 318.894>
LayerCount: 2
Fore
SplineSet
250 290 m 3
 250 273 237 260 220 260 c 3
 203 260 190 273 190 290 c 3
 190 307 203 320 220 320 c 3
 237 320 250 307 250 290 c 3
180 -220 m 3
 100 -220 40 -160 40 -80 c 3
 40 9 105 83 190 97 c 1
 190 170 l 3
 190 187 203 200 220 200 c 3
 237 200 250 187 250 170 c 3
 250 160 250 80 250 70 c 3
 250 53 237 40 220 40 c 3
 153 40 100 -13 100 -80 c 3
 100 -127 133 -160 180 -160 c 3
 217 -160 243 -145 260 -128 c 0
 278 -110 289 -100 300 -100 c 3
 317 -100 330 -113 330 -130 c 3
 330 -141 320 -152 302 -170 c 0
 272 -200 230 -220 180 -220 c 3
EndSplineSet
Validated: 1
EndChar

StartChar: cedilla
Encoding: 184 184 211
Width: 400
VWidth: 0
Flags: W
HStem: -344 60<129.904 237.82> -144 144<171.106 227.696>
VStem: 170 60<-93.9702 -1.1064> 260 60<-261.82 -156.47>
LayerCount: 2
Fore
SplineSet
180 -344 m 3
 150 -344 118 -334 98 -314 c 0
 80 -296 70 -285 70 -274 c 3
 70 -257 83 -244 100 -244 c 3
 111 -244 122 -254 140 -272 c 0
 148 -280 166 -284 180 -284 c 3
 230 -284 260 -254 260 -204 c 3
 260 -167 237 -144 200 -144 c 3
 183 -144 170 -131 170 -114 c 0
 170 -30 l 0
 170 -13 183 0 200 0 c 3
 217 0 230 -13 230 -30 c 3
 230 -87 l 1
 284 -99 320 -144 320 -204 c 3
 320 -287 263 -344 180 -344 c 3
EndSplineSet
Validated: 1
EndChar

StartChar: ae
Encoding: 230 230 212
Width: 750
VWidth: 0
Flags: W
HStem: 0 60<124.046 249.047 379.206 446.765 515.798 628.505> 260 60<152.193 276.296 532.193 628.937>
VStem: 40 60<84.0457 207.807> 300 60<111.365 236.284> 420 60<123.292 207.807> 630 60<192.826 258.937>
LayerCount: 2
Fore
SplineSet
180 0 m 3
 100 0 40 60 40 140 c 3
 40 239 121 320 220 320 c 3
 251 320 279 311 301 296 c 1
 304 310 315 320 330 320 c 3
 347 320 360 307 360 290 c 0
 360 140 l 3
 360 93 383 60 430 60 c 3
 436 60 442 58 447 55 c 1
 430 78 420 107 420 140 c 3
 420 239 501 320 600 320 c 3
 650 320 690 280 690 230 c 3
 690 200 684 182 654 152 c 0
 624 122 549 107 532 90 c 0
 525 83 520 78 515 73 c 1
 528 65 543 60 560 60 c 3
 597 60 623 75 640 92 c 0
 658 110 669 120 680 120 c 3
 697 120 710 107 710 90 c 3
 710 79 700 68 682 50 c 0
 652 20 610 0 560 0 c 3
 519 0 482 16 457 43 c 1
 459 39 460 35 460 30 c 3
 460 13 447 0 430 0 c 3
 378 0 339 26 318 65 c 1
 285 26 235 0 180 0 c 3
180 60 m 3
 247 60 300 113 300 180 c 3
 300 227 267 260 220 260 c 3
 153 260 100 207 100 140 c 3
 100 93 133 60 180 60 c 3
600 260 m 3
 533 260 480 207 480 140 c 3
 480 134 480 128 481 123 c 1
 484 126 487 129 490 132 c 0
 520 162 595 177 612 194 c 0
 626 208 630 216 630 230 c 3
 630 247 617 260 600 260 c 3
EndSplineSet
Validated: 1
EndChar

StartChar: oe
Encoding: 339 339 213
Width: 660
VWidth: 0
Flags: W
HStem: 0 60<124.046 249.696 403.716 638.894> 110 60<412.291 514.849> 260 60<154.168 275.772 432.105 528.937>
VStem: 40 60<84.0457 207.807> 300 80<111.365 140> 530 60<186.686 258.937>
LayerCount: 2
Fore
SplineSet
180 0 m 3
 100 0 40 60 40 140 c 3
 40 239 121 320 220 320 c 3
 230 320 l 3
 268 320 299 305 322 282 c 0
 356 248 l 1
 389 292 441 320 500 320 c 3
 550 320 590 280 590 230 c 3
 590 160 529 110 460 110 c 3
 426 110 400 120 380 140 c 1
 380 93 413 60 460 60 c 0
 610 60 l 3
 627 60 640 47 640 30 c 3
 640 13 627 0 610 0 c 0
 460 0 l 3
 401 0 352 33 331 83 c 1
 299 33 243 0 180 0 c 3
500 260 m 3
 457 260 420 238 399 205 c 1
 422 182 l 0
 430 174 443 170 460 170 c 3
 497 170 530 193 530 230 c 3
 530 247 517 260 500 260 c 3
180 60 m 3
 247 60 300 113 300 180 c 3
 300 227 267 260 220 260 c 3
 153 260 100 207 100 140 c 3
 100 93 133 60 180 60 c 3
EndSplineSet
Validated: 1
EndChar

StartChar: guillemotleft
Encoding: 171 171 255
Width: 440
VWidth: 10
Flags: W
DStem2: 70 312 112 270 0.707107 0.707107<0 160.851> 112 270 70 228 0.707107 -0.707107<0 160.851> 250 312 292 270 0.707107 0.707107<0 160.851> 292 270 250 228 0.707107 -0.707107<0 160.851>
LayerCount: 2
Fore
SplineSet
220 270 m 3
 220 287 230 292 250 312 c 0
 300 362 318 380 328 390 c 0
 348 410 359 420 370 420 c 3
 387 420 400 407 400 390 c 3
 400 379 390 368 370 348 c 0
 360 338 302 280 292 270 c 1
 302 260 360 202 370 192 c 0
 390 172 400 161 400 150 c 3
 400 133 387 120 370 120 c 3
 359 120 348 130 328 150 c 0
 318 160 300 178 250 228 c 0
 230 248 220 253 220 270 c 3
40 270 m 3
 40 287 50 292 70 312 c 0
 120 362 138 380 148 390 c 0
 168 410 179 420 190 420 c 3
 207 420 220 407 220 390 c 3
 220 379 210 368 190 348 c 0
 180 338 122 280 112 270 c 1
 122 260 180 202 190 192 c 0
 210 172 220 161 220 150 c 3
 220 133 207 120 190 120 c 3
 179 120 168 130 148 150 c 0
 138 160 120 178 70 228 c 0
 50 248 40 253 40 270 c 3
EndSplineSet
Validated: 1
EndChar

StartChar: guillemotright
Encoding: 187 187 256
Width: 440
VWidth: 10
Flags: W
DStem2: 112 390 70 348 0.707107 -0.707107<-50.5419 110.309> 70 192 112 150 0.707107 0.707107<-50.5419 110.309> 292 390 250 348 0.707107 -0.707107<-50.5419 110.309> 250 192 292 150 0.707107 0.707107<-50.5419 110.309>
LayerCount: 2
Fore
SplineSet
220 270 m 3
 220 253 210 248 190 228 c 0
 140 178 122 160 112 150 c 0
 92 130 81 120 70 120 c 3
 53 120 40 133 40 150 c 3
 40 161 50 172 70 192 c 0
 80 202 138 260 148 270 c 1
 138 280 80 338 70 348 c 0
 50 368 40 379 40 390 c 3
 40 407 53 420 70 420 c 3
 81 420 92 410 112 390 c 0
 122 380 140 362 190 312 c 0
 210 292 220 287 220 270 c 3
400 270 m 3
 400 253 390 248 370 228 c 0
 320 178 302 160 292 150 c 0
 272 130 261 120 250 120 c 3
 233 120 220 133 220 150 c 3
 220 161 230 172 250 192 c 0
 260 202 318 260 328 270 c 1
 318 280 260 338 250 348 c 0
 230 368 220 379 220 390 c 3
 220 407 233 420 250 420 c 3
 261 420 272 410 292 390 c 0
 302 380 320 362 370 312 c 0
 390 292 400 287 400 270 c 3
EndSplineSet
Validated: 1
EndChar

StartChar: k.1r1
Encoding: 57834 57834 327
Width: 460
VWidth: 0
Flags: W
HStem: 0 60<271.769 438.894> 250 60<271.021 338.894> 260 60<-78.8936 31.6921>
VStem: 80 60<1.10641 98 182 302 382 614.894>
DStem2: 140 182 220 177 0.707107 0.707107<53.033 201.847>
LayerCount: 2
Fore
SplineSet
350 0 m 3xd0
 266 0 189 49 167 125 c 1
 140 98 l 17
 140 30 l 3
 140 12 127 0 110 0 c 3
 93 0 80 13 80 30 c 3
 80 302 l 1
 40 272 -3 260 -50 260 c 3
 -67 260 -80 273 -80 290 c 3
 -80 307 -67 320 -50 320 c 3xb0
 7 320 40 342 70 372 c 0
 74 376 77 379 80 382 c 1
 80 586 l 3
 80 603 93 616 110 616 c 3
 127 616 140 603 140 586 c 3
 140 182 l 1
 167 209 232 274 238 280 c 0
 254 296 277 310 310 310 c 3
 327 310 340 297 340 280 c 3
 340 263 327 250 310 250 c 3
 299 250 288 246 280 238 c 0
 280 238 243 201 220 177 c 17
 220 175 220 172 220 170 c 3
 220 103 283 60 350 60 c 3
 410 60 l 3
 427 60 440 47 440 30 c 3
 440 13 427 0 410 0 c 0
 350 0 l 3xd0
EndSplineSet
Validated: 1
EndChar

StartChar: e.1o0
Encoding: 57764 57764 328
Width: 380
VWidth: 0
Flags: W
HStem: 0 60<124.046 248.505> 110 60<132.291 234.849> 260 60<-78.8936 1.5 152.105 248.937>
VStem: 40 60<84.375 140> 250 60<186.686 258.937>
DStem2: 42 282 0 240 0.707107 -0.707107<-49.5396 48.0833 141.421 176.213>
LayerCount: 2
Fore
SplineSet
180 110 m 3
 146 110 120 120 100 140 c 1
 100 93 133 60 180 60 c 3
 217 60 243 75 260 92 c 0
 278 110 289 120 300 120 c 3
 317 120 330 107 330 90 c 3
 330 79 320 68 302 50 c 0
 272 20 230 0 180 0 c 3
 100 0 40 60 40 140 c 3
 40 158 43 175 48 192 c 1
 0 240 l 0
 -12 252 -28 260 -50 260 c 3
 -67 260 -80 273 -80 290 c 3
 -80 307 -67 320 -50 320 c 3
 -12 320 19 305 42 282 c 0
 76 248 l 1
 109 292 161 320 220 320 c 3
 270 320 310 280 310 230 c 3
 310 160 249 110 180 110 c 3
180 170 m 3
 217 170 250 193 250 230 c 3
 250 247 237 260 220 260 c 3
 177 260 140 238 119 205 c 1
 142 182 l 0
 150 174 163 170 180 170 c 3
EndSplineSet
Validated: 1
Substitution2: "Substitutions 1r1-1" e.1r1
EndChar

StartChar: e.1r1
Encoding: 57828 57828 329
Width: 380
VWidth: 0
Flags: W
HStem: 0 60<124.375 358.894> 110 60<132.291 234.849> 260 60<-78.8936 1.5 152.105 248.937>
VStem: 40 60<84.375 140> 250 60<186.686 258.937>
DStem2: 42 282 0 240 0.707107 -0.707107<-49.5396 48.0833 141.421 176.213>
LayerCount: 2
Fore
SplineSet
220 320 m 3
 270 320 310 280 310 230 c 3
 310 160 249 110 180 110 c 3
 146 110 120 120 100 140 c 1
 100 93 133 60 180 60 c 3
 330 60 l 3
 347 60 360 47 360 30 c 3
 360 13 347 0 330 0 c 3
 180 0 l 3
 100 0 40 60 40 140 c 3
 40 158 43 175 48 192 c 1
 0 240 l 0
 -12 252 -28 260 -50 260 c 3
 -67 260 -80 273 -80 290 c 3
 -80 307 -67 320 -50 320 c 3
 -12 320 19 305 42 282 c 0
 76 248 l 1
 109 292 161 320 220 320 c 3
220 260 m 3
 177 260 140 238 119 205 c 1
 142 182 l 0
 150 174 163 170 180 170 c 3
 217 170 250 193 250 230 c 3
 250 247 237 260 220 260 c 3
EndSplineSet
Validated: 1
EndChar

StartChar: cent
Encoding: 162 162 344
Width: 380
VWidth: 0
Flags: W
HStem: 1 61<122.932 160> 260 60<220 270.032>
VStem: 40 60<82.9428 209.026> 160 60<-48.8936 4.77051 67 244 320 378.894>
LayerCount: 2
Fore
SplineSet
100 140 m 3
 100 100 124 70 160 62 c 1
 160 244 l 1
 124 223 100 185 100 140 c 3
40 140 m 3
 40 218 90 285 160 310 c 1
 160 350 l 3
 160 367 173 380 190 380 c 3
 207 380 220 367 220 350 c 3
 220 320 l 1
 250 320 282 310 302 290 c 0
 320 272 330 261 330 250 c 3
 330 233 317 220 300 220 c 3
 289 220 278 230 260 248 c 0
 252 256 234 260 220 260 c 1
 220 67 l 1
 237 73 250 82 260 92 c 0
 278 110 289 120 300 120 c 3
 317 120 330 107 330 90 c 3
 330 79 320 68 302 50 c 0
 280 28 253 11 220 4 c 1
 220 -20 l 3
 220 -37 207 -50 190 -50 c 3
 173 -50 160 -37 160 -20 c 3
 160 1 l 1
 90 10 40 67 40 140 c 3
EndSplineSet
Validated: 1
EndChar

StartChar: sterling
Encoding: 163 163 345
Width: 440
VWidth: 0
Flags: W
HStem: 0 60<104.263 197.324 331.021 398.894> 140 60<104.263 208.071> 260 60<121.106 220 280 378.894> 520 20G<241.5 258.5>
VStem: 40 60<64.263 135.737> 220 60<181 260 320 538.894>
DStem2: 280 132 261 67 0.707107 -0.707107<32.5269 148.107>
LayerCount: 2
Fore
SplineSet
140 0 m 3
 83 0 40 43 40 100 c 3
 40 157 83 200 140 200 c 3
 170 200 197 193 220 181 c 1
 220 260 l 1
 150 260 l 3
 133 260 120 273 120 290 c 3
 120 307 133 320 150 320 c 3
 220 320 l 1
 220 510 l 3
 220 527 233 540 250 540 c 3
 267 540 280 527 280 510 c 3
 280 320 l 1
 350 320 l 3
 367 320 380 307 380 290 c 3
 380 273 367 260 350 260 c 3
 280 260 l 1
 280 140 l 3
 280 137 280 135 280 132 c 1
 340 72 l 16
 348 64 359 60 370 60 c 3
 387 60 400 47 400 30 c 3
 400 13 387 0 370 0 c 3
 337 0 314 14 298 30 c 8
 261 67 l 1
 237 26 193 0 140 0 c 3
140 60 m 3
 177 60 206 80 216 112 c 1
 199 127 174 140 140 140 c 3
 116 140 100 124 100 100 c 3
 100 76 116 60 140 60 c 3
EndSplineSet
Validated: 1
EndChar

StartChar: currency
Encoding: 164 164 346
Width: 400
VWidth: 0
Flags: W
HStem: 0 21G<61.5 75.5 324.5 338.5> 30 60<141.792 248.619> 230 60<151.381 258.629> 300 20G<61.5 75.5 324.5 338.5>
VStem: 70 60<101.404 208.619> 270 60<111.381 218.629>
DStem2: 112 290 70 248 0.707107 -0.707107<-50.5419 35.8403 272.458 358.84> 70 72 112 30 0.707107 0.707107<-50.5419 29.6793 277.182 358.84>
LayerCount: 2
Fore
SplineSet
190 30 m 3
 166 30 145 35 127 45 c 1
 112 30 l 0
 92 10 81 0 70 0 c 3
 53 0 40 13 40 30 c 3
 40 41 50 52 70 72 c 0
 85 87 l 1
 75 105 70 127 70 150 c 3
 70 180 77 206 90 228 c 1
 70 248 l 0
 50 268 40 279 40 290 c 3
 40 307 53 320 70 320 c 3
 81 320 92 310 112 290 c 0
 132 270 l 1
 154 283 180 290 210 290 c 3
 233 290 254 284 272 274 c 1
 288 290 l 0
 308 310 319 320 330 320 c 3
 347 320 360 307 360 290 c 3
 360 279 350 268 330 248 c 0
 314 232 l 1
 324 214 330 193 330 170 c 3
 330 140 323 114 310 92 c 1
 330 72 l 0
 350 52 360 41 360 30 c 3
 360 13 347 0 330 0 c 3
 319 0 308 10 288 30 c 0
 268 50 l 1
 246 37 220 30 190 30 c 3
190 90 m 3
 240 90 270 120 270 170 c 3
 270 207 247 230 210 230 c 3
 160 230 130 200 130 150 c 3
 130 113 153 90 190 90 c 3
EndSplineSet
Validated: 1
EndChar

StartChar: yen
Encoding: 165 165 347
Width: 480
VWidth: 10
Flags: W
HStem: 0 21G<231.5 248.5> 80 60<121.106 210 270 358.894> 200 60<121.106 210 270 358.894> 520 20G<61.5 75.5 404.5 418.5>
VStem: 210 60<1.10641 80 140 200 260 328>
DStem2: 112 510 70 468 0.707107 -0.707107<-50.5419 181.019> 240 382 270 328 0.707107 0.707107<0 231.561>
LayerCount: 2
Fore
SplineSet
240 0 m 3
 223 0 210 13 210 30 c 3
 210 80 l 1
 150 80 l 3
 133 80 120 93 120 110 c 3
 120 127 133 140 150 140 c 27
 210 140 l 1
 210 200 l 1
 150 200 l 3
 133 200 120 213 120 230 c 3
 120 247 133 260 150 260 c 27
 210 260 l 1
 210 328 l 1
 70 468 l 0
 50 488 40 499 40 510 c 3
 40 527 53 540 70 540 c 3
 81 540 92 530 112 510 c 0
 117 506 155 467 240 382 c 1
 325 467 363 506 368 510 c 0
 388 530 399 540 410 540 c 3
 427 540 440 527 440 510 c 3
 440 499 430 488 410 468 c 0
 270 328 l 1
 270 260 l 1
 330 260 l 3
 347 260 360 247 360 230 c 3
 360 213 347 200 330 200 c 27
 270 200 l 1
 270 140 l 1
 330 140 l 3
 347 140 360 127 360 110 c 3
 360 93 347 80 330 80 c 27
 270 80 l 1
 270 30 l 3
 270 13 257 0 240 0 c 3
EndSplineSet
Validated: 1
EndChar

StartChar: brokenbar
Encoding: 166 166 348
Width: 220
VWidth: 0
Flags: W
VStem: 80 60<-74.8936 238.894 301.106 614.894>
LayerCount: 2
Fore
SplineSet
110 -76 m 3
 93 -76 80 -63 80 -46 c 3
 80 -46 80 195 80 210 c 3
 80 227 93 240 110 240 c 3
 127 240 140 227 140 210 c 3
 140 -46 l 3
 140 -63 127 -76 110 -76 c 3
110 300 m 3
 93 300 80 313 80 330 c 3
 80 586 l 3
 80 603 93 616 110 616 c 3
 127 616 140 603 140 586 c 3
 140 586 140 349 140 330 c 3
 140 313 127 300 110 300 c 3
EndSplineSet
Validated: 1
EndChar

StartChar: section
Encoding: 167 167 349
Width: 340
VWidth: 0
Flags: W
HStem: -40 60<129.904 228.549> 160 60<111.719 216.202> 320 60<123.798 228.281> 520 60<111.451 210.096>
VStem: 40 60<231.662 329.346 403.71 508.338> 240 60<31.6618 136.29 210.654 308.338>
LayerCount: 2
Fore
SplineSet
160 220 m 3
 181 220 200 216 217 209 c 1
 220 212 224 216 228 220 c 0
 236 228 240 246 240 260 c 3
 240 297 217 320 180 320 c 3
 159 320 140 324 123 331 c 1
 120 328 116 324 112 320 c 0
 104 312 100 294 100 280 c 3
 100 243 123 220 160 220 c 3
160 160 m 3
 90 160 40 210 40 280 c 3
 40 310 50 342 70 362 c 0
 71 363 73 365 74 366 c 1
 52 390 40 423 40 460 c 3
 40 530 89 580 160 580 c 3
 190 580 222 570 242 550 c 0
 260 532 270 521 270 510 c 3
 270 493 257 480 240 480 c 3
 229 480 218 490 200 508 c 0
 192 516 174 520 160 520 c 3
 123 520 100 497 100 460 c 3
 100 413 133 380 180 380 c 3
 250 380 300 330 300 260 c 3
 300 230 290 198 270 178 c 0
 269 177 267 175 266 174 c 1
 288 150 300 117 300 80 c 3
 300 10 251 -40 180 -40 c 3
 150 -40 118 -30 98 -10 c 0
 80 8 70 19 70 30 c 3
 70 47 83 60 100 60 c 3
 111 60 122 50 140 32 c 0
 148 24 166 20 180 20 c 3
 217 20 240 43 240 80 c 3
 240 127 207 160 160 160 c 3
EndSplineSet
Validated: 1
EndChar

StartChar: ordfeminine
Encoding: 170 170 351
Width: 400
VWidth: 0
Flags: W
HStem: 280 60<111.451 216.081 301.235 358.894> 480 60<124.046 228.208>
VStem: 40 60<351.662 455.954> 240 60<363.716 468.395>
LayerCount: 2
Fore
SplineSet
160 280 m 3
 89 280 40 330 40 400 c 3
 40 480 100 540 180 540 c 3
 204 540 225 534 243 524 c 1
 248 534 258 540 270 540 c 3
 287 540 300 527 300 510 c 3
 300 370 l 1
 300 350 310 340 330 340 c 3
 347 340 360 327 360 310 c 3
 360 293 347 280 330 280 c 3
 297 280 271 293 256 316 c 1
 231 294 198 280 160 280 c 3
160 340 m 3
 207 340 240 373 240 420 c 3
 240 457 217 480 180 480 c 3
 133 480 100 447 100 400 c 3
 100 363 123 340 160 340 c 3
EndSplineSet
Validated: 1
EndChar

StartChar: logicalnot
Encoding: 172 172 352
Width: 400
VWidth: 426
Flags: W
HStem: 0 21G<321.5 338.5> 370 60<41.1064 300>
VStem: 300 60<1.1064 370>
LayerCount: 2
Fore
SplineSet
330 0 m 3
 313 0 300 13 300 30 c 3
 300 370 l 1
 70 370 l 3
 53 370 40 383 40 400 c 3
 40 417 53 430 70 430 c 0
 330 430 l 3
 347 430 360 417 360 400 c 3
 360 400 360 40 360 30 c 3
 360 13 347 0 330 0 c 3
EndSplineSet
Validated: 1
EndChar

StartChar: uni00B2
Encoding: 178 178 357
Width: 320
VWidth: 0
Flags: W
HStem: 280 60<152 278.894> 556 60<110.468 204.321>
VStem: 210 60<460.841 550.321>
DStem2: 80 352 152 340 0.707107 0.707107<42.4264 204.915>
LayerCount: 2
Fore
SplineSet
170 616 m 3
 224 616 270 570 270 516 c 3
 270 456 240 428 220 408 c 0
 152 340 l 1
 250 340 l 3
 267 340 280 327 280 310 c 3
 280 293 267 280 250 280 c 27
 80 280 l 3
 63 280 50 293 50 310 c 3
 50 327 60 332 80 352 c 0
 90 362 168 441 178 450 c 0
 198 470 210 486 210 516 c 3
 210 536 190 556 170 556 c 3
 133 556 118 542 110 534 c 0
 92 516 81 506 70 506 c 3
 53 506 40 519 40 536 c 3
 40 547 50 558 68 576 c 0
 88 596 116 616 170 616 c 3
EndSplineSet
Validated: 1
EndChar

StartChar: uni00B3
Encoding: 179 179 358
Width: 320
VWidth: 0
Flags: W
HStem: 280 60<110.468 204.321> 420 60<141.106 204.751> 556 60<110.468 204.321>
VStem: 210 60<345.679 414.46 484.429 550.321>
LayerCount: 2
Fore
SplineSet
242 449 m 1
 260 431 270 406 270 380 c 3
 270 326 224 280 170 280 c 3
 116 280 88 300 68 320 c 0
 50 338 40 349 40 360 c 3
 40 377 53 390 70 390 c 3
 81 390 92 380 110 362 c 0
 118 354 133 340 170 340 c 3
 190 340 210 360 210 380 c 3
 210 400 190 420 170 420 c 11
 153 420 140 433 140 450 c 3
 140 467 153 480 170 480 c 3
 190 480 210 496 210 516 c 3
 210 536 190 556 170 556 c 3
 133 556 118 542 110 534 c 0
 92 516 81 506 70 506 c 3
 53 506 40 519 40 536 c 3
 40 547 50 558 68 576 c 0
 88 596 116 616 170 616 c 3
 224 616 270 570 270 516 c 3
 270 490 260 466 242 449 c 1
EndSplineSet
Validated: 1
EndChar

StartChar: uni00B5
Encoding: 181 181 359
Width: 420
VWidth: 0
Flags: W
HStem: 0 60<123.585 236.081 321.235 378.894> 300 20G<61.5 78.5 281.5 298.5>
VStem: 40 60<-242.894 24 83.7164 318.894> 260 60<83.7164 318.894>
LayerCount: 2
Fore
SplineSet
180 0 m 3
 150 0 122 9 100 24 c 1
 100 -214 l 3
 100 -231 87 -244 70 -244 c 3
 53 -244 40 -231 40 -214 c 3
 40 290 l 3
 40 307 53 320 70 320 c 3
 87 320 100 307 100 290 c 3
 100 140 l 3
 100 93 133 60 180 60 c 3
 227 60 260 93 260 140 c 0
 260 290 l 3
 260 307 273 320 290 320 c 3
 307 320 320 307 320 290 c 0
 320 290 320 168 320 90 c 19
 320 70 330 60 350 60 c 3
 367 60 380 47 380 30 c 3
 380 13 367 0 350 0 c 3
 317 0 291 13 276 36 c 1
 251 14 218 0 180 0 c 3
EndSplineSet
Validated: 1
EndChar

StartChar: paragraph
Encoding: 182 182 360
Width: 410
VWidth: 0
Flags: W
HStem: 0 21G<191.5 208.5 311.5 328.5> 280 60<114.051 170> 480 60<125.641 170 230 290>
VStem: 40 60<353.458 456.322> 170 60<1.1064 280 340 479> 290 60<1.1064 480>
LayerCount: 2
Fore
SplineSet
160 280 m 3
 89 280 40 330 40 400 c 3
 40 480 103 540 180 540 c 3
 320 540 l 3
 337 540 350 527 350 510 c 3
 350 500 350 40 350 30 c 3
 350 13 337 0 320 0 c 3
 303 0 290 13 290 30 c 3
 290 480 l 1
 230 480 l 1
 230 30 l 3
 230 13 217 0 200 0 c 3
 183 0 170 13 170 30 c 3
 170 280 l 1
 160 280 l 3
160 340 m 27
 170 340 l 1
 170 479 l 1
 128 475 100 444 100 400 c 3
 100 363 127 340 160 340 c 27
EndSplineSet
Validated: 1
EndChar

StartChar: uni00B9
Encoding: 185 185 362
Width: 240
VWidth: 0
Flags: W
VStem: 120 60<281.106 514>
LayerCount: 2
Fore
SplineSet
70 476 m 3
 53 476 40 489 40 506 c 3
 40 517 50 528 70 548 c 0
 108 586 l 0
 128 606 133 616 150 616 c 3
 167 616 180 603 180 586 c 3
 180 576 180 320 180 310 c 3
 180 293 167 280 150 280 c 3
 133 280 120 293 120 310 c 0
 120 310 120 434 120 514 c 17
 100 494 84 476 70 476 c 3
EndSplineSet
Validated: 1
EndChar

StartChar: uni2074
Encoding: 8308 8308 365
Width: 300
VWidth: 10
Flags: W
HStem: 320 60<101.642 200>
VStem: 40 60<381.187 449.681> 200 60<281.106 320 380 458.894>
DStem2: 70 482 112 440 0.707107 0.707107<-29.1391 197.62>
LayerCount: 2
Fore
SplineSet
130 320 m 3
 76 320 40 356 40 410 c 3
 40 450 54 466 70 482 c 0
 80 492 164 577 174 586 c 0
 194 606 205 616 216 616 c 3
 233 616 246 603 246 586 c 3
 246 575 236 564 216 544 c 0
 166 494 122 450 112 440 c 0
 104 432 100 427 100 410 c 3
 100 390 110 380 130 380 c 0
 200 380 l 1
 200 430 l 3
 200 447 213 460 230 460 c 3
 247 460 260 447 260 430 c 0
 260 310 l 3
 260 292 247 280 230 280 c 3
 213 280 200 293 200 310 c 0
 200 320 l 1
 130 320 l 3
EndSplineSet
Validated: 1
EndChar

StartChar: Aring
Encoding: 197 197 373
Width: 530
VWidth: 0
Flags: W
HStem: 0 60<151.987 293.893> 370 46<301.605 329.782> 556 60<314.046 418.338>
VStem: 40 60<111.987 274.605> 230 60<428.631 531.954> 380 60<1.1064 78 155.002 319.782> 430 60<439.492 544.338>
LayerCount: 2
Fore
SplineSet
220 0 m 3xfc
 120 0 40 80 40 180 c 3
 40 303 120 416 238 429 c 1
 233 443 230 459 230 476 c 3
 230 556 290 616 370 616 c 3
 440 616 490 566 490 496 c 3xfa
 490 451 471 412 440 387 c 1
 440 30 l 3
 440 13 427 0 410 0 c 3
 393 0 380 13 380 30 c 0
 380 78 l 1
 341 31 286 0 220 0 c 3xfc
220 60 m 3
 317 60 380 153 380 250 c 3xfc
 380 317 327 370 260 370 c 3
 163 370 100 277 100 180 c 3
 100 113 153 60 220 60 c 3
350 416 m 3
 397 416 430 449 430 496 c 3xfa
 430 533 407 556 370 556 c 3
 323 556 290 523 290 476 c 3
 290 439 313 416 350 416 c 3
EndSplineSet
Validated: 1
EndChar

StartChar: AE
Encoding: 198 198 374
Width: 860
VWidth: 0
Flags: W
HStem: 0 60<151.987 294.074 441.621 500 560 818.894> 190 60<560 758.894> 370 60<186.511 329.404 560 818.894>
VStem: 40 60<111.987 274.452> 380 60<155.002 319.782 385 428.894> 500 60<60 190 250 370>
LayerCount: 2
Fore
SplineSet
220 60 m 3
 317 60 380 153 380 250 c 3
 380 317 327 370 260 370 c 3
 163 370 100 277 100 180 c 3
 100 113 153 60 220 60 c 3
220 0 m 3
 120 0 40 80 40 180 c 3
 40 310 130 430 260 430 c 3
 306 430 348 413 380 385 c 1
 380 400 l 3
 380 417 393 430 410 430 c 3
 427 430 440 417 440 400 c 3
 440 400 440 211 440 90 c 19
 440 70 453 60 470 60 c 27
 500 60 l 1
 500 400 l 19
 500 417 513 430 530 430 c 3
 540 430 780 430 790 430 c 3
 807 430 820 417 820 400 c 3
 820 383 807 370 790 370 c 0
 560 370 l 1
 560 250 l 1
 730 250 l 3
 747 250 760 237 760 220 c 0
 760 203 747 190 730 190 c 27
 560 190 l 1
 560 60 l 1
 790 60 l 3
 807 60 820 47 820 30 c 3
 820 13 807 0 790 0 c 3
 790 0 493 0 470 0 c 3
 420 0 386 30 381 78 c 1
 342 31 286 0 220 0 c 3
EndSplineSet
Validated: 1
EndChar

StartChar: uni1D00
Encoding: 7424 7424 375
Width: 500
VWidth: 0
Flags: W
HStem: 0 60<151.987 293.893> 370 60<186.511 329.404>
VStem: 40 60<111.987 274.452> 380 60<1.1064 78 155.002 319.782 385 428.894>
LayerCount: 2
Fore
SplineSet
220 0 m 3
 120 0 40 80 40 180 c 3
 40 310 130 430 260 430 c 3
 306 430 348 413 380 385 c 1
 380 400 l 3
 380 417 393 430 410 430 c 3
 427 430 440 417 440 400 c 3
 440 30 l 3
 440 13 427 0 410 0 c 3
 393 0 380 13 380 30 c 3
 380 78 l 1
 341 31 286 0 220 0 c 3
220 60 m 3
 317 60 380 153 380 250 c 3
 380 317 327 370 260 370 c 3
 163 370 100 277 100 180 c 3
 100 113 153 60 220 60 c 3
EndSplineSet
Validated: 1
EndChar

StartChar: uni1D0F
Encoding: 7439 7439 376
Width: 480
VWidth: 0
Flags: W
HStem: 0 60<151.987 293.489> 370 60<186.511 328.013>
VStem: 40 60<111.987 274.452> 380 60<155.548 318.013>
LayerCount: 2
Fore
SplineSet
220 0 m 3
 120 0 40 80 40 180 c 3
 40 310 130 430 260 430 c 3
 360 430 440 350 440 250 c 3
 440 120 350 0 220 0 c 3
220 60 m 3
 317 60 380 153 380 250 c 3
 380 317 327 370 260 370 c 3
 163 370 100 277 100 180 c 3
 100 113 153 60 220 60 c 3
EndSplineSet
Validated: 1
EndChar

StartChar: uni1D07
Encoding: 7431 7431 377
Width: 400
VWidth: 0
Flags: W
HStem: 0 60<100 358.894> 190 60<100 298.894> 370 60<100 358.894>
VStem: 40 60<60 190 250 370>
LayerCount: 2
Fore
SplineSet
40 400 m 19
 40 417 53 430 70 430 c 3
 80 430 320 430 330 430 c 3
 347 430 360 417 360 400 c 3
 360 383 347 370 330 370 c 0
 100 370 l 9
 100 250 l 1
 270 250 l 3
 287 250 300 237 300 220 c 3
 300 203 287 190 270 190 c 3
 100 190 l 1
 100 60 l 17
 330 60 l 3
 347 60 360 47 360 30 c 3
 360 13 347 0 330 0 c 3
 70 0 l 3
 53 0 40 13 40 30 c 3
 40 400 l 19
EndSplineSet
Validated: 1
EndChar

StartChar: uni1DA6
Encoding: 7590 7590 384
Width: 220
VWidth: 0
Flags: W
HStem: 0 21G<101.5 118.5>
VStem: 80 60<1.1064 428.894>
LayerCount: 2
Fore
SplineSet
140 400 m 3
 140 390 140 40 140 30 c 3
 140 13 127 0 110 0 c 3
 93 0 80 13 80 30 c 3
 80 40 80 390 80 400 c 3
 80 417 93 430 110 430 c 3
 127 430 140 417 140 400 c 3
EndSplineSet
Validated: 1
EndChar

StartChar: Eth
Encoding: 208 208 385
Width: 540
VWidth: 0
Flags: W
HStem: 0 60<220 335.41> 260 60<41.1064 160 220 338.894> 480 60<220 368.659>
VStem: 160 60<60 260 320 480> 440 60<198.891 409.143>
LayerCount: 2
Fore
SplineSet
260 60 m 3
 384 60 440 206 440 330 c 3
 440 417 377 480 290 480 c 3
 220 480 l 1
 220 320 l 1
 310 320 l 3
 327 320 340 307 340 290 c 3
 340 273 327 260 310 260 c 3
 220 260 l 1
 220 60 l 1
 260 60 l 3
260 0 m 3
 190 0 l 3
 173 0 160 13 160 30 c 3
 160 260 l 1
 70 260 l 3
 53 260 40 273 40 290 c 3
 40 307 53 320 70 320 c 3
 160 320 l 1
 160 510 l 3
 160 527 173 540 190 540 c 3
 210 540 259 540 290 540 c 3
 410 540 500 450 500 330 c 3
 500 170 420 0 260 0 c 3
EndSplineSet
Validated: 1
EndChar

StartChar: eth
Encoding: 240 240 389
Width: 520
VWidth: 0
Flags: W
HStem: 0 60<124.046 247.807> 260 60<152.193 276.415> 430 60<171.106 300 360 488.894>
VStem: 40 60<84.0457 207.807> 300 60<114.168 236.284 296 430 490 614.894>
LayerCount: 2
Fore
SplineSet
180 60 m 3
 247 60 300 113 300 180 c 3
 300 227 267 260 220 260 c 3
 153 260 100 207 100 140 c 3
 100 93 133 60 180 60 c 3
180 0 m 3
 100 0 40 60 40 140 c 3
 40 239 121 320 220 320 c 3
 250 320 278 311 300 296 c 1
 300 430 l 1
 200 430 l 3
 183 430 170 443 170 460 c 3
 170 477 183 490 200 490 c 0
 300 490 l 1
 300 586 l 3
 300 603 313 616 330 616 c 3
 347 616 360 603 360 586 c 3
 360 490 l 1
 460 490 l 3
 477 490 490 477 490 460 c 3
 490 443 477 430 460 430 c 0
 360 430 l 1
 360 180 l 3
 360 81 279 0 180 0 c 3
EndSplineSet
Validated: 1
EndChar

StartChar: uni0274
Encoding: 628 628 391
Width: 500
VWidth: 0
Flags: W
HStem: 0 21G<61.5 78.5 401.5 418.5> 370 60<208.386 329.734>
VStem: 40 60<1.10641 228.406 325 428.894> 380 60<1.1064 308.567>
LayerCount: 2
Fore
SplineSet
280 430 m 3
 380 430 440 320 440 220 c 3
 440 210 440 40 440 30 c 3
 440 13 427 0 410 0 c 3
 393 0 380 13 380 30 c 3
 380 40 380 210 380 220 c 3
 380 284 344 370 280 370 c 3
 158 370 100 223 100 100 c 3
 100 30 l 3
 100 13 87 0 70 0 c 3
 53 0 40 13 40 30 c 1
 40 400 l 3
 40 417 53 430 70 430 c 3
 87 430 100 417 100 400 c 0
 100 325 l 1
 140 388 200 430 280 430 c 3
EndSplineSet
Validated: 1
EndChar

StartChar: oslash
Encoding: 248 248 400
Width: 510
VWidth: 0
Flags: W
HStem: 0 60<208.581 307.807> 260 60<212.193 311.261>
VStem: 100 60<108.581 207.807> 360 60<112.193 211.419>
DStem2: 70 12 112 -30 0.707107 0.707107<-50.5419 78.7279 135.764 342.24 399.276 528.546>
LayerCount: 2
Fore
SplineSet
240 0 m 3
 211 0 185 7 163 21 c 1
 112 -30 l 0
 92 -50 81 -60 70 -60 c 3
 53 -60 40 -47 40 -30 c 3
 40 -19 50 -8 70 12 c 0
 72 14 92 34 121 63 c 1
 107 85 100 111 100 140 c 3
 100 239 181 320 280 320 c 3
 309 320 334 313 356 299 c 1
 385 328 406 348 408 350 c 0
 428 370 439 380 450 380 c 3
 467 380 480 367 480 350 c 3
 480 339 470 328 450 308 c 0
 399 257 l 1
 413 235 420 209 420 180 c 3
 420 81 339 0 240 0 c 3
240 60 m 3
 307 60 360 113 360 180 c 3
 360 192 358 202 354 212 c 1
 208 66 l 1
 218 62 228 60 240 60 c 3
280 260 m 3
 213 260 160 207 160 140 c 3
 160 128 162 118 166 108 c 1
 212 154 266 208 312 254 c 1
 302 258 292 260 280 260 c 3
EndSplineSet
Validated: 1
EndChar

StartChar: uni1D1C
Encoding: 7452 7452 405
Width: 480
VWidth: 0
Flags: W
HStem: 0 60<150.266 275.773>
VStem: 40 60<121.433 428.894> 380 60<201.15 428.894>
LayerCount: 2
Fore
SplineSet
200 0 m 3
 100 0 40 110 40 210 c 3
 40 220 40 390 40 400 c 3
 40 417 53 430 70 430 c 3
 87 430 100 417 100 400 c 3
 100 390 100 220 100 210 c 3
 100 146 136 60 200 60 c 3
 324 60 380 206 380 330 c 3
 380 340 380 390 380 400 c 3
 380 417 393 430 410 430 c 3
 427 430 440 417 440 400 c 3
 440 390 440 340 440 330 c 3
 440 170 360 0 200 0 c 3
EndSplineSet
Validated: 1
EndChar

StartChar: uni028F
Encoding: 655 655 407
Width: 520
VWidth: 10
Flags: W
HStem: 0 21G<71.5 85.5>
DStem2: 112 400 70 358 0.707107 -0.707107<-50.5419 209.304> 80 72 122 30 0.707107 0.707107<-50.5419 195.161 254.558 514.404>
LayerCount: 2
Fore
SplineSet
80 0 m 3
 63 0 50 13 50 30 c 3
 50 41 60 52 80 72 c 0
 85 77 134 125 218 210 c 1
 70 358 l 0
 50 378 40 389 40 400 c 3
 40 417 53 430 70 430 c 3
 81 430 92 420 112 400 c 0
 117 396 175 337 260 252 c 1
 345 337 403 396 408 400 c 0
 428 420 439 430 450 430 c 3
 467 430 480 417 480 400 c 3
 480 389 470 378 450 358 c 0
 122 30 l 0
 102 10 91 0 80 0 c 3
EndSplineSet
Validated: 1
EndChar

StartChar: thorn
Encoding: 254 254 408
Width: 400
VWidth: 0
Flags: W
HStem: -384 21G<61.5 78.5> 0 60<123.585 247.807> 260 60<150.596 275.954>
VStem: 40 60<-382.894 24 83.7164 209.782 274 614.894> 300 60<112.193 235.954>
LayerCount: 2
Fore
SplineSet
180 60 m 3
 247 60 300 113 300 180 c 3
 300 227 267 260 220 260 c 3
 153 260 100 207 100 140 c 3
 100 93 133 60 180 60 c 3
180 0 m 3
 150 0 122 9 100 24 c 1
 100 -354 l 3
 100 -371 87 -384 70 -384 c 3
 53 -384 40 -371 40 -354 c 3
 40 586 l 3
 40 603 53 616 70 616 c 3
 87 616 100 603 100 586 c 3
 100 274 l 1
 132 303 174 320 220 320 c 3
 300 320 360 260 360 180 c 3
 360 81 279 0 180 0 c 3
EndSplineSet
Validated: 1
EndChar

StartChar: Thorn
Encoding: 222 222 409
Width: 510
VWidth: 0
Flags: W
HStem: 0 60<150.596 307.875> 370 60<201.653 358.013> 520 20G<61.5 78.5>
VStem: 40 60<-318.894 45 110.218 267.407 336 538.894> 410 60<162.125 318.013>
LayerCount: 2
Fore
SplineSet
220 0 m 3
 174 0 132 17 100 45 c 1
 100 -290 l 3
 100 -307 87 -320 70 -320 c 3
 53 -320 40 -307 40 -290 c 3
 40 510 l 3
 40 527 53 540 70 540 c 3
 87 540 100 527 100 510 c 3
 100 336 l 1
 147 392 217 430 290 430 c 3
 390 430 470 350 470 250 c 3
 470 120 350 0 220 0 c 3
220 60 m 3
 327 60 410 143 410 250 c 3
 410 317 357 370 290 370 c 3
 183 370 100 287 100 180 c 3
 100 113 153 60 220 60 c 3
EndSplineSet
Validated: 1
EndChar

StartChar: germandbls
Encoding: 223 223 410
Width: 430
VWidth: 0
Flags: W
HStem: 0 60<199.904 305.954> 556 60<111.662 215.954>
VStem: 40 60<1.1064 544.281> 240 60<420.141 531.954> 330 60<84.0457 208.505>
DStem2: 242 360 200 318 0.707107 -0.707107<0 202.825>
LayerCount: 2
Fore
SplineSet
250 60 m 3
 297 60 330 93 330 140 c 3
 330 177 315 203 298 220 c 0
 288 230 250 268 200 318 c 0
 180 338 170 343 170 360 c 3
 170 377 180 382 200 402 c 0
 218 420 208 410 218 420 c 0
 228 430 240 449 240 476 c 3
 240 523 207 556 160 556 c 3
 123 556 100 533 100 496 c 3
 100 486 100 40 100 30 c 3
 100 13 87 0 70 0 c 3
 53 0 40 13 40 30 c 3
 40 40 40 486 40 496 c 3
 40 566 90 616 160 616 c 3
 240 616 300 556 300 476 c 3
 300 426 280 398 260 378 c 0
 250 368 252 370 242 360 c 1
 252 350 330 272 340 262 c 0
 370 232 390 190 390 140 c 3
 390 60 330 0 250 0 c 3
 220 0 188 10 168 30 c 0
 150 48 140 59 140 70 c 3
 140 87 153 100 170 100 c 3
 181 100 192 90 210 72 c 0
 218 64 236 60 250 60 c 3
EndSplineSet
Validated: 1
EndChar

StartChar: uniA7F3
Encoding: 42995 42995 412
Width: 360
VWidth: 0
Flags: W
HStem: 280 60<111.451 216.415> 480 60<124.046 228.208>
VStem: 40 60<351.662 455.954> 240 60<161.106 304 363.716 468.395>
LayerCount: 2
Fore
SplineSet
160 280 m 3
 89 280 40 330 40 400 c 3
 40 480 100 540 180 540 c 3
 204 540 225 534 243 524 c 1
 248 534 258 540 270 540 c 3
 287 540 300 527 300 510 c 3
 300 190 l 3
 300 173 287 160 270 160 c 3
 253 160 240 173 240 190 c 3
 240 304 l 1
 218 289 190 280 160 280 c 3
160 340 m 3
 207 340 240 373 240 420 c 3
 240 457 217 480 180 480 c 3
 133 480 100 447 100 400 c 3
 100 363 123 340 160 340 c 3
EndSplineSet
Validated: 1
EndChar

StartChar: uniA7EE
Encoding: 42990 42990 413
Width: 480
VWidth: 0
Flags: W
HStem: 0 60<151.987 286.095> 370 60<186.511 328.013>
VStem: 40 60<111.987 274.452> 380 60<154.106 318.013>
DStem2: 322 126 280 84 0.707107 -0.707107<-50.5419 9.89949 73.412 174.993>
LayerCount: 2
Fore
SplineSet
220 60 m 3
 245 60 267 66 287 77 c 1
 280 84 l 0
 260 104 250 115 250 126 c 3
 250 143 263 156 280 156 c 3
 291 156 302 146 322 126 c 0
 324 124 327 120 333 115 c 1
 363 151 380 200 380 250 c 3
 380 317 327 370 260 370 c 3
 163 370 100 277 100 180 c 3
 100 113 153 60 220 60 c 3
220 0 m 3
 120 0 40 80 40 180 c 3
 40 310 130 430 260 430 c 3
 360 430 440 350 440 250 c 3
 440 183 417 120 376 73 c 1
 396 53 405 43 410 38 c 0
 430 18 440 7 440 -4 c 3
 440 -21 427 -34 410 -34 c 3
 399 -34 388 -24 368 -4 c 0
 331 33 l 1
 299 12 262 0 220 0 c 3
EndSplineSet
Validated: 1
EndChar

StartChar: uniA7EF
Encoding: 42991 42991 414
Width: 510
VWidth: 10
Flags: W
HStem: 0 21G<61.5 75.5 434.5 448.5>
DStem2: 112 400 70 358 0.707107 -0.707107<-50.5419 202.233 261.63 514.404> 70 72 112 30 0.707107 0.707107<-50.5419 202.233 261.63 514.404>
LayerCount: 2
Fore
SplineSet
297 215 m 1
 369 143 435 77 440 72 c 0
 460 52 470 41 470 30 c 3
 470 13 457 0 440 0 c 3
 429 0 418 10 398 30 c 0
 255 173 l 1
 112 30 l 0
 92 10 81 0 70 0 c 3
 53 0 40 13 40 30 c 3
 40 41 50 52 70 72 c 0
 75 77 141 143 213 215 c 1
 70 358 l 0
 50 378 40 389 40 400 c 3
 40 417 53 430 70 430 c 3
 81 430 92 420 112 400 c 0
 117 396 183 329 255 257 c 1
 327 329 393 396 398 400 c 0
 418 420 429 430 440 430 c 3
 457 430 470 417 470 400 c 3
 470 389 460 378 440 358 c 0
 297 215 l 1
EndSplineSet
Validated: 1
EndChar

StartChar: h.1r1
Encoding: 57831 57831 415
Width: 440
VWidth: 0
Flags: W
HStem: 0 60<345.854 418.894> 260 60<-78.8936 31.6921 140 270.025>
VStem: 80 60<1.1064 260 382 614.894> 280 60<65.8538 250.437>
LayerCount: 2
Fore
SplineSet
230 320 m 3
 290 320 340 271 340 210 c 3
 340 110 l 3
 340 73 353 60 390 60 c 3
 407 60 420 47 420 30 c 3
 420 13 407 0 390 0 c 3
 320 0 280 40 280 110 c 0
 280 210 l 3
 280 237 257 260 230 260 c 3
 140 260 l 1
 140 30 l 3
 140 12 127 0 110 0 c 3
 93 0 80 13 80 30 c 0
 80 302 l 1
 40 272 -3 260 -50 260 c 3
 -67 260 -80 273 -80 290 c 3
 -80 307 -67 320 -50 320 c 3
 7 320 40 342 70 372 c 0
 74 376 77 379 80 382 c 1
 80 586 l 3
 80 603 93 616 110 616 c 3
 127 616 140 603 140 586 c 0
 140 320 l 1
 230 320 l 3
EndSplineSet
Validated: 1
EndChar

StartChar: dotlessj.1o0
Encoding: 57769 57769 416
Width: 380
VWidth: 0
Flags: W
HStem: -384 60<119.578 224.477> 260 60<-78.8936 260>
VStem: 40 60<-305.652 -204.026> 260 60<-286.362 260>
DStem2: 80 -162 122 -204 0.810792 0.585335<-31.363 156.49>
LayerCount: 2
Fore
SplineSet
172 -384 m 3
 92 -384 40 -324 40 -244 c 3
 40 -211 58 -184 80 -162 c 0
 110 -132 148 -124 168 -104 c 0
 188 -84 199 -74 210 -74 c 3
 227 -74 240 -87 240 -104 c 3
 240 -115 230 -126 210 -146 c 0
 180 -176 142 -184 122 -204 c 0
 112 -214 100 -229 100 -244 c 3
 100 -291 123 -324 170 -324 c 3
 237 -324 260 -261 260 -194 c 3
 260 260 l 1
 -50 260 l 3
 -67 260 -80 273 -80 290 c 3
 -80 307 -67 320 -50 320 c 3
 290 320 l 3
 307 320 320 307 320 290 c 0
 320 -194 l 3
 320 -294 272 -384 172 -384 c 3
EndSplineSet
Validated: 1
Substitution2: "Substitutions 1r1-1" dotlessj.1r1
EndChar

StartChar: dotlessj.1r1
Encoding: 57833 57833 417
Width: 400
VWidth: 0
Flags: W
HStem: -384 60<119.578 224.477> 0 60<320.847 378.894> 260 60<-78.8936 260>
VStem: 40 60<-305.652 -204.026> 260 120<1.1064 55.7572> 260 60<-286.362 -0.732422 56 260>
DStem2: 80 -162 122 -204 0.810792 0.585335<-31.363 156.49>
LayerCount: 2
Fore
SplineSet
172 -384 m 3xf4
 92 -384 40 -324 40 -244 c 3
 40 -211 58 -184 80 -162 c 0
 110 -132 148 -124 168 -104 c 0
 188 -84 199 -74 210 -74 c 3
 227 -74 240 -87 240 -104 c 3
 240 -115 230 -126 210 -146 c 0
 180 -176 142 -184 122 -204 c 0
 112 -214 100 -229 100 -244 c 3
 100 -291 123 -324 170 -324 c 3
 237 -324 260 -261 260 -194 c 3
 260 260 l 1
 -50 260 l 3
 -67 260 -80 273 -80 290 c 3
 -80 307 -67 320 -50 320 c 3
 290 320 l 3
 307 320 320 307 320 290 c 3
 320 56 l 1xf4
 329 59 339 60 350 60 c 3
 367 60 380 47 380 30 c 3xf8
 380 13 367 0 350 0 c 3
 330 0 320 -10 320 -30 c 3
 320 -194 l 3
 320 -294 272 -384 172 -384 c 3xf4
EndSplineSet
Validated: 1
EndChar

StartChar: uni1D9C
Encoding: 7580 7580 420
Width: 340
VWidth: 0
Flags: W
HStem: 280 60<111.451 219.532> 480 60<124.046 230.096>
VStem: 40 60<351.662 455.954>
LayerCount: 2
Fore
SplineSet
160 280 m 3
 89 280 40 330 40 400 c 3
 40 480 100 540 180 540 c 3
 210 540 242 530 262 510 c 0
 280 492 290 481 290 470 c 3
 290 453 277 440 260 440 c 3
 249 440 238 450 220 468 c 0
 212 476 194 480 180 480 c 3
 133 480 100 447 100 400 c 3
 100 363 123 340 160 340 c 3
 197 340 212 354 220 362 c 0
 238 380 249 390 260 390 c 3
 277 390 290 377 290 360 c 3
 290 349 280 338 262 320 c 0
 242 300 214 280 160 280 c 3
EndSplineSet
Validated: 1
EndChar

StartChar: uni02B3
Encoding: 691 691 421
Width: 260
VWidth: 0
Flags: W
HStem: 480 60<101.642 218.894>
VStem: 40 60<281.106 478.358>
LayerCount: 2
Fore
SplineSet
130 480 m 3
 110 480 100 470 100 450 c 3
 100 310 l 3
 100 292 87 280 70 280 c 3
 53 280 40 293 40 310 c 3
 40 450 l 3
 40 504 76 540 130 540 c 3
 190 540 l 3
 207 540 220 527 220 510 c 3
 220 493 207 480 190 480 c 3
 130 480 l 3
EndSplineSet
Validated: 1
EndChar

StartChar: circle
Encoding: 9675 9675 422
Width: 620
VWidth: 0
Flags: W
HStem: 0 60<178.171 367.909> 480 60<252.091 441.829>
VStem: 40 60<138.171 327.909> 520 60<212.091 401.829>
LayerCount: 2
Fore
SplineSet
270 0 m 3
 130 0 40 90 40 230 c 3
 40 400 180 540 350 540 c 3
 490 540 580 450 580 310 c 3
 580 140 440 0 270 0 c 3
520 310 m 3
 520 417 457 480 350 480 c 3
 213 480 100 367 100 230 c 3
 100 123 163 60 270 60 c 3
 407 60 520 173 520 310 c 3
EndSplineSet
Validated: 1
EndChar
